<ttFont>
<head>
    <!-- Most of this table will be recalculated by the compiler -->
    <tableVersion value="1.0"/>
    <fontRevision value="0.034"/>
    <checkSumAdjustment value="0x8810495e"/>
    <magicNumber value="0x5f0f3cf5"/>
    <flags value="00000000 00000011"/>
    <unitsPerEm value="1024"/>
    <created value="Tue Apr  4 18:34:34 2017"/>
    <modified value="Wed Mar 28 13:59:56 2018"/>
    <xMin value="-401"/>
    <yMin value="-209"/>
    <xMax value="698"/>
    <yMax value="960"/>
    <macStyle value="00000000 00000010"/>
    <lowestRecPPEM value="7"/>
    <fontDirectionHint value="2"/>
    <indexToLocFormat value="0"/>
    <glyphDataFormat value="0"/>
  </head>
    <TTGlyph name=".notdef" xMin="-17" yMin="-30" xMax="503" yMax="670">
      <contour>
        <pt x="503" y="670" on="1"/>
        <pt x="363" y="-30" on="1"/>
        <pt x="-17" y="-30" on="1"/>
        <pt x="123" y="670" on="1"/>
      </contour>
      <contour>
        <pt x="283" y="575" on="0"/>
        <pt x="370" y="531" on="0"/>
        <pt x="370" y="499" on="1"/>
        <pt x="370" y="494" on="0"/>
        <pt x="368" y="482" on="1"/>
        <pt x="363" y="457" on="0"/>
        <pt x="333" y="420" on="0"/>
        <pt x="304" y="395" on="1"/>
        <pt x="257" y="355" on="0"/>
        <pt x="196" y="270" on="0"/>
        <pt x="179" y="192" on="1"/>
        <pt x="249" y="195" on="1"/>
        <pt x="262" y="259" on="0"/>
        <pt x="315" y="333" on="0"/>
        <pt x="359" y="374" on="1"/>
        <pt x="395" y="406" on="0"/>
        <pt x="435" y="460" on="0"/>
        <pt x="443" y="500" on="1"/>
        <pt x="446" y="515" on="0"/>
        <pt x="446" y="529" on="1"/>
        <pt x="446" y="584" on="0"/>
        <pt x="326" y="641" on="0"/>
        <pt x="183" y="645" on="1"/>
        <pt x="162" y="581" on="1"/>
      </contour>
      <contour>
        <pt x="202" y="-10" on="0"/>
        <pt x="248" y="27" on="0"/>
        <pt x="255" y="60" on="1"/>
        <pt x="257" y="70" on="0"/>
        <pt x="257" y="74" on="1"/>
        <pt x="257" y="95" on="0"/>
        <pt x="230" y="118" on="0"/>
        <pt x="208" y="118" on="1"/>
        <pt x="179" y="118" on="0"/>
        <pt x="132" y="80" on="0"/>
        <pt x="125" y="48" on="1"/>
        <pt x="123" y="38" on="0"/>
        <pt x="123" y="33" on="1"/>
        <pt x="123" y="12" on="0"/>
        <pt x="150" y="-10" on="0"/>
        <pt x="172" y="-10" on="1"/>
      </contour>
    </TTGlyph>
    <TTGlyph name="A" xMin="-9" yMin="-3" xMax="384" yMax="646">
      <contour>
        <pt x="303" y="91" on="0"/>
        <pt x="310" y="195" on="1"/>
        <pt x="126" y="189" on="1"/>
        <pt x="89" y="81" on="0"/>
        <pt x="65" y="-3" on="1"/>
        <pt x="-9" y="3" on="1"/>
        <pt x="43" y="190" on="0"/>
        <pt x="189" y="523" on="0"/>
        <pt x="275" y="646" on="1"/>
        <pt x="338" y="640" on="1"/>
        <pt x="384" y="487" on="0"/>
        <pt x="384" y="271" on="1"/>
        <pt x="384" y="142" on="0"/>
        <pt x="367" y="-3" on="1"/>
        <pt x="294" y="3" on="1"/>
      </contour>
      <contour>
        <pt x="311" y="259" on="1"/>
        <pt x="311" y="300" on="1"/>
        <pt x="311" y="454" on="0"/>
        <pt x="291" y="551" on="1"/>
        <pt x="214" y="419" on="0"/>
        <pt x="150" y="253" on="1"/>
      </contour>
    </TTGlyph>
    <TTGlyph name="A.sups" xMin="147" yMin="320" xMax="403" yMax="640">
      <contour>
        <pt x="339" y="320" on="1"/>
        <pt x="275" y="320" on="1"/>
        <pt x="301" y="448" on="1"/>
        <pt x="237" y="448" on="1"/>
        <pt x="211" y="320" on="1"/>
        <pt x="147" y="320" on="1"/>
        <pt x="211" y="640" on="1"/>
        <pt x="403" y="640" on="1"/>
      </contour>
      <contour>
        <pt x="326" y="576" on="1"/>
        <pt x="262" y="576" on="1"/>
        <pt x="250" y="512" on="1"/>
        <pt x="314" y="512" on="1"/>
      </contour>
    </TTGlyph>
    <TTGlyph name="AE" xMin="-62" yMin="-5" xMax="531" yMax="643">
      <contour>
        <pt x="426" y="64" on="1"/>
        <pt x="413" y="0" on="1"/>
        <pt x="154" y="0" on="1"/>
        <pt x="193" y="192" on="1"/>
        <pt x="72" y="189" on="1"/>
        <pt x="38" y="90" on="0"/>
        <pt x="10" y="-5" on="1"/>
        <pt x="-62" y="6" on="1"/>
        <pt x="-9" y="192" on="0"/>
        <pt x="135" y="523" on="0"/>
        <pt x="219" y="643" on="1"/>
        <pt x="531" y="640" on="1"/>
        <pt x="518" y="576" on="1"/>
        <pt x="341" y="576" on="1"/>
        <pt x="290" y="320" on="1"/>
        <pt x="413" y="320" on="1"/>
        <pt x="400" y="256" on="1"/>
        <pt x="277" y="256" on="1"/>
        <pt x="239" y="64" on="1"/>
      </contour>
      <contour>
        <pt x="205" y="256" on="1"/>
        <pt x="269" y="576" on="1"/>
        <pt x="252" y="573" on="1"/>
        <pt x="171" y="446" on="0"/>
        <pt x="96" y="253" on="1"/>
      </contour>
    </TTGlyph>
    <TTGlyph name="AEacute" xMin="-62" yMin="-5" xMax="531" yMax="861">
      <component glyphName="AE" x="0" y="0" flags="0x0"/>
      <component glyphName="acutecomb.case" x="448" y="0" flags="0x0"/>
    </TTGlyph>
    <TTGlyph name="Aacute" xMin="-9" yMin="-3" xMax="456" yMax="861">
      <component glyphName="A" x="0" y="0" flags="0x0"/>
      <component glyphName="acutecomb.case" x="448" y="0" flags="0x0"/>
    </TTGlyph>
    <TTGlyph name="Abreve" xMin="-9" yMin="-3" xMax="506" yMax="832">
      <component glyphName="A" x="0" y="0" flags="0x0"/>
      <component glyphName="uni0306.case" x="448" y="0" flags="0x0"/>
    </TTGlyph>
    <TTGlyph name="Acircumflex" xMin="-9" yMin="-3" xMax="429" yMax="842">
      <component glyphName="A" x="0" y="0" flags="0x0"/>
      <component glyphName="uni0302.case" x="448" y="0" flags="0x0"/>
    </TTGlyph>
    <TTGlyph name="Adieresis" xMin="-9" yMin="-3" xMax="473" yMax="822">
      <component glyphName="A" x="0" y="0" flags="0x0"/>
      <component glyphName="uni0308.case" x="448" y="0" flags="0x0"/>
    </TTGlyph>
    <TTGlyph name="Agrave" xMin="-9" yMin="-3" xMax="387" yMax="861">
      <component glyphName="A" x="0" y="0" flags="0x0"/>
      <component glyphName="gravecomb.case" x="448" y="0" flags="0x0"/>
    </TTGlyph>
    <TTGlyph name="Alpha" xMin="-9" yMin="-3" xMax="384" yMax="646">
      <component glyphName="A" x="0" y="0" flags="0x0"/>
    </TTGlyph>
    <TTGlyph name="Alphatonos" xMin="-9" yMin="-3" xMax="384" yMax="704">
      <component glyphName="A" x="0" y="0" flags="0x0"/>
      <component glyphName="tonos" x="-192" y="0" flags="0x0"/>
    </TTGlyph>
    <TTGlyph name="Amacron" xMin="-9" yMin="-3" xMax="473" yMax="768">
      <component glyphName="A" x="0" y="0" flags="0x0"/>
      <component glyphName="uni0304.case" x="448" y="0" flags="0x0"/>
    </TTGlyph>
    <TTGlyph name="Aogonek" xMin="-9" yMin="-197" xMax="385" yMax="646">
      <contour>
        <pt x="351" y="-182" on="1"/>
        <pt x="322" y="-197" on="0"/>
        <pt x="287" y="-197" on="1"/>
        <pt x="251" y="-197" on="0"/>
        <pt x="212" y="-164" on="0"/>
        <pt x="212" y="-135" on="1"/>
        <pt x="212" y="-125" on="0"/>
        <pt x="215" y="-113" on="1"/>
        <pt x="221" y="-82" on="0"/>
        <pt x="269" y="-23" on="0"/>
        <pt x="303" y="2" on="1"/>
        <pt x="294" y="3" on="1"/>
        <pt x="303" y="91" on="0"/>
        <pt x="310" y="195" on="1"/>
        <pt x="126" y="189" on="1"/>
        <pt x="89" y="81" on="0"/>
        <pt x="65" y="-3" on="1"/>
        <pt x="-9" y="3" on="1"/>
        <pt x="43" y="190" on="0"/>
        <pt x="189" y="523" on="0"/>
        <pt x="275" y="646" on="1"/>
        <pt x="338" y="640" on="1"/>
        <pt x="385" y="487" on="0"/>
        <pt x="385" y="264" on="1"/>
        <pt x="385" y="142" on="0"/>
        <pt x="369" y="-5" on="1"/>
        <pt x="332" y="-37" on="0"/>
        <pt x="289" y="-89" on="0"/>
        <pt x="284" y="-114" on="1"/>
        <pt x="283" y="-118" on="0"/>
        <pt x="283" y="-123" on="1"/>
        <pt x="283" y="-131" on="0"/>
        <pt x="291" y="-136" on="0"/>
        <pt x="301" y="-136" on="1"/>
        <pt x="320" y="-136" on="0"/>
        <pt x="340" y="-127" on="1"/>
      </contour>
      <contour>
        <pt x="311" y="259" on="1"/>
        <pt x="311" y="300" on="1"/>
        <pt x="311" y="454" on="0"/>
        <pt x="291" y="551" on="1"/>
        <pt x="214" y="419" on="0"/>
        <pt x="150" y="253" on="1"/>
      </contour>
    </TTGlyph>
    <TTGlyph name="Aring" xMin="-9" yMin="-3" xMax="440" yMax="889">
      <component glyphName="A" x="0" y="0" flags="0x0"/>
      <component glyphName="uni030A.case" x="448" y="0" flags="0x0"/>
    </TTGlyph>
    <TTGlyph name="Aringacute" xMin="-9" yMin="-3" xMax="469" yMax="926">
      <contour>
        <pt x="303" y="91" on="0"/>
        <pt x="310" y="195" on="1"/>
        <pt x="126" y="189" on="1"/>
        <pt x="89" y="81" on="0"/>
        <pt x="65" y="-3" on="1"/>
        <pt x="-9" y="3" on="1"/>
        <pt x="39" y="174" on="0"/>
        <pt x="170" y="485" on="0"/>
        <pt x="249" y="605" on="1"/>
        <pt x="232" y="614" on="0"/>
        <pt x="213" y="651" on="0"/>
        <pt x="213" y="674" on="1"/>
        <pt x="213" y="712" on="0"/>
        <pt x="263" y="776" on="0"/>
        <pt x="301" y="788" on="1"/>
        <pt x="287" y="803" on="1"/>
        <pt x="407" y="926" on="1"/>
        <pt x="469" y="873" on="1"/>
        <pt x="359" y="788" on="1"/>
        <pt x="387" y="781" on="0"/>
        <pt x="421" y="736" on="0"/>
        <pt x="421" y="705" on="1"/>
        <pt x="421" y="673" on="0"/>
        <pt x="384" y="615" on="0"/>
        <pt x="352" y="597" on="1"/>
        <pt x="384" y="454" on="0"/>
        <pt x="384" y="272" on="1"/>
        <pt x="384" y="142" on="0"/>
        <pt x="367" y="-3" on="1"/>
        <pt x="294" y="3" on="1"/>
      </contour>
      <contour>
        <pt x="310" y="736" on="0"/>
        <pt x="277" y="705" on="0"/>
        <pt x="272" y="684" on="1"/>
        <pt x="271" y="681" on="0"/>
        <pt x="271" y="675" on="1"/>
        <pt x="271" y="661" on="0"/>
        <pt x="288" y="644" on="0"/>
        <pt x="303" y="644" on="1"/>
        <pt x="326" y="644" on="0"/>
        <pt x="363" y="682" on="0"/>
        <pt x="363" y="706" on="1"/>
        <pt x="363" y="719" on="0"/>
        <pt x="346" y="736" on="0"/>
        <pt x="331" y="736" on="1"/>
      </contour>
      <contour>
        <pt x="311" y="259" on="1"/>
        <pt x="311" y="300" on="1"/>
        <pt x="311" y="454" on="0"/>
        <pt x="291" y="551" on="1"/>
        <pt x="214" y="419" on="0"/>
        <pt x="150" y="253" on="1"/>
      </contour>
    </TTGlyph>
    <TTGlyph name="Atilde" xMin="-9" yMin="-3" xMax="506" yMax="832">
      <component glyphName="A" x="0" y="0" flags="0x0"/>
      <component glyphName="tildecomb.case" x="448" y="0" flags="0x0"/>
    </TTGlyph>
    <TTGlyph name="B" xMin="15" yMin="0" xMax="444" yMax="640">
      <contour>
        <pt x="359" y="298" on="0"/>
        <pt x="403" y="241" on="0"/>
        <pt x="403" y="198" on="1"/>
        <pt x="403" y="179" on="0"/>
        <pt x="399" y="162" on="1"/>
        <pt x="383" y="84" on="0"/>
        <pt x="261" y="0" on="0"/>
        <pt x="170" y="0" on="1"/>
        <pt x="15" y="0" on="1"/>
        <pt x="143" y="640" on="1"/>
        <pt x="273" y="640" on="1"/>
        <pt x="354" y="640" on="0"/>
        <pt x="444" y="575" on="0"/>
        <pt x="444" y="512" on="1"/>
        <pt x="444" y="495" on="0"/>
        <pt x="439" y="470" on="1"/>
        <pt x="421" y="382" on="0"/>
        <pt x="321" y="309" on="1"/>
      </contour>
      <contour>
        <pt x="154" y="336" on="1"/>
        <pt x="263" y="338" on="1"/>
        <pt x="302" y="364" on="0"/>
        <pt x="355" y="441" on="0"/>
        <pt x="364" y="482" on="1"/>
        <pt x="367" y="497" on="0"/>
        <pt x="367" y="509" on="1"/>
        <pt x="367" y="543" on="0"/>
        <pt x="316" y="576" on="0"/>
        <pt x="257" y="576" on="1"/>
        <pt x="202" y="576" on="1"/>
      </contour>
      <contour>
        <pt x="240" y="64" on="0"/>
        <pt x="314" y="119" on="0"/>
        <pt x="325" y="176" on="1"/>
        <pt x="328" y="190" on="0"/>
        <pt x="328" y="202" on="1"/>
        <pt x="328" y="236" on="0"/>
        <pt x="275" y="272" on="0"/>
        <pt x="214" y="272" on="1"/>
        <pt x="142" y="272" on="1"/>
        <pt x="100" y="64" on="1"/>
        <pt x="167" y="64" on="1"/>
      </contour>
    </TTGlyph>
    <TTGlyph name="B.sups" xMin="147" yMin="320" xMax="403" yMax="640">
      <contour>
        <pt x="378" y="512" on="1"/>
        <pt x="314" y="512" on="1"/>
        <pt x="326" y="576" on="1"/>
        <pt x="262" y="576" on="1"/>
        <pt x="250" y="512" on="1"/>
        <pt x="314" y="512" on="1"/>
        <pt x="301" y="448" on="1"/>
        <pt x="237" y="448" on="1"/>
        <pt x="224" y="384" on="1"/>
        <pt x="288" y="384" on="1"/>
        <pt x="301" y="448" on="1"/>
        <pt x="365" y="448" on="1"/>
        <pt x="339" y="320" on="1"/>
        <pt x="147" y="320" on="1"/>
        <pt x="211" y="640" on="1"/>
        <pt x="403" y="640" on="1"/>
      </contour>
    </TTGlyph>
    <TTGlyph name="Beta" xMin="15" yMin="0" xMax="444" yMax="640">
      <component glyphName="B" x="0" y="0" flags="0x0"/>
    </TTGlyph>
    <TTGlyph name="C" xMin="61" yMin="-9" xMax="458" yMax="647">
      <contour>
        <pt x="143" y="-9" on="0"/>
        <pt x="61" y="73" on="0"/>
        <pt x="61" y="166" on="1"/>
        <pt x="61" y="233" on="0"/>
        <pt x="80" y="325" on="1"/>
        <pt x="104" y="446" on="0"/>
        <pt x="173" y="585" on="0"/>
        <pt x="276" y="647" on="0"/>
        <pt x="354" y="647" on="1"/>
        <pt x="406" y="647" on="0"/>
        <pt x="458" y="634" on="1"/>
        <pt x="437" y="575" on="1"/>
        <pt x="400" y="583" on="0"/>
        <pt x="357" y="583" on="1"/>
        <pt x="291" y="583" on="0"/>
        <pt x="218" y="529" on="0"/>
        <pt x="177" y="419" on="0"/>
        <pt x="156" y="313" on="1"/>
        <pt x="133" y="201" on="0"/>
        <pt x="133" y="152" on="1"/>
        <pt x="133" y="100" on="0"/>
        <pt x="181" y="55" on="0"/>
        <pt x="241" y="55" on="1"/>
        <pt x="284" y="55" on="0"/>
        <pt x="335" y="67" on="1"/>
        <pt x="342" y="4" on="1"/>
        <pt x="293" y="-9" on="0"/>
        <pt x="232" y="-9" on="1"/>
      </contour>
    </TTGlyph>
    <TTGlyph name="C.sups" xMin="174" yMin="316" xMax="406" yMax="644">
      <contour>
        <pt x="302" y="370" on="0"/>
        <pt x="344" y="378" on="1"/>
        <pt x="349" y="325" on="1"/>
        <pt x="315" y="316" on="0"/>
        <pt x="275" y="316" on="1"/>
        <pt x="226" y="316" on="0"/>
        <pt x="174" y="373" on="0"/>
        <pt x="174" y="428" on="1"/>
        <pt x="174" y="455" on="0"/>
        <pt x="180" y="486" on="1"/>
        <pt x="196" y="563" on="0"/>
        <pt x="274" y="644" on="0"/>
        <pt x="331" y="644" on="1"/>
        <pt x="369" y="644" on="0"/>
        <pt x="406" y="633" on="1"/>
        <pt x="390" y="584" on="1"/>
        <pt x="361" y="590" on="0"/>
        <pt x="334" y="590" on="1"/>
        <pt x="299" y="590" on="0"/>
        <pt x="255" y="542" on="0"/>
        <pt x="242" y="474" on="1"/>
        <pt x="235" y="440" on="0"/>
        <pt x="235" y="418" on="1"/>
        <pt x="235" y="389" on="0"/>
        <pt x="257" y="370" on="0"/>
        <pt x="280" y="370" on="1"/>
      </contour>
    </TTGlyph>
    <TTGlyph name="Cacute" xMin="61" yMin="-9" xMax="488" yMax="861">
      <component glyphName="C" x="0" y="0" flags="0x0"/>
      <component glyphName="acutecomb.case" x="480" y="0" flags="0x0"/>
    </TTGlyph>
    <TTGlyph name="Ccaron" xMin="61" yMin="-9" xMax="490" yMax="841">
      <component glyphName="C" x="0" y="0" flags="0x0"/>
      <component glyphName="uni030C.case" x="480" y="0" flags="0x0"/>
    </TTGlyph>
    <TTGlyph name="Ccedilla" xMin="48" yMin="-192" xMax="458" yMax="647">
      <contour>
        <pt x="322" y="-1" on="0"/>
        <pt x="278" y="-9" on="1"/>
        <pt x="256" y="-96" on="0"/>
        <pt x="156" y="-192" on="0"/>
        <pt x="48" y="-192" on="1"/>
        <pt x="53" y="-128" on="1"/>
        <pt x="124" y="-126" on="0"/>
        <pt x="192" y="-73" on="0"/>
        <pt x="211" y="-5" on="1"/>
        <pt x="134" y="-3" on="0"/>
        <pt x="61" y="79" on="0"/>
        <pt x="61" y="167" on="1"/>
        <pt x="61" y="225" on="0"/>
        <pt x="80" y="325" on="1"/>
        <pt x="104" y="446" on="0"/>
        <pt x="173" y="585" on="0"/>
        <pt x="276" y="647" on="0"/>
        <pt x="354" y="647" on="1"/>
        <pt x="406" y="647" on="0"/>
        <pt x="458" y="634" on="1"/>
        <pt x="437" y="575" on="1"/>
        <pt x="400" y="583" on="0"/>
        <pt x="357" y="583" on="1"/>
        <pt x="291" y="583" on="0"/>
        <pt x="218" y="529" on="0"/>
        <pt x="177" y="419" on="0"/>
        <pt x="156" y="313" on="1"/>
        <pt x="133" y="201" on="0"/>
        <pt x="133" y="152" on="1"/>
        <pt x="133" y="100" on="0"/>
        <pt x="181" y="55" on="0"/>
        <pt x="241" y="55" on="1"/>
        <pt x="284" y="55" on="0"/>
        <pt x="336" y="67" on="1"/>
        <pt x="342" y="4" on="1"/>
      </contour>
    </TTGlyph>
    <TTGlyph name="Ccircumflex" xMin="61" yMin="-9" xMax="461" yMax="842">
      <component glyphName="C" x="0" y="0" flags="0x0"/>
      <component glyphName="uni0302.case" x="480" y="0" flags="0x0"/>
    </TTGlyph>
    <TTGlyph name="Cdotaccent" xMin="61" yMin="-9" xMax="458" yMax="817">
      <component glyphName="C" x="0" y="0" flags="0x0"/>
      <component glyphName="uni0307.case" x="480" y="0" flags="0x0"/>
    </TTGlyph>
    <TTGlyph name="Chi" xMin="2" yMin="-3" xMax="475" yMax="643">
      <component glyphName="X" x="0" y="0" flags="0x0"/>
    </TTGlyph>
    <TTGlyph name="D" xMin="15" yMin="0" xMax="429" yMax="640">
      <contour>
        <pt x="347" y="640" on="0"/>
        <pt x="429" y="554" on="0"/>
        <pt x="429" y="462" on="1"/>
        <pt x="429" y="399" on="0"/>
        <pt x="411" y="311" on="1"/>
        <pt x="388" y="196" on="0"/>
        <pt x="320" y="61" on="0"/>
        <pt x="216" y="0" on="0"/>
        <pt x="139" y="0" on="1"/>
        <pt x="15" y="0" on="1"/>
        <pt x="143" y="640" on="1"/>
        <pt x="261" y="640" on="1"/>
      </contour>
      <contour>
        <pt x="202" y="64" on="0"/>
        <pt x="275" y="117" on="0"/>
        <pt x="316" y="224" on="0"/>
        <pt x="336" y="323" on="1"/>
        <pt x="357" y="426" on="0"/>
        <pt x="357" y="475" on="1"/>
        <pt x="357" y="529" on="0"/>
        <pt x="308" y="576" on="0"/>
        <pt x="247" y="576" on="1"/>
        <pt x="202" y="576" on="1"/>
        <pt x="100" y="64" on="1"/>
        <pt x="139" y="64" on="1"/>
      </contour>
    </TTGlyph>
    <TTGlyph name="D.sups" xMin="147" yMin="320" xMax="390" yMax="640">
      <contour>
        <pt x="288" y="384" on="1"/>
        <pt x="275" y="320" on="1"/>
        <pt x="147" y="320" on="1"/>
        <pt x="211" y="640" on="1"/>
        <pt x="339" y="640" on="1"/>
        <pt x="326" y="576" on="1"/>
        <pt x="262" y="576" on="1"/>
        <pt x="224" y="384" on="1"/>
      </contour>
      <contour>
        <pt x="390" y="576" on="1"/>
        <pt x="352" y="384" on="1"/>
        <pt x="288" y="384" on="1"/>
        <pt x="326" y="576" on="1"/>
      </contour>
    </TTGlyph>
    <TTGlyph name="Dcaron" xMin="15" yMin="0" xMax="446" yMax="841">
      <component glyphName="D" x="0" y="0" flags="0x0"/>
      <component glyphName="uni030C.case" x="436" y="0" flags="0x0"/>
    </TTGlyph>
    <TTGlyph name="Dcroat" xMin="11" yMin="0" xMax="429" yMax="640">
      <component glyphName="Eth" x="0" y="0" flags="0x0"/>
    </TTGlyph>
    <TTGlyph name="E" xMin="15" yMin="0" xMax="457" yMax="640">
      <contour>
        <pt x="143" y="640" on="1"/>
        <pt x="457" y="640" on="1"/>
        <pt x="444" y="576" on="1"/>
        <pt x="202" y="576" on="1"/>
        <pt x="151" y="320" on="1"/>
        <pt x="339" y="320" on="1"/>
        <pt x="326" y="256" on="1"/>
        <pt x="138" y="256" on="1"/>
        <pt x="100" y="64" on="1"/>
        <pt x="352" y="64" on="1"/>
        <pt x="339" y="0" on="1"/>
        <pt x="15" y="0" on="1"/>
      </contour>
    </TTGlyph>
    <TTGlyph name="E.sups" xMin="147" yMin="320" xMax="403" yMax="640">
      <contour>
        <pt x="250" y="512" on="1"/>
        <pt x="378" y="512" on="1"/>
        <pt x="365" y="448" on="1"/>
        <pt x="237" y="448" on="1"/>
        <pt x="224" y="384" on="1"/>
        <pt x="352" y="384" on="1"/>
        <pt x="339" y="320" on="1"/>
        <pt x="147" y="320" on="1"/>
        <pt x="211" y="640" on="1"/>
        <pt x="403" y="640" on="1"/>
        <pt x="390" y="576" on="1"/>
        <pt x="262" y="576" on="1"/>
      </contour>
    </TTGlyph>
    <TTGlyph name="Eacute" xMin="15" yMin="0" xMax="457" yMax="861">
      <component glyphName="E" x="0" y="0" flags="0x0"/>
      <component glyphName="acutecomb.case" x="444" y="0" flags="0x0"/>
    </TTGlyph>
    <TTGlyph name="Ebreve" xMin="15" yMin="0" xMax="502" yMax="832">
      <component glyphName="E" x="0" y="0" flags="0x0"/>
      <component glyphName="uni0306.case" x="444" y="0" flags="0x0"/>
    </TTGlyph>
    <TTGlyph name="Ecaron" xMin="15" yMin="0" xMax="457" yMax="841">
      <component glyphName="E" x="0" y="0" flags="0x0"/>
      <component glyphName="uni030C.case" x="444" y="0" flags="0x0"/>
    </TTGlyph>
    <TTGlyph name="Ecircumflex" xMin="15" yMin="0" xMax="457" yMax="842">
      <component glyphName="E" x="0" y="0" flags="0x0"/>
      <component glyphName="uni0302.case" x="444" y="0" flags="0x0"/>
    </TTGlyph>
    <TTGlyph name="Edieresis" xMin="15" yMin="0" xMax="469" yMax="822">
      <component glyphName="E" x="0" y="0" flags="0x0"/>
      <component glyphName="uni0308.case" x="444" y="0" flags="0x0"/>
    </TTGlyph>
    <TTGlyph name="Edotaccent" xMin="15" yMin="0" xMax="457" yMax="817">
      <component glyphName="E" x="0" y="0" flags="0x0"/>
      <component glyphName="uni0307.case" x="444" y="0" flags="0x0"/>
    </TTGlyph>
    <TTGlyph name="Egrave" xMin="15" yMin="0" xMax="457" yMax="861">
      <component glyphName="E" x="0" y="0" flags="0x0"/>
      <component glyphName="gravecomb.case" x="444" y="0" flags="0x0"/>
    </TTGlyph>
    <TTGlyph name="Emacron" xMin="15" yMin="0" xMax="469" yMax="768">
      <component glyphName="E" x="0" y="0" flags="0x0"/>
      <component glyphName="uni0304.case" x="444" y="0" flags="0x0"/>
    </TTGlyph>
    <TTGlyph name="Eng" xMin="15" yMin="-197" xMax="471" yMax="640">
      <contour>
        <pt x="471" y="640" on="1"/>
        <pt x="342" y="-8" on="1"/>
        <pt x="327" y="-81" on="0"/>
        <pt x="257" y="-169" on="0"/>
        <pt x="187" y="-197" on="1"/>
        <pt x="165" y="-135" on="1"/>
        <pt x="214" y="-116" on="0"/>
        <pt x="259" y="-62" on="0"/>
        <pt x="269" y="-10" on="1"/>
        <pt x="273" y="7" on="1"/>
        <pt x="263" y="0" on="1"/>
        <pt x="195" y="384" on="1"/>
        <pt x="189" y="506" on="1"/>
        <pt x="87" y="0" on="1"/>
        <pt x="15" y="0" on="1"/>
        <pt x="143" y="640" on="1"/>
        <pt x="224" y="640" on="1"/>
        <pt x="291" y="256" on="1"/>
        <pt x="297" y="132" on="1"/>
        <pt x="399" y="640" on="1"/>
      </contour>
    </TTGlyph>
    <TTGlyph name="Eogonek" xMin="15" yMin="-197" xMax="457" yMax="640">
      <contour>
        <pt x="322" y="-182" on="1"/>
        <pt x="293" y="-197" on="0"/>
        <pt x="258" y="-197" on="1"/>
        <pt x="222" y="-197" on="0"/>
        <pt x="183" y="-164" on="0"/>
        <pt x="183" y="-135" on="1"/>
        <pt x="183" y="-125" on="0"/>
        <pt x="186" y="-113" on="1"/>
        <pt x="192" y="-82" on="0"/>
        <pt x="240" y="-23" on="0"/>
        <pt x="274" y="2" on="1"/>
        <pt x="15" y="0" on="1"/>
        <pt x="143" y="640" on="1"/>
        <pt x="457" y="640" on="1"/>
        <pt x="444" y="576" on="1"/>
        <pt x="202" y="576" on="1"/>
        <pt x="151" y="320" on="1"/>
        <pt x="339" y="320" on="1"/>
        <pt x="326" y="256" on="1"/>
        <pt x="138" y="256" on="1"/>
        <pt x="100" y="64" on="1"/>
        <pt x="352" y="64" on="1"/>
        <pt x="340" y="-2" on="1"/>
        <pt x="302" y="-37" on="0"/>
        <pt x="260" y="-89" on="0"/>
        <pt x="255" y="-114" on="1"/>
        <pt x="254" y="-118" on="0"/>
        <pt x="254" y="-123" on="1"/>
        <pt x="254" y="-131" on="0"/>
        <pt x="262" y="-136" on="0"/>
        <pt x="272" y="-136" on="1"/>
        <pt x="291" y="-136" on="0"/>
        <pt x="311" y="-127" on="1"/>
      </contour>
    </TTGlyph>
    <TTGlyph name="Epsilon" xMin="15" yMin="0" xMax="457" yMax="640">
      <component glyphName="E" x="0" y="0" flags="0x0"/>
    </TTGlyph>
    <TTGlyph name="Epsilontonos" xMin="-17" yMin="0" xMax="457" yMax="704">
      <component glyphName="E" x="0" y="0" flags="0x0"/>
      <component glyphName="tonos" x="-256" y="0" flags="0x0"/>
    </TTGlyph>
    <TTGlyph name="Eta" xMin="15" yMin="0" xMax="471" yMax="640">
      <component glyphName="H" x="0" y="0" flags="0x0"/>
    </TTGlyph>
    <TTGlyph name="Etatonos" xMin="-17" yMin="0" xMax="471" yMax="704">
      <component glyphName="H" x="0" y="0" flags="0x0"/>
      <component glyphName="tonos" x="-256" y="0" flags="0x0"/>
    </TTGlyph>
    <TTGlyph name="Eth" xMin="11" yMin="0" xMax="429" yMax="640">
      <contour>
        <pt x="347" y="640" on="0"/>
        <pt x="429" y="554" on="0"/>
        <pt x="429" y="462" on="1"/>
        <pt x="429" y="399" on="0"/>
        <pt x="411" y="311" on="1"/>
        <pt x="388" y="196" on="0"/>
        <pt x="320" y="61" on="0"/>
        <pt x="216" y="0" on="0"/>
        <pt x="139" y="0" on="1"/>
        <pt x="15" y="0" on="1"/>
        <pt x="66" y="256" on="1"/>
        <pt x="11" y="256" on="1"/>
        <pt x="24" y="320" on="1"/>
        <pt x="79" y="320" on="1"/>
        <pt x="143" y="640" on="1"/>
        <pt x="261" y="640" on="1"/>
      </contour>
      <contour>
        <pt x="202" y="64" on="0"/>
        <pt x="275" y="117" on="0"/>
        <pt x="316" y="224" on="0"/>
        <pt x="336" y="323" on="1"/>
        <pt x="357" y="426" on="0"/>
        <pt x="357" y="475" on="1"/>
        <pt x="357" y="529" on="0"/>
        <pt x="308" y="576" on="0"/>
        <pt x="247" y="576" on="1"/>
        <pt x="202" y="576" on="1"/>
        <pt x="151" y="320" on="1"/>
        <pt x="255" y="320" on="1"/>
        <pt x="242" y="256" on="1"/>
        <pt x="138" y="256" on="1"/>
        <pt x="100" y="64" on="1"/>
        <pt x="139" y="64" on="1"/>
      </contour>
    </TTGlyph>
    <TTGlyph name="Euro" xMin="58" yMin="-7" xMax="475" yMax="583">
      <contour>
        <pt x="310" y="57" on="0"/>
        <pt x="360" y="73" on="1"/>
        <pt x="369" y="12" on="1"/>
        <pt x="344" y="3" on="0"/>
        <pt x="289" y="-7" on="0"/>
        <pt x="267" y="-7" on="1"/>
        <pt x="112" y="-7" on="0"/>
        <pt x="112" y="168" on="1"/>
        <pt x="112" y="186" on="0"/>
        <pt x="113" y="195" on="1"/>
        <pt x="58" y="192" on="1"/>
        <pt x="70" y="254" on="1"/>
        <pt x="120" y="257" on="1"/>
        <pt x="121" y="270" on="0"/>
        <pt x="126" y="294" on="1"/>
        <pt x="132" y="323" on="0"/>
        <pt x="133" y="325" on="1"/>
        <pt x="84" y="322" on="1"/>
        <pt x="96" y="384" on="1"/>
        <pt x="150" y="387" on="1"/>
        <pt x="184" y="484" on="0"/>
        <pt x="293" y="583" on="0"/>
        <pt x="375" y="583" on="1"/>
        <pt x="399" y="583" on="0"/>
        <pt x="452" y="572" on="0"/>
        <pt x="475" y="562" on="1"/>
        <pt x="452" y="505" on="1"/>
        <pt x="412" y="519" on="0"/>
        <pt x="372" y="519" on="1"/>
        <pt x="268" y="519" on="0"/>
        <pt x="222" y="381" on="1"/>
        <pt x="400" y="384" on="1"/>
        <pt x="372" y="322" on="1"/>
        <pt x="204" y="319" on="1"/>
        <pt x="202" y="311" on="0"/>
        <pt x="196" y="282" on="1"/>
        <pt x="191" y="258" on="0"/>
        <pt x="190" y="251" on="1"/>
        <pt x="345" y="254" on="1"/>
        <pt x="319" y="192" on="1"/>
        <pt x="183" y="189" on="1"/>
        <pt x="182" y="166" on="1"/>
        <pt x="182" y="107" on="0"/>
        <pt x="225" y="57" on="0"/>
        <pt x="270" y="57" on="1"/>
      </contour>
    </TTGlyph>
    <TTGlyph name="F" xMin="15" yMin="0" xMax="467" yMax="640">
      <contour>
        <pt x="143" y="640" on="1"/>
        <pt x="467" y="640" on="1"/>
        <pt x="454" y="576" on="1"/>
        <pt x="202" y="576" on="1"/>
        <pt x="151" y="320" on="1"/>
        <pt x="339" y="320" on="1"/>
        <pt x="326" y="256" on="1"/>
        <pt x="138" y="256" on="1"/>
        <pt x="87" y="0" on="1"/>
        <pt x="15" y="0" on="1"/>
      </contour>
    </TTGlyph>
    <TTGlyph name="F.sups" xMin="147" yMin="320" xMax="403" yMax="640">
      <contour>
        <pt x="211" y="640" on="1"/>
        <pt x="403" y="640" on="1"/>
        <pt x="392" y="584" on="1"/>
        <pt x="264" y="584" on="1"/>
        <pt x="248" y="504" on="1"/>
        <pt x="356" y="504" on="1"/>
        <pt x="345" y="448" on="1"/>
        <pt x="237" y="448" on="1"/>
        <pt x="211" y="320" on="1"/>
        <pt x="147" y="320" on="1"/>
      </contour>
    </TTGlyph>
    <TTGlyph name="G" xMin="55" yMin="-9" xMax="464" yMax="647">
      <contour>
        <pt x="407" y="320" on="1"/>
        <pt x="347" y="6" on="1"/>
        <pt x="319" y="-2" on="0"/>
        <pt x="253" y="-9" on="0"/>
        <pt x="226" y="-9" on="1"/>
        <pt x="137" y="-9" on="0"/>
        <pt x="55" y="73" on="0"/>
        <pt x="55" y="166" on="1"/>
        <pt x="55" y="233" on="0"/>
        <pt x="74" y="325" on="1"/>
        <pt x="98" y="446" on="0"/>
        <pt x="167" y="585" on="0"/>
        <pt x="270" y="647" on="0"/>
        <pt x="348" y="647" on="1"/>
        <pt x="406" y="647" on="0"/>
        <pt x="464" y="631" on="1"/>
        <pt x="443" y="572" on="1"/>
        <pt x="399" y="583" on="0"/>
        <pt x="351" y="583" on="1"/>
        <pt x="285" y="583" on="0"/>
        <pt x="212" y="529" on="0"/>
        <pt x="171" y="419" on="0"/>
        <pt x="150" y="313" on="1"/>
        <pt x="127" y="201" on="0"/>
        <pt x="127" y="152" on="1"/>
        <pt x="127" y="100" on="0"/>
        <pt x="175" y="55" on="0"/>
        <pt x="235" y="55" on="1"/>
        <pt x="254" y="55" on="0"/>
        <pt x="280" y="58" on="1"/>
        <pt x="322" y="256" on="1"/>
        <pt x="232" y="256" on="1"/>
        <pt x="245" y="320" on="1"/>
      </contour>
    </TTGlyph>
    <TTGlyph name="G.sups" xMin="160" yMin="320" xMax="403" yMax="640">
      <contour>
        <pt x="262" y="576" on="1"/>
        <pt x="275" y="640" on="1"/>
        <pt x="403" y="640" on="1"/>
        <pt x="390" y="576" on="1"/>
      </contour>
      <contour>
        <pt x="160" y="384" on="1"/>
        <pt x="198" y="576" on="1"/>
        <pt x="262" y="576" on="1"/>
        <pt x="224" y="384" on="1"/>
      </contour>
      <contour>
        <pt x="224" y="384" on="1"/>
        <pt x="288" y="384" on="1"/>
        <pt x="314" y="512" on="1"/>
        <pt x="378" y="512" on="1"/>
        <pt x="339" y="320" on="1"/>
        <pt x="211" y="320" on="1"/>
      </contour>
    </TTGlyph>
    <TTGlyph name="Gamma" xMin="15" yMin="0" xMax="467" yMax="640">
      <component glyphName="uni0413" x="0" y="0" flags="0x0"/>
    </TTGlyph>
    <TTGlyph name="Gbreve" xMin="55" yMin="-9" xMax="526" yMax="832">
      <component glyphName="G" x="0" y="0" flags="0x0"/>
      <component glyphName="uni0306.case" x="468" y="0" flags="0x0"/>
    </TTGlyph>
    <TTGlyph name="Gcircumflex" xMin="55" yMin="-9" xMax="464" yMax="842">
      <component glyphName="G" x="0" y="0" flags="0x0"/>
      <component glyphName="uni0302.case" x="468" y="0" flags="0x0"/>
    </TTGlyph>
    <TTGlyph name="Gdotaccent" xMin="55" yMin="-9" xMax="464" yMax="817">
      <component glyphName="G" x="0" y="0" flags="0x0"/>
      <component glyphName="uni0307.case" x="468" y="0" flags="0x0"/>
    </TTGlyph>
    <TTGlyph name="H" xMin="15" yMin="0" xMax="471" yMax="640">
      <contour>
        <pt x="143" y="640" on="1"/>
        <pt x="215" y="640" on="1"/>
        <pt x="151" y="320" on="1"/>
        <pt x="335" y="320" on="1"/>
        <pt x="399" y="640" on="1"/>
        <pt x="471" y="640" on="1"/>
        <pt x="343" y="0" on="1"/>
        <pt x="271" y="0" on="1"/>
        <pt x="322" y="256" on="1"/>
        <pt x="138" y="256" on="1"/>
        <pt x="87" y="0" on="1"/>
        <pt x="15" y="0" on="1"/>
      </contour>
    </TTGlyph>
    <TTGlyph name="H.sups" xMin="147" yMin="320" xMax="403" yMax="640">
      <contour>
        <pt x="249" y="508" on="1"/>
        <pt x="313" y="508" on="1"/>
        <pt x="339" y="640" on="1"/>
        <pt x="403" y="640" on="1"/>
        <pt x="339" y="320" on="1"/>
        <pt x="275" y="320" on="1"/>
        <pt x="302" y="452" on="1"/>
        <pt x="238" y="452" on="1"/>
        <pt x="211" y="320" on="1"/>
        <pt x="147" y="320" on="1"/>
        <pt x="211" y="640" on="1"/>
        <pt x="275" y="640" on="1"/>
      </contour>
    </TTGlyph>
    <TTGlyph name="Hbar" xMin="15" yMin="0" xMax="493" yMax="640">
      <contour>
        <pt x="481" y="440" on="1"/>
        <pt x="431" y="440" on="1"/>
        <pt x="343" y="0" on="1"/>
        <pt x="271" y="0" on="1"/>
        <pt x="322" y="256" on="1"/>
        <pt x="138" y="256" on="1"/>
        <pt x="87" y="0" on="1"/>
        <pt x="15" y="0" on="1"/>
        <pt x="103" y="440" on="1"/>
        <pt x="53" y="440" on="1"/>
        <pt x="65" y="500" on="1"/>
        <pt x="115" y="500" on="1"/>
        <pt x="143" y="640" on="1"/>
        <pt x="215" y="640" on="1"/>
        <pt x="187" y="500" on="1"/>
        <pt x="371" y="500" on="1"/>
        <pt x="399" y="640" on="1"/>
        <pt x="471" y="640" on="1"/>
        <pt x="443" y="500" on="1"/>
        <pt x="493" y="500" on="1"/>
      </contour>
      <contour>
        <pt x="359" y="440" on="1"/>
        <pt x="175" y="440" on="1"/>
        <pt x="151" y="320" on="1"/>
        <pt x="335" y="320" on="1"/>
      </contour>
    </TTGlyph>
    <TTGlyph name="Hcircumflex" xMin="15" yMin="0" xMax="471" yMax="842">
      <component glyphName="H" x="0" y="0" flags="0x0"/>
      <component glyphName="uni0302.case" x="448" y="0" flags="0x0"/>
    </TTGlyph>
    <TTGlyph name="I" xMin="27" yMin="0" xMax="455" yMax="640">
      <contour>
        <pt x="38" y="54" on="1"/>
        <pt x="156" y="64" on="1"/>
        <pt x="258" y="576" on="1"/>
        <pt x="148" y="586" on="1"/>
        <pt x="159" y="640" on="1"/>
        <pt x="455" y="640" on="1"/>
        <pt x="444" y="586" on="1"/>
        <pt x="330" y="576" on="1"/>
        <pt x="228" y="64" on="1"/>
        <pt x="342" y="54" on="1"/>
        <pt x="331" y="0" on="1"/>
        <pt x="27" y="0" on="1"/>
      </contour>
    </TTGlyph>
    <TTGlyph name="I.sups" xMin="147" yMin="320" xMax="403" yMax="640">
      <contour>
        <pt x="339" y="320" on="1"/>
        <pt x="147" y="320" on="1"/>
        <pt x="157" y="368" on="1"/>
        <pt x="222" y="376" on="1"/>
        <pt x="264" y="584" on="1"/>
        <pt x="202" y="592" on="1"/>
        <pt x="211" y="640" on="1"/>
        <pt x="403" y="640" on="1"/>
        <pt x="394" y="592" on="1"/>
        <pt x="328" y="584" on="1"/>
        <pt x="286" y="376" on="1"/>
        <pt x="349" y="368" on="1"/>
      </contour>
    </TTGlyph>
    <TTGlyph name="IJ" xMin="-45" yMin="0" xMax="535" yMax="640">
      <contour>
        <pt x="-32" y="64" on="1"/>
        <pt x="28" y="64" on="1"/>
        <pt x="130" y="576" on="1"/>
        <pt x="74" y="576" on="1"/>
        <pt x="87" y="640" on="1"/>
        <pt x="271" y="640" on="1"/>
        <pt x="258" y="576" on="1"/>
        <pt x="202" y="576" on="1"/>
        <pt x="100" y="64" on="1"/>
        <pt x="253" y="64" on="1"/>
        <pt x="305" y="64" on="0"/>
        <pt x="360" y="124" on="0"/>
        <pt x="371" y="180" on="1"/>
        <pt x="450" y="576" on="1"/>
        <pt x="346" y="576" on="1"/>
        <pt x="359" y="640" on="1"/>
        <pt x="535" y="640" on="1"/>
        <pt x="443" y="178" on="1"/>
        <pt x="407" y="0" on="0"/>
        <pt x="246" y="0" on="1"/>
        <pt x="-45" y="0" on="1"/>
      </contour>
    </TTGlyph>
    <TTGlyph name="Iacute" xMin="27" yMin="0" xMax="456" yMax="861">
      <component glyphName="I" x="0" y="0" flags="0x0"/>
      <component glyphName="acutecomb.case" x="448" y="0" flags="0x0"/>
    </TTGlyph>
    <TTGlyph name="Ibreve" xMin="27" yMin="0" xMax="506" yMax="832">
      <component glyphName="I" x="0" y="0" flags="0x0"/>
      <component glyphName="uni0306.case" x="448" y="0" flags="0x0"/>
    </TTGlyph>
    <TTGlyph name="Icircumflex" xMin="27" yMin="0" xMax="455" yMax="842">
      <component glyphName="I" x="0" y="0" flags="0x0"/>
      <component glyphName="uni0302.case" x="448" y="0" flags="0x0"/>
    </TTGlyph>
    <TTGlyph name="Idieresis" xMin="27" yMin="0" xMax="473" yMax="822">
      <component glyphName="I" x="0" y="0" flags="0x0"/>
      <component glyphName="uni0308.case" x="448" y="0" flags="0x0"/>
    </TTGlyph>
    <TTGlyph name="Idotaccent" xMin="27" yMin="0" xMax="455" yMax="817">
      <component glyphName="I" x="0" y="0" flags="0x0"/>
      <component glyphName="uni0307.case" x="448" y="0" flags="0x0"/>
    </TTGlyph>
    <TTGlyph name="Igrave" xMin="27" yMin="0" xMax="455" yMax="861">
      <component glyphName="I" x="0" y="0" flags="0x0"/>
      <component glyphName="gravecomb.case" x="448" y="0" flags="0x0"/>
    </TTGlyph>
    <TTGlyph name="Imacron" xMin="27" yMin="0" xMax="473" yMax="768">
      <component glyphName="I" x="0" y="0" flags="0x0"/>
      <component glyphName="uni0304.case" x="448" y="0" flags="0x0"/>
    </TTGlyph>
    <TTGlyph name="Iogonek" xMin="27" yMin="-197" xMax="455" yMax="640">
      <contour>
        <pt x="314" y="-182" on="1"/>
        <pt x="285" y="-197" on="0"/>
        <pt x="250" y="-197" on="1"/>
        <pt x="214" y="-197" on="0"/>
        <pt x="175" y="-164" on="0"/>
        <pt x="175" y="-135" on="1"/>
        <pt x="175" y="-125" on="0"/>
        <pt x="178" y="-113" on="1"/>
        <pt x="184" y="-82" on="0"/>
        <pt x="232" y="-23" on="0"/>
        <pt x="266" y="2" on="1"/>
        <pt x="27" y="0" on="1"/>
        <pt x="38" y="54" on="1"/>
        <pt x="156" y="64" on="1"/>
        <pt x="258" y="576" on="1"/>
        <pt x="148" y="586" on="1"/>
        <pt x="159" y="640" on="1"/>
        <pt x="455" y="640" on="1"/>
        <pt x="444" y="586" on="1"/>
        <pt x="330" y="576" on="1"/>
        <pt x="228" y="64" on="1"/>
        <pt x="342" y="54" on="1"/>
        <pt x="332" y="-2" on="1"/>
        <pt x="294" y="-37" on="0"/>
        <pt x="252" y="-89" on="0"/>
        <pt x="247" y="-114" on="1"/>
        <pt x="246" y="-118" on="0"/>
        <pt x="246" y="-123" on="1"/>
        <pt x="246" y="-131" on="0"/>
        <pt x="254" y="-136" on="0"/>
        <pt x="264" y="-136" on="1"/>
        <pt x="283" y="-136" on="0"/>
        <pt x="303" y="-127" on="1"/>
      </contour>
    </TTGlyph>
    <TTGlyph name="Iota" xMin="27" yMin="0" xMax="455" yMax="640">
      <component glyphName="I" x="0" y="0" flags="0x0"/>
    </TTGlyph>
    <TTGlyph name="Iotadieresis" xMin="27" yMin="0" xMax="473" yMax="822">
      <component glyphName="I" x="0" y="0" flags="0x0"/>
      <component glyphName="uni0308.case" x="448" y="0" flags="0x0"/>
    </TTGlyph>
    <TTGlyph name="Iotatonos" xMin="-17" yMin="0" xMax="455" yMax="704">
      <component glyphName="I" x="0" y="0" flags="0x0"/>
      <component glyphName="tonos" x="-256" y="0" flags="0x0"/>
    </TTGlyph>
    <TTGlyph name="Itilde" xMin="27" yMin="0" xMax="506" yMax="832">
      <component glyphName="I" x="0" y="0" flags="0x0"/>
      <component glyphName="tildecomb.case" x="448" y="0" flags="0x0"/>
    </TTGlyph>
    <TTGlyph name="J" xMin="42" yMin="-8" xMax="471" yMax="640">
      <contour>
        <pt x="111" y="134" on="1"/>
        <pt x="113" y="94" on="0"/>
        <pt x="146" y="56" on="0"/>
        <pt x="185" y="56" on="1"/>
        <pt x="239" y="56" on="0"/>
        <pt x="295" y="116" on="0"/>
        <pt x="306" y="172" on="1"/>
        <pt x="386" y="576" on="1"/>
        <pt x="232" y="576" on="1"/>
        <pt x="245" y="640" on="1"/>
        <pt x="471" y="640" on="1"/>
        <pt x="377" y="170" on="1"/>
        <pt x="358" y="77" on="0"/>
        <pt x="257" y="-8" on="0"/>
        <pt x="183" y="-8" on="1"/>
        <pt x="112" y="-8" on="0"/>
        <pt x="44" y="62" on="0"/>
        <pt x="42" y="123" on="1"/>
      </contour>
    </TTGlyph>
    <TTGlyph name="J.sups" xMin="147" yMin="320" xMax="403" yMax="640">
      <contour>
        <pt x="352" y="384" on="1"/>
        <pt x="288" y="384" on="1"/>
        <pt x="326" y="576" on="1"/>
        <pt x="198" y="576" on="1"/>
        <pt x="211" y="640" on="1"/>
        <pt x="403" y="640" on="1"/>
      </contour>
      <contour>
        <pt x="288" y="384" on="1"/>
        <pt x="275" y="320" on="1"/>
        <pt x="147" y="320" on="1"/>
        <pt x="160" y="384" on="1"/>
      </contour>
    </TTGlyph>
    <TTGlyph name="Jcircumflex" xMin="42" yMin="-8" xMax="475" yMax="842">
      <component glyphName="J" x="0" y="0" flags="0x0"/>
      <component glyphName="uni0302.case" x="494" y="0" flags="0x0"/>
    </TTGlyph>
    <TTGlyph name="K" xMin="15" yMin="0" xMax="483" yMax="643">
      <contour>
        <pt x="375" y="300" on="0"/>
        <pt x="375" y="188" on="1"/>
        <pt x="375" y="169" on="0"/>
        <pt x="372" y="148" on="1"/>
        <pt x="354" y="0" on="1"/>
        <pt x="279" y="0" on="1"/>
        <pt x="301" y="149" on="1"/>
        <pt x="304" y="172" on="0"/>
        <pt x="304" y="188" on="1"/>
        <pt x="304" y="229" on="0"/>
        <pt x="262" y="261" on="0"/>
        <pt x="209" y="261" on="1"/>
        <pt x="139" y="261" on="1"/>
        <pt x="87" y="0" on="1"/>
        <pt x="15" y="0" on="1"/>
        <pt x="143" y="640" on="1"/>
        <pt x="215" y="640" on="1"/>
        <pt x="152" y="325" on="1"/>
        <pt x="199" y="327" on="1"/>
        <pt x="275" y="402" on="0"/>
        <pt x="371" y="540" on="0"/>
        <pt x="408" y="643" on="1"/>
        <pt x="483" y="637" on="1"/>
        <pt x="444" y="531" on="0"/>
        <pt x="350" y="388" on="0"/>
        <pt x="273" y="318" on="1"/>
      </contour>
    </TTGlyph>
    <TTGlyph name="K.sups" xMin="147" yMin="320" xMax="403" yMax="640">
      <contour>
        <pt x="314" y="512" on="1"/>
        <pt x="301" y="448" on="1"/>
        <pt x="237" y="448" on="1"/>
        <pt x="211" y="320" on="1"/>
        <pt x="147" y="320" on="1"/>
        <pt x="211" y="640" on="1"/>
        <pt x="275" y="640" on="1"/>
        <pt x="250" y="512" on="1"/>
      </contour>
      <contour>
        <pt x="403" y="640" on="1"/>
        <pt x="378" y="512" on="1"/>
        <pt x="314" y="512" on="1"/>
        <pt x="339" y="640" on="1"/>
      </contour>
      <contour>
        <pt x="301" y="448" on="1"/>
        <pt x="365" y="448" on="1"/>
        <pt x="339" y="320" on="1"/>
        <pt x="275" y="320" on="1"/>
      </contour>
    </TTGlyph>
    <TTGlyph name="Kappa" xMin="15" yMin="0" xMax="483" yMax="643">
      <component glyphName="K" x="0" y="0" flags="0x0"/>
    </TTGlyph>
    <TTGlyph name="L" xMin="15" yMin="0" xMax="352" yMax="640">
      <contour>
        <pt x="143" y="640" on="1"/>
        <pt x="215" y="640" on="1"/>
        <pt x="100" y="64" on="1"/>
        <pt x="352" y="64" on="1"/>
        <pt x="339" y="0" on="1"/>
        <pt x="15" y="0" on="1"/>
      </contour>
    </TTGlyph>
    <TTGlyph name="L.sups" xMin="147" yMin="320" xMax="350" yMax="640">
      <contour>
        <pt x="339" y="320" on="1"/>
        <pt x="147" y="320" on="1"/>
        <pt x="211" y="640" on="1"/>
        <pt x="275" y="640" on="1"/>
        <pt x="222" y="376" on="1"/>
        <pt x="350" y="376" on="1"/>
      </contour>
    </TTGlyph>
    <TTGlyph name="Lacute" xMin="15" yMin="0" xMax="352" yMax="861">
      <component glyphName="L" x="0" y="0" flags="0x0"/>
      <component glyphName="acutecomb.case" x="320" y="0" flags="0x0"/>
    </TTGlyph>
    <TTGlyph name="Lambda" xMin="-9" yMin="-3" xMax="384" yMax="646">
      <contour>
        <pt x="294" y="3" on="1"/>
        <pt x="312" y="162" on="0"/>
        <pt x="312" y="297" on="1"/>
        <pt x="312" y="446" on="0"/>
        <pt x="291" y="551" on="1"/>
        <pt x="228" y="445" on="0"/>
        <pt x="113" y="163" on="0"/>
        <pt x="65" y="-3" on="1"/>
        <pt x="-9" y="3" on="1"/>
        <pt x="43" y="190" on="0"/>
        <pt x="189" y="523" on="0"/>
        <pt x="275" y="646" on="1"/>
        <pt x="338" y="640" on="1"/>
        <pt x="384" y="487" on="0"/>
        <pt x="384" y="271" on="1"/>
        <pt x="384" y="142" on="0"/>
        <pt x="367" y="-3" on="1"/>
      </contour>
    </TTGlyph>
    <TTGlyph name="Lcaron" xMin="15" yMin="0" xMax="455" yMax="643">
      <component glyphName="L" x="0" y="0" flags="0x0"/>
      <component glyphName="uni0315" x="384" y="0" flags="0x0"/>
    </TTGlyph>
    <TTGlyph name="Ldot" xMin="15" yMin="0" xMax="402" yMax="640">
      <component glyphName="L" x="0" y="0" flags="0x0"/>
      <component glyphName="period" x="179" y="256" flags="0x4"/>
    </TTGlyph>
    <TTGlyph name="Lslash" xMin="-44" yMin="0" xMax="352" yMax="640">
      <contour>
        <pt x="352" y="64" on="1"/>
        <pt x="339" y="0" on="1"/>
        <pt x="15" y="0" on="1"/>
        <pt x="55" y="193" on="1"/>
        <pt x="-17" y="148" on="1"/>
        <pt x="-44" y="200" on="1"/>
        <pt x="69" y="271" on="1"/>
        <pt x="143" y="640" on="1"/>
        <pt x="215" y="640" on="1"/>
        <pt x="151" y="322" on="1"/>
        <pt x="259" y="390" on="1"/>
        <pt x="286" y="338" on="1"/>
        <pt x="137" y="244" on="1"/>
        <pt x="100" y="64" on="1"/>
      </contour>
    </TTGlyph>
    <TTGlyph name="M" xMin="-30" yMin="-3" xMax="491" yMax="643">
      <contour>
        <pt x="44" y="352" on="0"/>
        <pt x="123" y="643" on="1"/>
        <pt x="209" y="640" on="1"/>
        <pt x="232" y="271" on="1"/>
        <pt x="234" y="271" on="1"/>
        <pt x="405" y="640" on="1"/>
        <pt x="491" y="637" on="1"/>
        <pt x="457" y="368" on="0"/>
        <pt x="389" y="-3" on="1"/>
        <pt x="318" y="3" on="1"/>
        <pt x="362" y="222" on="0"/>
        <pt x="408" y="513" on="1"/>
        <pt x="406" y="510" on="1"/>
        <pt x="238" y="150" on="1"/>
        <pt x="182" y="150" on="1"/>
        <pt x="158" y="510" on="1"/>
        <pt x="154" y="507" on="1"/>
        <pt x="90" y="240" on="0"/>
        <pt x="41" y="-3" on="1"/>
        <pt x="-30" y="3" on="1"/>
      </contour>
    </TTGlyph>
    <TTGlyph name="M.sups" xMin="147" yMin="320" xMax="403" yMax="640">
      <contour>
        <pt x="339" y="320" on="1"/>
        <pt x="275" y="320" on="1"/>
        <pt x="288" y="384" on="1"/>
        <pt x="224" y="384" on="1"/>
        <pt x="211" y="320" on="1"/>
        <pt x="147" y="320" on="1"/>
        <pt x="211" y="640" on="1"/>
        <pt x="403" y="640" on="1"/>
      </contour>
    </TTGlyph>
    <TTGlyph name="Mu" xMin="-30" yMin="-3" xMax="491" yMax="643">
      <component glyphName="M" x="0" y="0" flags="0x0"/>
    </TTGlyph>
    <TTGlyph name="N" xMin="15" yMin="0" xMax="471" yMax="640">
      <contour>
        <pt x="471" y="640" on="1"/>
        <pt x="343" y="0" on="1"/>
        <pt x="262" y="0" on="1"/>
        <pt x="195" y="384" on="1"/>
        <pt x="189" y="506" on="1"/>
        <pt x="87" y="0" on="1"/>
        <pt x="15" y="0" on="1"/>
        <pt x="143" y="640" on="1"/>
        <pt x="224" y="640" on="1"/>
        <pt x="291" y="256" on="1"/>
        <pt x="297" y="132" on="1"/>
        <pt x="399" y="640" on="1"/>
      </contour>
    </TTGlyph>
    <TTGlyph name="N.sups" xMin="147" yMin="320" xMax="390" yMax="640">
      <contour>
        <pt x="326" y="576" on="1"/>
        <pt x="262" y="576" on="1"/>
        <pt x="211" y="320" on="1"/>
        <pt x="147" y="320" on="1"/>
        <pt x="211" y="640" on="1"/>
        <pt x="339" y="640" on="1"/>
      </contour>
      <contour>
        <pt x="390" y="576" on="1"/>
        <pt x="339" y="320" on="1"/>
        <pt x="275" y="320" on="1"/>
        <pt x="326" y="576" on="1"/>
      </contour>
    </TTGlyph>
    <TTGlyph name="Nacute" xMin="15" yMin="0" xMax="471" yMax="861">
      <component glyphName="N" x="0" y="0" flags="0x0"/>
      <component glyphName="acutecomb.case" x="448" y="0" flags="0x0"/>
    </TTGlyph>
    <TTGlyph name="Ncaron" xMin="15" yMin="0" xMax="471" yMax="841">
      <component glyphName="N" x="0" y="0" flags="0x0"/>
      <component glyphName="uni030C.case" x="448" y="0" flags="0x0"/>
    </TTGlyph>
    <TTGlyph name="Ntilde" xMin="15" yMin="0" xMax="506" yMax="832">
      <component glyphName="N" x="0" y="0" flags="0x0"/>
      <component glyphName="tildecomb.case" x="448" y="0" flags="0x0"/>
    </TTGlyph>
    <TTGlyph name="Nu" xMin="15" yMin="0" xMax="471" yMax="640">
      <component glyphName="N" x="0" y="0" flags="0x0"/>
    </TTGlyph>
    <TTGlyph name="O" xMin="40" yMin="-10" xMax="447" yMax="650">
      <contour>
        <pt x="40" y="-10" on="0"/>
        <pt x="40" y="176" on="1"/>
        <pt x="40" y="237" on="0"/>
        <pt x="57" y="325" on="1"/>
        <pt x="90" y="489" on="0"/>
        <pt x="212" y="650" on="0"/>
        <pt x="304" y="650" on="1"/>
        <pt x="376" y="650" on="0"/>
        <pt x="447" y="560" on="0"/>
        <pt x="447" y="469" on="1"/>
        <pt x="447" y="403" on="0"/>
        <pt x="429" y="313" on="1"/>
        <pt x="396" y="150" on="0"/>
        <pt x="276" y="-10" on="0"/>
        <pt x="182" y="-10" on="1"/>
      </contour>
      <contour>
        <pt x="227" y="56" on="0"/>
        <pt x="289" y="110" on="0"/>
        <pt x="335" y="227" on="0"/>
        <pt x="355" y="325" on="1"/>
        <pt x="376" y="433" on="0"/>
        <pt x="376" y="484" on="1"/>
        <pt x="376" y="537" on="0"/>
        <pt x="340" y="584" on="0"/>
        <pt x="301" y="584" on="1"/>
        <pt x="239" y="584" on="0"/>
        <pt x="160" y="460" on="0"/>
        <pt x="131" y="313" on="1"/>
        <pt x="111" y="211" on="0"/>
        <pt x="111" y="157" on="1"/>
        <pt x="111" y="103" on="0"/>
        <pt x="146" y="56" on="0"/>
        <pt x="185" y="56" on="1"/>
      </contour>
    </TTGlyph>
    <TTGlyph name="O.sups" xMin="147" yMin="320" xMax="403" yMax="640">
      <contour>
        <pt x="339" y="320" on="1"/>
        <pt x="147" y="320" on="1"/>
        <pt x="211" y="640" on="1"/>
        <pt x="403" y="640" on="1"/>
      </contour>
      <contour>
        <pt x="262" y="576" on="1"/>
        <pt x="224" y="384" on="1"/>
        <pt x="288" y="384" on="1"/>
        <pt x="326" y="576" on="1"/>
      </contour>
    </TTGlyph>
    <TTGlyph name="OE" xMin="1" yMin="0" xMax="521" yMax="640">
      <contour>
        <pt x="1" y="0" on="0"/>
        <pt x="1" y="176" on="1"/>
        <pt x="1" y="237" on="0"/>
        <pt x="18" y="325" on="1"/>
        <pt x="50" y="485" on="0"/>
        <pt x="164" y="640" on="0"/>
        <pt x="251" y="640" on="1"/>
        <pt x="521" y="640" on="1"/>
        <pt x="508" y="576" on="1"/>
        <pt x="340" y="576" on="1"/>
        <pt x="289" y="320" on="1"/>
        <pt x="419" y="320" on="1"/>
        <pt x="406" y="256" on="1"/>
        <pt x="276" y="256" on="1"/>
        <pt x="238" y="64" on="1"/>
        <pt x="416" y="64" on="1"/>
        <pt x="403" y="0" on="1"/>
        <pt x="128" y="0" on="1"/>
      </contour>
      <contour>
        <pt x="166" y="64" on="1"/>
        <pt x="268" y="576" on="1"/>
        <pt x="243" y="576" on="1"/>
        <pt x="190" y="576" on="0"/>
        <pt x="120" y="455" on="0"/>
        <pt x="92" y="313" on="1"/>
        <pt x="71" y="211" on="0"/>
        <pt x="71" y="154" on="1"/>
        <pt x="71" y="106" on="0"/>
        <pt x="102" y="64" on="0"/>
        <pt x="135" y="64" on="1"/>
      </contour>
    </TTGlyph>
    <TTGlyph name="Oacute" xMin="40" yMin="-10" xMax="456" yMax="861">
      <component glyphName="O" x="0" y="0" flags="0x0"/>
      <component glyphName="acutecomb.case" x="448" y="0" flags="0x0"/>
    </TTGlyph>
    <TTGlyph name="Obreve" xMin="40" yMin="-10" xMax="506" yMax="832">
      <component glyphName="O" x="0" y="0" flags="0x0"/>
      <component glyphName="uni0306.case" x="448" y="0" flags="0x0"/>
    </TTGlyph>
    <TTGlyph name="Ocircumflex" xMin="40" yMin="-10" xMax="447" yMax="842">
      <component glyphName="O" x="0" y="0" flags="0x0"/>
      <component glyphName="uni0302.case" x="448" y="0" flags="0x0"/>
    </TTGlyph>
    <TTGlyph name="Odieresis" xMin="40" yMin="-10" xMax="473" yMax="822">
      <component glyphName="O" x="0" y="0" flags="0x0"/>
      <component glyphName="uni0308.case" x="448" y="0" flags="0x0"/>
    </TTGlyph>
    <TTGlyph name="Ograve" xMin="40" yMin="-10" xMax="447" yMax="861">
      <component glyphName="O" x="0" y="0" flags="0x0"/>
      <component glyphName="gravecomb.case" x="448" y="0" flags="0x0"/>
    </TTGlyph>
    <TTGlyph name="Ohungarumlaut" xMin="40" yMin="-10" xMax="582" yMax="896">
      <component glyphName="O" x="0" y="0" flags="0x0"/>
      <component glyphName="uni030B.case" x="448" y="0" flags="0x0"/>
    </TTGlyph>
    <TTGlyph name="Omacron" xMin="40" yMin="-10" xMax="473" yMax="768">
      <component glyphName="O" x="0" y="0" flags="0x0"/>
      <component glyphName="uni0304.case" x="448" y="0" flags="0x0"/>
    </TTGlyph>
    <TTGlyph name="Omegatonos" xMin="-17" yMin="0" xMax="454" yMax="704">
      <component glyphName="uni03A9" x="0" y="0" flags="0x0"/>
      <component glyphName="tonos" x="-256" y="0" flags="0x0"/>
    </TTGlyph>
    <TTGlyph name="Omicron" xMin="40" yMin="-10" xMax="447" yMax="650">
      <component glyphName="O" x="0" y="0" flags="0x0"/>
    </TTGlyph>
    <TTGlyph name="Omicrontonos" xMin="-17" yMin="-10" xMax="447" yMax="704">
      <component glyphName="O" x="0" y="0" flags="0x0"/>
      <component glyphName="tonos" x="-256" y="0" flags="0x0"/>
    </TTGlyph>
    <TTGlyph name="Oslash" xMin="-8" yMin="-16" xMax="495" yMax="656">
      <contour>
        <pt x="438" y="546" on="1"/>
        <pt x="446" y="509" on="0"/>
        <pt x="446" y="466" on="1"/>
        <pt x="446" y="398" on="0"/>
        <pt x="429" y="313" on="1"/>
        <pt x="396" y="150" on="0"/>
        <pt x="276" y="-10" on="0"/>
        <pt x="182" y="-10" on="1"/>
        <pt x="114" y="-10" on="0"/>
        <pt x="80" y="32" on="1"/>
        <pt x="46" y="-16" on="1"/>
        <pt x="-8" y="15" on="1"/>
        <pt x="48" y="96" on="1"/>
        <pt x="40" y="133" on="0"/>
        <pt x="40" y="175" on="1"/>
        <pt x="40" y="243" on="0"/>
        <pt x="57" y="325" on="1"/>
        <pt x="90" y="489" on="0"/>
        <pt x="212" y="650" on="0"/>
        <pt x="304" y="650" on="1"/>
        <pt x="371" y="650" on="0"/>
        <pt x="407" y="609" on="1"/>
        <pt x="440" y="656" on="1"/>
        <pt x="495" y="626" on="1"/>
      </contour>
      <contour>
        <pt x="115" y="234" on="0"/>
        <pt x="111" y="184" on="1"/>
        <pt x="365" y="547" on="1"/>
        <pt x="356" y="567" on="0"/>
        <pt x="325" y="584" on="0"/>
        <pt x="301" y="584" on="1"/>
        <pt x="239" y="584" on="0"/>
        <pt x="160" y="460" on="0"/>
        <pt x="131" y="313" on="1"/>
      </contour>
      <contour>
        <pt x="370" y="401" on="0"/>
        <pt x="376" y="456" on="1"/>
        <pt x="121" y="93" on="1"/>
        <pt x="137" y="56" on="0"/>
        <pt x="185" y="56" on="1"/>
        <pt x="227" y="56" on="0"/>
        <pt x="289" y="110" on="0"/>
        <pt x="335" y="227" on="0"/>
        <pt x="355" y="325" on="1"/>
      </contour>
    </TTGlyph>
    <TTGlyph name="Oslashacute" xMin="-8" yMin="-16" xMax="495" yMax="861">
      <component glyphName="Oslash" x="0" y="0" flags="0x0"/>
      <component glyphName="acutecomb.case" x="448" y="0" flags="0x0"/>
    </TTGlyph>
    <TTGlyph name="Otilde" xMin="40" yMin="-10" xMax="506" yMax="832">
      <component glyphName="O" x="0" y="0" flags="0x0"/>
      <component glyphName="tildecomb.case" x="448" y="0" flags="0x0"/>
    </TTGlyph>
    <TTGlyph name="P" xMin="15" yMin="0" xMax="446" yMax="640">
      <contour>
        <pt x="143" y="640" on="1"/>
        <pt x="296" y="640" on="1"/>
        <pt x="366" y="640" on="0"/>
        <pt x="446" y="556" on="0"/>
        <pt x="446" y="479" on="1"/>
        <pt x="446" y="450" on="0"/>
        <pt x="438" y="408" on="1"/>
        <pt x="417" y="302" on="0"/>
        <pt x="297" y="192" on="0"/>
        <pt x="211" y="192" on="1"/>
        <pt x="126" y="192" on="1"/>
        <pt x="87" y="0" on="1"/>
        <pt x="15" y="0" on="1"/>
      </contour>
      <contour>
        <pt x="212" y="256" on="1"/>
        <pt x="279" y="256" on="0"/>
        <pt x="348" y="340" on="0"/>
        <pt x="364" y="420" on="1"/>
        <pt x="372" y="460" on="0"/>
        <pt x="372" y="488" on="1"/>
        <pt x="372" y="531" on="0"/>
        <pt x="330" y="576" on="0"/>
        <pt x="281" y="576" on="1"/>
        <pt x="202" y="576" on="1"/>
        <pt x="138" y="256" on="1"/>
      </contour>
    </TTGlyph>
    <TTGlyph name="P.sups" xMin="147" yMin="320" xMax="403" yMax="640">
      <contour>
        <pt x="365" y="448" on="1"/>
        <pt x="237" y="448" on="1"/>
        <pt x="211" y="320" on="1"/>
        <pt x="147" y="320" on="1"/>
        <pt x="211" y="640" on="1"/>
        <pt x="403" y="640" on="1"/>
      </contour>
      <contour>
        <pt x="326" y="576" on="1"/>
        <pt x="262" y="576" on="1"/>
        <pt x="250" y="512" on="1"/>
        <pt x="314" y="512" on="1"/>
      </contour>
    </TTGlyph>
    <TTGlyph name="Phi" xMin="45" yMin="0" xMax="442" yMax="640">
      <component glyphName="uni0424" x="0" y="0" flags="0x0"/>
    </TTGlyph>
    <TTGlyph name="Pi" xMin="15" yMin="0" xMax="471" yMax="640">
      <component glyphName="uni041F" x="0" y="0" flags="0x0"/>
    </TTGlyph>
    <TTGlyph name="Psi" xMin="83" yMin="0" xMax="467" yMax="640">
      <contour>
        <pt x="83" y="320" on="1"/>
        <pt x="147" y="640" on="1"/>
        <pt x="211" y="640" on="1"/>
        <pt x="147" y="320" on="1"/>
      </contour>
      <contour>
        <pt x="339" y="320" on="1"/>
        <pt x="326" y="256" on="1"/>
        <pt x="262" y="256" on="1"/>
        <pt x="211" y="0" on="1"/>
        <pt x="147" y="0" on="1"/>
        <pt x="198" y="256" on="1"/>
        <pt x="134" y="256" on="1"/>
        <pt x="147" y="320" on="1"/>
        <pt x="211" y="320" on="1"/>
        <pt x="275" y="640" on="1"/>
        <pt x="339" y="640" on="1"/>
        <pt x="275" y="320" on="1"/>
      </contour>
      <contour>
        <pt x="467" y="640" on="1"/>
        <pt x="403" y="320" on="1"/>
        <pt x="339" y="320" on="1"/>
        <pt x="403" y="640" on="1"/>
      </contour>
    </TTGlyph>
    <TTGlyph name="Q" xMin="40" yMin="-145" xMax="447" yMax="650">
      <contour>
        <pt x="236" y="-33" on="0"/>
        <pt x="258" y="-63" on="0"/>
        <pt x="306" y="-75" on="0"/>
        <pt x="352" y="-78" on="1"/>
        <pt x="334" y="-145" on="1"/>
        <pt x="255" y="-138" on="0"/>
        <pt x="164" y="-72" on="0"/>
        <pt x="165" y="-6" on="1"/>
        <pt x="103" y="-3" on="0"/>
        <pt x="40" y="89" on="0"/>
        <pt x="40" y="176" on="1"/>
        <pt x="40" y="237" on="0"/>
        <pt x="57" y="325" on="1"/>
        <pt x="90" y="489" on="0"/>
        <pt x="212" y="650" on="0"/>
        <pt x="304" y="650" on="1"/>
        <pt x="376" y="650" on="0"/>
        <pt x="447" y="560" on="0"/>
        <pt x="447" y="469" on="1"/>
        <pt x="447" y="403" on="0"/>
        <pt x="429" y="313" on="1"/>
        <pt x="402" y="177" on="0"/>
        <pt x="308" y="19" on="0"/>
        <pt x="237" y="-5" on="1"/>
      </contour>
      <contour>
        <pt x="111" y="211" on="0"/>
        <pt x="111" y="157" on="1"/>
        <pt x="111" y="103" on="0"/>
        <pt x="146" y="56" on="0"/>
        <pt x="185" y="56" on="1"/>
        <pt x="227" y="56" on="0"/>
        <pt x="289" y="110" on="0"/>
        <pt x="335" y="227" on="0"/>
        <pt x="355" y="325" on="1"/>
        <pt x="376" y="433" on="0"/>
        <pt x="376" y="484" on="1"/>
        <pt x="376" y="537" on="0"/>
        <pt x="340" y="584" on="0"/>
        <pt x="301" y="584" on="1"/>
        <pt x="239" y="584" on="0"/>
        <pt x="160" y="460" on="0"/>
        <pt x="131" y="313" on="1"/>
      </contour>
    </TTGlyph>
    <TTGlyph name="Q.sups" xMin="147" yMin="256" xMax="403" yMax="640">
      <contour>
        <pt x="339" y="320" on="1"/>
        <pt x="275" y="320" on="1"/>
        <pt x="262" y="256" on="1"/>
        <pt x="198" y="256" on="1"/>
        <pt x="211" y="320" on="1"/>
        <pt x="147" y="320" on="1"/>
        <pt x="211" y="640" on="1"/>
        <pt x="403" y="640" on="1"/>
      </contour>
      <contour>
        <pt x="262" y="576" on="1"/>
        <pt x="224" y="384" on="1"/>
        <pt x="288" y="384" on="1"/>
        <pt x="326" y="576" on="1"/>
      </contour>
    </TTGlyph>
    <TTGlyph name="R" xMin="15" yMin="-3" xMax="449" yMax="640">
      <contour>
        <pt x="316" y="231" on="0"/>
        <pt x="368" y="124" on="0"/>
        <pt x="368" y="48" on="1"/>
        <pt x="368" y="24" on="0"/>
        <pt x="365" y="-3" on="1"/>
        <pt x="293" y="3" on="1"/>
        <pt x="295" y="20" on="0"/>
        <pt x="295" y="50" on="1"/>
        <pt x="295" y="124" on="0"/>
        <pt x="244" y="213" on="0"/>
        <pt x="188" y="242" on="1"/>
        <pt x="135" y="241" on="1"/>
        <pt x="87" y="0" on="1"/>
        <pt x="15" y="0" on="1"/>
        <pt x="143" y="640" on="1"/>
        <pt x="296" y="640" on="1"/>
        <pt x="368" y="640" on="0"/>
        <pt x="449" y="562" on="0"/>
        <pt x="449" y="491" on="1"/>
        <pt x="449" y="464" on="0"/>
        <pt x="443" y="434" on="1"/>
        <pt x="428" y="355" on="0"/>
        <pt x="338" y="265" on="0"/>
        <pt x="267" y="253" on="1"/>
      </contour>
      <contour>
        <pt x="148" y="305" on="1"/>
        <pt x="222" y="305" on="1"/>
        <pt x="289" y="305" on="0"/>
        <pt x="356" y="377" on="0"/>
        <pt x="369" y="446" on="1"/>
        <pt x="375" y="475" on="0"/>
        <pt x="375" y="497" on="1"/>
        <pt x="375" y="536" on="0"/>
        <pt x="332" y="576" on="0"/>
        <pt x="281" y="576" on="1"/>
        <pt x="202" y="576" on="1"/>
      </contour>
    </TTGlyph>
    <TTGlyph name="R.sups" xMin="147" yMin="320" xMax="403" yMax="640">
      <contour>
        <pt x="378" y="512" on="1"/>
        <pt x="314" y="512" on="1"/>
        <pt x="326" y="576" on="1"/>
        <pt x="262" y="576" on="1"/>
        <pt x="250" y="512" on="1"/>
        <pt x="314" y="512" on="1"/>
        <pt x="301" y="448" on="1"/>
        <pt x="237" y="448" on="1"/>
        <pt x="211" y="320" on="1"/>
        <pt x="147" y="320" on="1"/>
        <pt x="211" y="640" on="1"/>
        <pt x="403" y="640" on="1"/>
      </contour>
      <contour>
        <pt x="301" y="448" on="1"/>
        <pt x="365" y="448" on="1"/>
        <pt x="339" y="320" on="1"/>
        <pt x="275" y="320" on="1"/>
      </contour>
    </TTGlyph>
    <TTGlyph name="Racute" xMin="15" yMin="-3" xMax="456" yMax="861">
      <component glyphName="R" x="0" y="0" flags="0x0"/>
      <component glyphName="acutecomb.case" x="448" y="0" flags="0x0"/>
    </TTGlyph>
    <TTGlyph name="Rcaron" xMin="15" yMin="-3" xMax="458" yMax="841">
      <component glyphName="R" x="0" y="0" flags="0x0"/>
      <component glyphName="uni030C.case" x="448" y="0" flags="0x0"/>
    </TTGlyph>
    <TTGlyph name="Rho" xMin="15" yMin="0" xMax="446" yMax="640">
      <component glyphName="P" x="0" y="0" flags="0x0"/>
    </TTGlyph>
    <TTGlyph name="S" xMin="12" yMin="-8" xMax="455" yMax="648">
      <contour>
        <pt x="384" y="582" on="0"/>
        <pt x="333" y="582" on="1"/>
        <pt x="261" y="582" on="0"/>
        <pt x="194" y="519" on="0"/>
        <pt x="183" y="462" on="1"/>
        <pt x="180" y="446" on="0"/>
        <pt x="180" y="431" on="1"/>
        <pt x="180" y="402" on="0"/>
        <pt x="205" y="361" on="0"/>
        <pt x="242" y="335" on="0"/>
        <pt x="274" y="318" on="1"/>
        <pt x="308" y="300" on="0"/>
        <pt x="350" y="270" on="0"/>
        <pt x="379" y="220" on="0"/>
        <pt x="379" y="184" on="1"/>
        <pt x="379" y="163" on="0"/>
        <pt x="375" y="143" on="1"/>
        <pt x="345" y="-8" on="0"/>
        <pt x="154" y="-8" on="1"/>
        <pt x="79" y="-8" on="0"/>
        <pt x="12" y="19" on="1"/>
        <pt x="39" y="83" on="1"/>
        <pt x="99" y="58" on="0"/>
        <pt x="160" y="58" on="1"/>
        <pt x="282" y="58" on="0"/>
        <pt x="300" y="149" on="1"/>
        <pt x="302" y="157" on="0"/>
        <pt x="302" y="171" on="1"/>
        <pt x="302" y="205" on="0"/>
        <pt x="259" y="245" on="0"/>
        <pt x="216" y="267" on="1"/>
        <pt x="179" y="287" on="0"/>
        <pt x="134" y="320" on="0"/>
        <pt x="102" y="377" on="0"/>
        <pt x="102" y="419" on="1"/>
        <pt x="102" y="443" on="0"/>
        <pt x="108" y="471" on="1"/>
        <pt x="124" y="552" on="0"/>
        <pt x="242" y="648" on="0"/>
        <pt x="336" y="648" on="1"/>
        <pt x="366" y="648" on="0"/>
        <pt x="431" y="638" on="0"/>
        <pt x="455" y="629" on="1"/>
        <pt x="431" y="565" on="1"/>
      </contour>
    </TTGlyph>
    <TTGlyph name="S.sups" xMin="148" yMin="316" xMax="395" yMax="644">
      <contour>
        <pt x="196" y="316" on="0"/>
        <pt x="148" y="327" on="1"/>
        <pt x="162" y="377" on="1"/>
        <pt x="213" y="370" on="0"/>
        <pt x="232" y="370" on="1"/>
        <pt x="286" y="370" on="0"/>
        <pt x="294" y="416" on="1"/>
        <pt x="295" y="420" on="0"/>
        <pt x="295" y="427" on="1"/>
        <pt x="295" y="438" on="0"/>
        <pt x="282" y="448" on="0"/>
        <pt x="258" y="458" on="0"/>
        <pt x="253" y="460" on="1"/>
        <pt x="222" y="470" on="0"/>
        <pt x="191" y="503" on="0"/>
        <pt x="191" y="531" on="1"/>
        <pt x="191" y="543" on="0"/>
        <pt x="194" y="556" on="1"/>
        <pt x="213" y="644" on="0"/>
        <pt x="313" y="644" on="1"/>
        <pt x="353" y="644" on="0"/>
        <pt x="395" y="633" on="1"/>
        <pt x="379" y="583" on="1"/>
        <pt x="340" y="590" on="0"/>
        <pt x="316" y="590" on="1"/>
        <pt x="292" y="590" on="0"/>
        <pt x="260" y="567" on="0"/>
        <pt x="256" y="546" on="1"/>
        <pt x="255" y="543" on="0"/>
        <pt x="255" y="537" on="1"/>
        <pt x="255" y="527" on="0"/>
        <pt x="266" y="518" on="0"/>
        <pt x="286" y="511" on="0"/>
        <pt x="292" y="508" on="1"/>
        <pt x="326" y="498" on="0"/>
        <pt x="360" y="466" on="0"/>
        <pt x="360" y="436" on="1"/>
        <pt x="360" y="428" on="0"/>
        <pt x="356" y="406" on="1"/>
        <pt x="348" y="363" on="0"/>
        <pt x="288" y="316" on="0"/>
        <pt x="237" y="316" on="1"/>
      </contour>
    </TTGlyph>
    <TTGlyph name="Sacute" xMin="12" yMin="-8" xMax="456" yMax="861">
      <component glyphName="S" x="0" y="0" flags="0x0"/>
      <component glyphName="acutecomb.case" x="448" y="0" flags="0x0"/>
    </TTGlyph>
    <TTGlyph name="Scaron" xMin="12" yMin="-8" xMax="458" yMax="841">
      <component glyphName="S" x="0" y="0" flags="0x0"/>
      <component glyphName="uni030C.case" x="448" y="0" flags="0x0"/>
    </TTGlyph>
    <TTGlyph name="Scedilla" xMin="-3" yMin="-172" xMax="455" yMax="648">
      <contour>
        <pt x="362" y="82" on="0"/>
        <pt x="287" y="10" on="0"/>
        <pt x="223" y="-5" on="1"/>
        <pt x="200" y="-85" on="0"/>
        <pt x="100" y="-172" on="0"/>
        <pt x="-3" y="-172" on="1"/>
        <pt x="2" y="-108" on="1"/>
        <pt x="69" y="-106" on="0"/>
        <pt x="135" y="-61" on="0"/>
        <pt x="151" y="-5" on="1"/>
        <pt x="151" y="-8" on="1"/>
        <pt x="79" y="-8" on="0"/>
        <pt x="12" y="19" on="1"/>
        <pt x="39" y="83" on="1"/>
        <pt x="99" y="58" on="0"/>
        <pt x="160" y="58" on="1"/>
        <pt x="282" y="58" on="0"/>
        <pt x="300" y="149" on="1"/>
        <pt x="302" y="157" on="0"/>
        <pt x="302" y="171" on="1"/>
        <pt x="302" y="205" on="0"/>
        <pt x="259" y="245" on="0"/>
        <pt x="216" y="267" on="1"/>
        <pt x="179" y="287" on="0"/>
        <pt x="134" y="320" on="0"/>
        <pt x="102" y="377" on="0"/>
        <pt x="102" y="419" on="1"/>
        <pt x="102" y="443" on="0"/>
        <pt x="108" y="471" on="1"/>
        <pt x="124" y="552" on="0"/>
        <pt x="242" y="648" on="0"/>
        <pt x="336" y="648" on="1"/>
        <pt x="366" y="648" on="0"/>
        <pt x="431" y="638" on="0"/>
        <pt x="455" y="629" on="1"/>
        <pt x="431" y="565" on="1"/>
        <pt x="384" y="582" on="0"/>
        <pt x="333" y="582" on="1"/>
        <pt x="261" y="582" on="0"/>
        <pt x="194" y="519" on="0"/>
        <pt x="183" y="462" on="1"/>
        <pt x="180" y="446" on="0"/>
        <pt x="180" y="431" on="1"/>
        <pt x="180" y="402" on="0"/>
        <pt x="205" y="361" on="0"/>
        <pt x="242" y="335" on="0"/>
        <pt x="274" y="318" on="1"/>
        <pt x="308" y="300" on="0"/>
        <pt x="350" y="270" on="0"/>
        <pt x="379" y="220" on="0"/>
        <pt x="379" y="184" on="1"/>
        <pt x="379" y="163" on="0"/>
        <pt x="375" y="143" on="1"/>
      </contour>
    </TTGlyph>
    <TTGlyph name="Scircumflex" xMin="12" yMin="-8" xMax="455" yMax="842">
      <component glyphName="S" x="0" y="0" flags="0x0"/>
      <component glyphName="uni0302.case" x="448" y="0" flags="0x0"/>
    </TTGlyph>
    <TTGlyph name="Sigma" xMin="19" yMin="0" xMax="467" yMax="640">
      <contour>
        <pt x="186" y="512" on="1"/>
        <pt x="122" y="512" on="1"/>
        <pt x="147" y="640" on="1"/>
        <pt x="467" y="640" on="1"/>
        <pt x="454" y="576" on="1"/>
        <pt x="198" y="576" on="1"/>
      </contour>
      <contour>
        <pt x="186" y="512" on="1"/>
        <pt x="250" y="512" on="1"/>
        <pt x="224" y="384" on="1"/>
        <pt x="160" y="384" on="1"/>
      </contour>
      <contour>
        <pt x="224" y="384" on="1"/>
        <pt x="288" y="384" on="1"/>
        <pt x="262" y="256" on="1"/>
        <pt x="198" y="256" on="1"/>
      </contour>
      <contour>
        <pt x="198" y="256" on="1"/>
        <pt x="173" y="128" on="1"/>
        <pt x="109" y="128" on="1"/>
        <pt x="134" y="256" on="1"/>
      </contour>
      <contour>
        <pt x="109" y="128" on="1"/>
        <pt x="96" y="64" on="1"/>
        <pt x="352" y="64" on="1"/>
        <pt x="339" y="0" on="1"/>
        <pt x="19" y="0" on="1"/>
        <pt x="45" y="128" on="1"/>
      </contour>
    </TTGlyph>
    <TTGlyph name="T" xMin="114" yMin="0" xMax="487" yMax="640">
      <contour>
        <pt x="330" y="576" on="1"/>
        <pt x="215" y="0" on="1"/>
        <pt x="143" y="0" on="1"/>
        <pt x="258" y="576" on="1"/>
        <pt x="114" y="576" on="1"/>
        <pt x="127" y="640" on="1"/>
        <pt x="487" y="640" on="1"/>
        <pt x="474" y="576" on="1"/>
      </contour>
    </TTGlyph>
    <TTGlyph name="T.sups" xMin="192" yMin="320" xMax="411" yMax="640">
      <contour>
        <pt x="400" y="584" on="1"/>
        <pt x="328" y="584" on="1"/>
        <pt x="275" y="320" on="1"/>
        <pt x="211" y="320" on="1"/>
        <pt x="264" y="584" on="1"/>
        <pt x="192" y="584" on="1"/>
        <pt x="203" y="640" on="1"/>
        <pt x="411" y="640" on="1"/>
      </contour>
    </TTGlyph>
    <TTGlyph name="Tau" xMin="114" yMin="0" xMax="487" yMax="640">
      <component glyphName="T" x="0" y="0" flags="0x0"/>
    </TTGlyph>
    <TTGlyph name="Tbar" xMin="91" yMin="0" xMax="487" yMax="640">
      <contour>
        <pt x="330" y="576" on="1"/>
        <pt x="279" y="318" on="1"/>
        <pt x="383" y="318" on="1"/>
        <pt x="371" y="258" on="1"/>
        <pt x="267" y="258" on="1"/>
        <pt x="215" y="0" on="1"/>
        <pt x="143" y="0" on="1"/>
        <pt x="195" y="258" on="1"/>
        <pt x="91" y="258" on="1"/>
        <pt x="103" y="318" on="1"/>
        <pt x="207" y="318" on="1"/>
        <pt x="258" y="576" on="1"/>
        <pt x="114" y="576" on="1"/>
        <pt x="127" y="640" on="1"/>
        <pt x="487" y="640" on="1"/>
        <pt x="474" y="576" on="1"/>
      </contour>
    </TTGlyph>
    <TTGlyph name="Tcaron" xMin="114" yMin="0" xMax="487" yMax="841">
      <component glyphName="T" x="0" y="0" flags="0x0"/>
      <component glyphName="uni030C.case" x="448" y="0" flags="0x0"/>
    </TTGlyph>
    <TTGlyph name="Theta" xMin="40" yMin="-10" xMax="447" yMax="650">
      <contour>
        <pt x="376" y="650" on="0"/>
        <pt x="447" y="560" on="0"/>
        <pt x="447" y="469" on="1"/>
        <pt x="447" y="403" on="0"/>
        <pt x="429" y="313" on="1"/>
        <pt x="396" y="150" on="0"/>
        <pt x="276" y="-10" on="0"/>
        <pt x="182" y="-10" on="1"/>
        <pt x="40" y="-10" on="0"/>
        <pt x="40" y="176" on="1"/>
        <pt x="40" y="237" on="0"/>
        <pt x="57" y="325" on="1"/>
        <pt x="90" y="489" on="0"/>
        <pt x="212" y="650" on="0"/>
        <pt x="304" y="650" on="1"/>
      </contour>
      <contour>
        <pt x="239" y="584" on="0"/>
        <pt x="160" y="461" on="0"/>
        <pt x="132" y="317" on="1"/>
        <pt x="355" y="323" on="1"/>
        <pt x="376" y="433" on="0"/>
        <pt x="376" y="483" on="1"/>
        <pt x="376" y="536" on="0"/>
        <pt x="340" y="584" on="0"/>
        <pt x="301" y="584" on="1"/>
      </contour>
      <contour>
        <pt x="241" y="56" on="0"/>
        <pt x="314" y="151" on="0"/>
        <pt x="341" y="259" on="1"/>
        <pt x="120" y="253" on="1"/>
        <pt x="111" y="196" on="0"/>
        <pt x="111" y="158" on="1"/>
        <pt x="111" y="104" on="0"/>
        <pt x="147" y="56" on="0"/>
        <pt x="185" y="56" on="1"/>
      </contour>
    </TTGlyph>
    <TTGlyph name="Thorn" xMin="15" yMin="0" xMax="425" yMax="640">
      <contour>
        <pt x="342" y="512" on="0"/>
        <pt x="425" y="435" on="0"/>
        <pt x="425" y="365" on="1"/>
        <pt x="425" y="341" on="0"/>
        <pt x="419" y="312" on="1"/>
        <pt x="401" y="222" on="0"/>
        <pt x="284" y="128" on="0"/>
        <pt x="198" y="128" on="1"/>
        <pt x="113" y="128" on="1"/>
        <pt x="87" y="0" on="1"/>
        <pt x="15" y="0" on="1"/>
        <pt x="143" y="640" on="1"/>
        <pt x="215" y="640" on="1"/>
        <pt x="190" y="512" on="1"/>
        <pt x="270" y="512" on="1"/>
      </contour>
      <contour>
        <pt x="266" y="192" on="0"/>
        <pt x="334" y="259" on="0"/>
        <pt x="347" y="324" on="1"/>
        <pt x="353" y="350" on="0"/>
        <pt x="353" y="371" on="1"/>
        <pt x="353" y="409" on="0"/>
        <pt x="307" y="448" on="0"/>
        <pt x="255" y="448" on="1"/>
        <pt x="177" y="448" on="1"/>
        <pt x="126" y="192" on="1"/>
        <pt x="199" y="192" on="1"/>
      </contour>
    </TTGlyph>
    <TTGlyph name="U" xMin="44" yMin="-8" xMax="471" yMax="640">
      <contour>
        <pt x="215" y="640" on="1"/>
        <pt x="120" y="166" on="1"/>
        <pt x="114" y="138" on="0"/>
        <pt x="114" y="117" on="1"/>
        <pt x="114" y="86" on="0"/>
        <pt x="146" y="56" on="0"/>
        <pt x="185" y="56" on="1"/>
        <pt x="239" y="56" on="0"/>
        <pt x="295" y="116" on="0"/>
        <pt x="306" y="172" on="1"/>
        <pt x="399" y="640" on="1"/>
        <pt x="471" y="640" on="1"/>
        <pt x="377" y="170" on="1"/>
        <pt x="358" y="77" on="0"/>
        <pt x="257" y="-8" on="0"/>
        <pt x="183" y="-8" on="1"/>
        <pt x="118" y="-8" on="0"/>
        <pt x="44" y="55" on="0"/>
        <pt x="44" y="119" on="1"/>
        <pt x="44" y="145" on="0"/>
        <pt x="50" y="175" on="1"/>
        <pt x="143" y="640" on="1"/>
      </contour>
    </TTGlyph>
    <TTGlyph name="U.sups" xMin="160" yMin="320" xMax="403" yMax="640">
      <contour>
        <pt x="160" y="384" on="1"/>
        <pt x="211" y="640" on="1"/>
        <pt x="275" y="640" on="1"/>
        <pt x="224" y="384" on="1"/>
      </contour>
      <contour>
        <pt x="403" y="640" on="1"/>
        <pt x="339" y="320" on="1"/>
        <pt x="211" y="320" on="1"/>
        <pt x="224" y="384" on="1"/>
        <pt x="288" y="384" on="1"/>
        <pt x="339" y="640" on="1"/>
      </contour>
    </TTGlyph>
    <TTGlyph name="Uacute" xMin="44" yMin="-8" xMax="471" yMax="861">
      <component glyphName="U" x="0" y="0" flags="0x0"/>
      <component glyphName="acutecomb.case" x="448" y="0" flags="0x0"/>
    </TTGlyph>
    <TTGlyph name="Ubreve" xMin="44" yMin="-8" xMax="506" yMax="832">
      <component glyphName="U" x="0" y="0" flags="0x0"/>
      <component glyphName="uni0306.case" x="448" y="0" flags="0x0"/>
    </TTGlyph>
    <TTGlyph name="Ucircumflex" xMin="44" yMin="-8" xMax="471" yMax="842">
      <component glyphName="U" x="0" y="0" flags="0x0"/>
      <component glyphName="uni0302.case" x="448" y="0" flags="0x0"/>
    </TTGlyph>
    <TTGlyph name="Udieresis" xMin="44" yMin="-8" xMax="473" yMax="822">
      <component glyphName="U" x="0" y="0" flags="0x0"/>
      <component glyphName="uni0308.case" x="448" y="0" flags="0x0"/>
    </TTGlyph>
    <TTGlyph name="Ugrave" xMin="44" yMin="-8" xMax="471" yMax="861">
      <component glyphName="U" x="0" y="0" flags="0x0"/>
      <component glyphName="gravecomb.case" x="448" y="0" flags="0x0"/>
    </TTGlyph>
    <TTGlyph name="Uhungarumlaut" xMin="44" yMin="-8" xMax="518" yMax="896">
      <component glyphName="U" x="0" y="0" flags="0x0"/>
      <component glyphName="uni030B.case" x="384" y="0" flags="0x0"/>
    </TTGlyph>
    <TTGlyph name="Umacron" xMin="44" yMin="-8" xMax="473" yMax="768">
      <component glyphName="U" x="0" y="0" flags="0x0"/>
      <component glyphName="uni0304.case" x="448" y="0" flags="0x0"/>
    </TTGlyph>
    <TTGlyph name="Uogonek" xMin="44" yMin="-197" xMax="471" yMax="640">
      <contour>
        <pt x="471" y="640" on="1"/>
        <pt x="377" y="170" on="1"/>
        <pt x="349" y="29" on="0"/>
        <pt x="242" y="-3" on="1"/>
        <pt x="203" y="-36" on="0"/>
        <pt x="159" y="-89" on="0"/>
        <pt x="154" y="-114" on="1"/>
        <pt x="153" y="-118" on="0"/>
        <pt x="153" y="-123" on="1"/>
        <pt x="153" y="-131" on="0"/>
        <pt x="161" y="-136" on="0"/>
        <pt x="171" y="-136" on="1"/>
        <pt x="190" y="-136" on="0"/>
        <pt x="210" y="-127" on="1"/>
        <pt x="221" y="-182" on="1"/>
        <pt x="192" y="-197" on="0"/>
        <pt x="157" y="-197" on="1"/>
        <pt x="121" y="-197" on="0"/>
        <pt x="82" y="-164" on="0"/>
        <pt x="82" y="-135" on="1"/>
        <pt x="82" y="-99" on="0"/>
        <pt x="128" y="-33" on="0"/>
        <pt x="166" y="-6" on="1"/>
        <pt x="109" y="-4" on="0"/>
        <pt x="44" y="58" on="0"/>
        <pt x="44" y="120" on="1"/>
        <pt x="44" y="145" on="0"/>
        <pt x="50" y="175" on="1"/>
        <pt x="143" y="640" on="1"/>
        <pt x="215" y="640" on="1"/>
        <pt x="120" y="166" on="1"/>
        <pt x="114" y="138" on="0"/>
        <pt x="114" y="117" on="1"/>
        <pt x="114" y="86" on="0"/>
        <pt x="146" y="56" on="0"/>
        <pt x="185" y="56" on="1"/>
        <pt x="239" y="56" on="0"/>
        <pt x="295" y="116" on="0"/>
        <pt x="306" y="172" on="1"/>
        <pt x="399" y="640" on="1"/>
      </contour>
    </TTGlyph>
    <TTGlyph name="Upsilon" xMin="115" yMin="0" xMax="495" yMax="643">
      <component glyphName="Y" x="0" y="0" flags="0x0"/>
    </TTGlyph>
    <TTGlyph name="Upsilondieresis" xMin="115" yMin="0" xMax="495" yMax="822">
      <component glyphName="Y" x="0" y="0" flags="0x0"/>
      <component glyphName="uni0308.case" x="448" y="0" flags="0x0"/>
    </TTGlyph>
    <TTGlyph name="Upsilontonos" xMin="-17" yMin="0" xMax="495" yMax="704">
      <component glyphName="Y" x="0" y="0" flags="0x0"/>
      <component glyphName="tonos" x="-256" y="0" flags="0x0"/>
    </TTGlyph>
    <TTGlyph name="Uring" xMin="44" yMin="-8" xMax="471" yMax="889">
      <component glyphName="U" x="0" y="0" flags="0x0"/>
      <component glyphName="uni030A.case" x="448" y="0" flags="0x0"/>
    </TTGlyph>
    <TTGlyph name="Utilde" xMin="44" yMin="-8" xMax="506" yMax="832">
      <component glyphName="U" x="0" y="0" flags="0x0"/>
      <component glyphName="tildecomb.case" x="448" y="0" flags="0x0"/>
    </TTGlyph>
    <TTGlyph name="V" xMin="102" yMin="-6" xMax="496" yMax="643">
      <contour>
        <pt x="496" y="637" on="1"/>
        <pt x="442" y="448" on="0"/>
        <pt x="297" y="116" on="0"/>
        <pt x="211" y="-6" on="1"/>
        <pt x="148" y="0" on="1"/>
        <pt x="102" y="153" on="0"/>
        <pt x="102" y="372" on="1"/>
        <pt x="102" y="499" on="0"/>
        <pt x="119" y="643" on="1"/>
        <pt x="192" y="637" on="1"/>
        <pt x="175" y="485" on="0"/>
        <pt x="175" y="341" on="1"/>
        <pt x="175" y="189" on="0"/>
        <pt x="195" y="89" on="1"/>
        <pt x="258" y="195" on="0"/>
        <pt x="374" y="477" on="0"/>
        <pt x="422" y="643" on="1"/>
      </contour>
    </TTGlyph>
    <TTGlyph name="V.sups" xMin="188" yMin="317" xMax="424" yMax="643">
      <contour>
        <pt x="424" y="637" on="1"/>
        <pt x="371" y="475" on="0"/>
        <pt x="272" y="317" on="1"/>
        <pt x="217" y="323" on="1"/>
        <pt x="188" y="454" on="0"/>
        <pt x="188" y="581" on="1"/>
        <pt x="188" y="601" on="0"/>
        <pt x="190" y="643" on="1"/>
        <pt x="250" y="637" on="1"/>
        <pt x="247" y="588" on="0"/>
        <pt x="247" y="538" on="1"/>
        <pt x="247" y="449" on="0"/>
        <pt x="255" y="384" on="1"/>
        <pt x="326" y="529" on="0"/>
        <pt x="363" y="643" on="1"/>
      </contour>
    </TTGlyph>
    <TTGlyph name="W" xMin="65" yMin="-3" xMax="488" yMax="643">
      <contour>
        <pt x="488" y="636" on="1"/>
        <pt x="446" y="435" on="0"/>
        <pt x="359" y="147" on="0"/>
        <pt x="291" y="-3" on="1"/>
        <pt x="229" y="3" on="1"/>
        <pt x="221" y="51" on="0"/>
        <pt x="221" y="113" on="1"/>
        <pt x="221" y="178" on="0"/>
        <pt x="232" y="261" on="1"/>
        <pt x="210" y="180" on="0"/>
        <pt x="164" y="56" on="0"/>
        <pt x="132" y="-3" on="1"/>
        <pt x="68" y="3" on="1"/>
        <pt x="65" y="57" on="0"/>
        <pt x="65" y="108" on="1"/>
        <pt x="65" y="228" on="0"/>
        <pt x="94" y="479" on="0"/>
        <pt x="126" y="643" on="1"/>
        <pt x="197" y="637" on="1"/>
        <pt x="160" y="443" on="0"/>
        <pt x="124" y="202" on="0"/>
        <pt x="120" y="81" on="1"/>
        <pt x="162" y="182" on="0"/>
        <pt x="219" y="360" on="0"/>
        <pt x="237" y="451" on="1"/>
        <pt x="300" y="445" on="1"/>
        <pt x="266" y="276" on="0"/>
        <pt x="268" y="81" on="1"/>
        <pt x="314" y="207" on="0"/>
        <pt x="378" y="452" on="0"/>
        <pt x="418" y="643" on="1"/>
      </contour>
    </TTGlyph>
    <TTGlyph name="W.sups" xMin="147" yMin="320" xMax="403" yMax="640">
      <contour>
        <pt x="403" y="640" on="1"/>
        <pt x="339" y="320" on="1"/>
        <pt x="147" y="320" on="1"/>
        <pt x="211" y="640" on="1"/>
        <pt x="275" y="640" on="1"/>
        <pt x="262" y="576" on="1"/>
        <pt x="326" y="576" on="1"/>
        <pt x="339" y="640" on="1"/>
      </contour>
    </TTGlyph>
    <TTGlyph name="Wacute" xMin="65" yMin="-3" xMax="488" yMax="861">
      <component glyphName="W" x="0" y="0" flags="0x0"/>
      <component glyphName="acutecomb.case" x="448" y="0" flags="0x0"/>
    </TTGlyph>
    <TTGlyph name="Wcircumflex" xMin="65" yMin="-3" xMax="488" yMax="842">
      <component glyphName="W" x="0" y="0" flags="0x0"/>
      <component glyphName="uni0302.case" x="448" y="0" flags="0x0"/>
    </TTGlyph>
    <TTGlyph name="Wdieresis" xMin="65" yMin="-3" xMax="488" yMax="822">
      <component glyphName="W" x="0" y="0" flags="0x0"/>
      <component glyphName="uni0308.case" x="448" y="0" flags="0x0"/>
    </TTGlyph>
    <TTGlyph name="Wgrave" xMin="65" yMin="-3" xMax="488" yMax="861">
      <component glyphName="W" x="0" y="0" flags="0x0"/>
      <component glyphName="gravecomb.case" x="448" y="0" flags="0x0"/>
    </TTGlyph>
    <TTGlyph name="X" xMin="2" yMin="-3" xMax="475" yMax="643">
      <contour>
        <pt x="282" y="3" on="1"/>
        <pt x="283" y="94" on="0"/>
        <pt x="263" y="201" on="0"/>
        <pt x="233" y="255" on="1"/>
        <pt x="179" y="198" on="0"/>
        <pt x="112" y="87" on="0"/>
        <pt x="76" y="-3" on="1"/>
        <pt x="2" y="3" on="1"/>
        <pt x="39" y="98" on="0"/>
        <pt x="121" y="231" on="0"/>
        <pt x="190" y="304" on="1"/>
        <pt x="160" y="351" on="0"/>
        <pt x="133" y="456" on="0"/>
        <pt x="133" y="525" on="1"/>
        <pt x="133" y="581" on="0"/>
        <pt x="140" y="643" on="1"/>
        <pt x="210" y="637" on="1"/>
        <pt x="201" y="564" on="0"/>
        <pt x="201" y="512" on="1"/>
        <pt x="201" y="458" on="0"/>
        <pt x="221" y="379" on="0"/>
        <pt x="243" y="344" on="1"/>
        <pt x="300" y="397" on="0"/>
        <pt x="370" y="527" on="0"/>
        <pt x="404" y="643" on="1"/>
        <pt x="475" y="637" on="1"/>
        <pt x="439" y="514" on="0"/>
        <pt x="357" y="363" on="0"/>
        <pt x="288" y="296" on="1"/>
        <pt x="327" y="226" on="0"/>
        <pt x="356" y="92" on="0"/>
        <pt x="354" y="-3" on="1"/>
      </contour>
    </TTGlyph>
    <TTGlyph name="X.sups" xMin="147" yMin="320" xMax="403" yMax="640">
      <contour>
        <pt x="250" y="512" on="1"/>
        <pt x="186" y="512" on="1"/>
        <pt x="211" y="640" on="1"/>
        <pt x="275" y="640" on="1"/>
      </contour>
      <contour>
        <pt x="403" y="640" on="1"/>
        <pt x="378" y="512" on="1"/>
        <pt x="314" y="512" on="1"/>
        <pt x="339" y="640" on="1"/>
      </contour>
      <contour>
        <pt x="250" y="512" on="1"/>
        <pt x="314" y="512" on="1"/>
        <pt x="301" y="448" on="1"/>
        <pt x="237" y="448" on="1"/>
      </contour>
      <contour>
        <pt x="237" y="448" on="1"/>
        <pt x="211" y="320" on="1"/>
        <pt x="147" y="320" on="1"/>
        <pt x="173" y="448" on="1"/>
      </contour>
      <contour>
        <pt x="301" y="448" on="1"/>
        <pt x="365" y="448" on="1"/>
        <pt x="339" y="320" on="1"/>
        <pt x="275" y="320" on="1"/>
      </contour>
    </TTGlyph>
    <TTGlyph name="Xi" xMin="5" yMin="0" xMax="476" yMax="640">
      <contour>
        <pt x="476" y="640" on="1"/>
        <pt x="463" y="576" on="1"/>
        <pt x="125" y="576" on="1"/>
        <pt x="138" y="640" on="1"/>
      </contour>
      <contour>
        <pt x="363" y="320" on="1"/>
        <pt x="350" y="256" on="1"/>
        <pt x="110" y="256" on="1"/>
        <pt x="123" y="320" on="1"/>
      </contour>
      <contour>
        <pt x="366" y="64" on="1"/>
        <pt x="353" y="0" on="1"/>
        <pt x="5" y="0" on="1"/>
        <pt x="18" y="64" on="1"/>
      </contour>
    </TTGlyph>
    <TTGlyph name="Y" xMin="115" yMin="0" xMax="495" yMax="643">
      <contour>
        <pt x="495" y="637" on="1"/>
        <pt x="451" y="494" on="0"/>
        <pt x="335" y="283" on="0"/>
        <pt x="257" y="200" on="1"/>
        <pt x="215" y="0" on="1"/>
        <pt x="143" y="0" on="1"/>
        <pt x="186" y="204" on="1"/>
        <pt x="115" y="334" on="0"/>
        <pt x="115" y="527" on="1"/>
        <pt x="115" y="592" on="0"/>
        <pt x="120" y="643" on="1"/>
        <pt x="190" y="637" on="1"/>
        <pt x="184" y="571" on="0"/>
        <pt x="184" y="516" on="1"/>
        <pt x="184" y="444" on="0"/>
        <pt x="205" y="322" on="0"/>
        <pt x="228" y="256" on="1"/>
        <pt x="297" y="347" on="0"/>
        <pt x="384" y="521" on="0"/>
        <pt x="423" y="643" on="1"/>
      </contour>
    </TTGlyph>
    <TTGlyph name="Y.sups" xMin="147" yMin="320" xMax="403" yMax="640">
      <contour>
        <pt x="403" y="640" on="1"/>
        <pt x="352" y="384" on="1"/>
        <pt x="288" y="384" on="1"/>
        <pt x="301" y="448" on="1"/>
        <pt x="173" y="448" on="1"/>
        <pt x="211" y="640" on="1"/>
        <pt x="275" y="640" on="1"/>
        <pt x="250" y="512" on="1"/>
        <pt x="314" y="512" on="1"/>
        <pt x="339" y="640" on="1"/>
      </contour>
      <contour>
        <pt x="288" y="384" on="1"/>
        <pt x="275" y="320" on="1"/>
        <pt x="147" y="320" on="1"/>
        <pt x="160" y="384" on="1"/>
      </contour>
    </TTGlyph>
    <TTGlyph name="Yacute" xMin="115" yMin="0" xMax="495" yMax="861">
      <component glyphName="Y" x="0" y="0" flags="0x0"/>
      <component glyphName="acutecomb.case" x="448" y="0" flags="0x0"/>
    </TTGlyph>
    <TTGlyph name="Ycircumflex" xMin="115" yMin="0" xMax="495" yMax="842">
      <component glyphName="Y" x="0" y="0" flags="0x0"/>
      <component glyphName="uni0302.case" x="448" y="0" flags="0x0"/>
    </TTGlyph>
    <TTGlyph name="Ydieresis" xMin="115" yMin="0" xMax="495" yMax="822">
      <component glyphName="Y" x="0" y="0" flags="0x0"/>
      <component glyphName="uni0308.case" x="448" y="0" flags="0x0"/>
    </TTGlyph>
    <TTGlyph name="Ygrave" xMin="115" yMin="0" xMax="495" yMax="861">
      <component glyphName="Y" x="0" y="0" flags="0x0"/>
      <component glyphName="gravecomb.case" x="448" y="0" flags="0x0"/>
    </TTGlyph>
    <TTGlyph name="Z" xMin="10" yMin="0" xMax="471" yMax="640">
      <contour>
        <pt x="462" y="588" on="1"/>
        <pt x="108" y="64" on="1"/>
        <pt x="356" y="64" on="1"/>
        <pt x="343" y="0" on="1"/>
        <pt x="10" y="0" on="1"/>
        <pt x="20" y="52" on="1"/>
        <pt x="374" y="576" on="1"/>
        <pt x="137" y="576" on="1"/>
        <pt x="150" y="640" on="1"/>
        <pt x="471" y="640" on="1"/>
      </contour>
    </TTGlyph>
    <TTGlyph name="Z.sups" xMin="147" yMin="320" xMax="403" yMax="640">
      <contour>
        <pt x="378" y="512" on="1"/>
        <pt x="314" y="512" on="1"/>
        <pt x="326" y="576" on="1"/>
        <pt x="198" y="576" on="1"/>
        <pt x="211" y="640" on="1"/>
        <pt x="403" y="640" on="1"/>
      </contour>
      <contour>
        <pt x="250" y="512" on="1"/>
        <pt x="314" y="512" on="1"/>
        <pt x="301" y="448" on="1"/>
        <pt x="237" y="448" on="1"/>
      </contour>
      <contour>
        <pt x="237" y="448" on="1"/>
        <pt x="224" y="384" on="1"/>
        <pt x="352" y="384" on="1"/>
        <pt x="339" y="320" on="1"/>
        <pt x="147" y="320" on="1"/>
        <pt x="173" y="448" on="1"/>
      </contour>
    </TTGlyph>
    <TTGlyph name="Zacute" xMin="10" yMin="0" xMax="471" yMax="861">
      <component glyphName="Z" x="0" y="0" flags="0x0"/>
      <component glyphName="acutecomb.case" x="448" y="0" flags="0x0"/>
    </TTGlyph>
    <TTGlyph name="Zcaron" xMin="10" yMin="0" xMax="471" yMax="841">
      <component glyphName="Z" x="0" y="0" flags="0x0"/>
      <component glyphName="uni030C.case" x="448" y="0" flags="0x0"/>
    </TTGlyph>
    <TTGlyph name="Zdotaccent" xMin="10" yMin="0" xMax="471" yMax="842">
      <component glyphName="Z" x="0" y="0" flags="0x0"/>
      <component glyphName="uni0307" x="486" y="192" flags="0x4"/>
    </TTGlyph>
    <TTGlyph name="Zeta" xMin="10" yMin="0" xMax="471" yMax="640">
      <component glyphName="Z" x="0" y="0" flags="0x0"/>
    </TTGlyph>
    <TTGlyph name="_part.slash.comp" xMin="68" yMin="148" xMax="398" yMax="390">
      <contour>
        <pt x="371" y="390" on="1"/>
        <pt x="398" y="338" on="1"/>
        <pt x="95" y="148" on="1"/>
        <pt x="68" y="200" on="1"/>
      </contour>
    </TTGlyph>
    <TTGlyph name="a" xMin="27" yMin="-4" xMax="399" yMax="453">
      <contour>
        <pt x="271" y="0" on="1"/>
        <pt x="276" y="38" on="1"/>
        <pt x="196" y="-4" on="0"/>
        <pt x="135" y="-4" on="1"/>
        <pt x="88" y="-4" on="0"/>
        <pt x="27" y="47" on="0"/>
        <pt x="27" y="94" on="1"/>
        <pt x="27" y="109" on="0"/>
        <pt x="30" y="125" on="1"/>
        <pt x="44" y="194" on="0"/>
        <pt x="176" y="264" on="0"/>
        <pt x="314" y="268" on="1"/>
        <pt x="321" y="288" on="1"/>
        <pt x="326" y="316" on="0"/>
        <pt x="326" y="331" on="1"/>
        <pt x="326" y="363" on="0"/>
        <pt x="293" y="388" on="0"/>
        <pt x="254" y="388" on="1"/>
        <pt x="202" y="388" on="0"/>
        <pt x="124" y="360" on="1"/>
        <pt x="110" y="420" on="1"/>
        <pt x="191" y="453" on="0"/>
        <pt x="262" y="453" on="1"/>
        <pt x="399" y="453" on="0"/>
        <pt x="399" y="342" on="1"/>
        <pt x="399" y="324" on="0"/>
        <pt x="394" y="296" on="1"/>
        <pt x="348" y="64" on="1"/>
        <pt x="339" y="0" on="1"/>
      </contour>
      <contour>
        <pt x="103" y="105" on="0"/>
        <pt x="103" y="100" on="1"/>
        <pt x="103" y="60" on="0"/>
        <pt x="153" y="60" on="1"/>
        <pt x="181" y="60" on="0"/>
        <pt x="241" y="81" on="0"/>
        <pt x="281" y="101" on="1"/>
        <pt x="307" y="206" on="1"/>
        <pt x="207" y="203" on="0"/>
        <pt x="113" y="159" on="0"/>
        <pt x="105" y="117" on="1"/>
      </contour>
    </TTGlyph>
    <TTGlyph name="aacute" xMin="27" yMin="-4" xMax="418" yMax="669">
      <component glyphName="a" x="0" y="0" flags="0x0"/>
      <component glyphName="acutecomb" x="448" y="0" flags="0x0"/>
    </TTGlyph>
    <TTGlyph name="abreve" xMin="27" yMin="-4" xMax="467" yMax="640">
      <component glyphName="a" x="0" y="0" flags="0x0"/>
      <component glyphName="uni0306" x="448" y="0" flags="0x0"/>
    </TTGlyph>
    <TTGlyph name="acircumflex" xMin="27" yMin="-4" xMax="399" yMax="650">
      <component glyphName="a" x="0" y="0" flags="0x0"/>
      <component glyphName="uni0302" x="448" y="0" flags="0x0"/>
    </TTGlyph>
    <TTGlyph name="acute" xMin="185" yMin="379" xMax="391" yMax="644">
      <contour>
        <pt x="185" y="394" on="1"/>
        <pt x="298" y="644" on="1"/>
        <pt x="391" y="629" on="1"/>
        <pt x="252" y="379" on="1"/>
      </contour>
    </TTGlyph>
    <TTGlyph name="acutecomb" xMin="-213" yMin="504" xMax="-30" yMax="669">
      <contour>
        <pt x="-30" y="616" on="1"/>
        <pt x="-171" y="504" on="1"/>
        <pt x="-213" y="546" on="1"/>
        <pt x="-93" y="669" on="1"/>
      </contour>
    </TTGlyph>
    <TTGlyph name="acutecomb.case" xMin="-174" yMin="696" xMax="8" yMax="861">
      <contour>
        <pt x="8" y="808" on="1"/>
        <pt x="-133" y="696" on="1"/>
        <pt x="-174" y="738" on="1"/>
        <pt x="-54" y="861" on="1"/>
      </contour>
    </TTGlyph>
    <TTGlyph name="adieresis" xMin="27" yMin="-4" xMax="438" yMax="650">
      <component glyphName="a" x="0" y="0" flags="0x0"/>
      <component glyphName="uni0308" x="448" y="0" flags="0x0"/>
    </TTGlyph>
    <TTGlyph name="ae" xMin="32" yMin="0" xMax="416" yMax="448">
      <contour>
        <pt x="416" y="384" on="1"/>
        <pt x="378" y="192" on="1"/>
        <pt x="250" y="192" on="1"/>
        <pt x="224" y="64" on="1"/>
        <pt x="352" y="64" on="1"/>
        <pt x="339" y="0" on="1"/>
        <pt x="83" y="0" on="1"/>
        <pt x="96" y="64" on="1"/>
        <pt x="160" y="64" on="1"/>
        <pt x="186" y="192" on="1"/>
        <pt x="122" y="192" on="1"/>
        <pt x="134" y="256" on="1"/>
        <pt x="198" y="256" on="1"/>
        <pt x="224" y="384" on="1"/>
        <pt x="160" y="384" on="1"/>
        <pt x="173" y="448" on="1"/>
        <pt x="365" y="448" on="1"/>
        <pt x="352" y="384" on="1"/>
        <pt x="288" y="384" on="1"/>
        <pt x="262" y="256" on="1"/>
        <pt x="326" y="256" on="1"/>
        <pt x="352" y="384" on="1"/>
      </contour>
      <contour>
        <pt x="96" y="64" on="1"/>
        <pt x="32" y="64" on="1"/>
        <pt x="58" y="192" on="1"/>
        <pt x="122" y="192" on="1"/>
      </contour>
    </TTGlyph>
    <TTGlyph name="aeacute" xMin="32" yMin="0" xMax="418" yMax="669">
      <component glyphName="ae" x="0" y="0" flags="0x0"/>
      <component glyphName="acutecomb" x="448" y="0" flags="0x0"/>
    </TTGlyph>
    <TTGlyph name="agrave" xMin="27" yMin="-4" xMax="399" yMax="669">
      <component glyphName="a" x="0" y="0" flags="0x0"/>
      <component glyphName="gravecomb" x="448" y="0" flags="0x0"/>
    </TTGlyph>
    <TTGlyph name="alpha" xMin="41" yMin="-8" xMax="445" yMax="456">
      <contour>
        <pt x="375" y="157" on="0"/>
        <pt x="365" y="88" on="1"/>
        <pt x="355" y="2" on="1"/>
        <pt x="283" y="-3" on="1"/>
        <pt x="298" y="82" on="1"/>
        <pt x="227" y="-8" on="0"/>
        <pt x="153" y="-8" on="1"/>
        <pt x="41" y="-8" on="0"/>
        <pt x="41" y="132" on="1"/>
        <pt x="41" y="175" on="0"/>
        <pt x="52" y="230" on="1"/>
        <pt x="98" y="456" on="0"/>
        <pt x="235" y="456" on="1"/>
        <pt x="275" y="456" on="0"/>
        <pt x="334" y="408" on="0"/>
        <pt x="351" y="362" on="1"/>
        <pt x="373" y="451" on="1"/>
        <pt x="445" y="446" on="1"/>
        <pt x="419" y="354" on="1"/>
        <pt x="396" y="271" on="0"/>
        <pt x="373" y="218" on="1"/>
      </contour>
      <contour>
        <pt x="199" y="56" on="0"/>
        <pt x="282" y="146" on="0"/>
        <pt x="314" y="230" on="1"/>
        <pt x="316" y="309" on="0"/>
        <pt x="273" y="392" on="0"/>
        <pt x="238" y="392" on="1"/>
        <pt x="199" y="392" on="0"/>
        <pt x="147" y="314" on="0"/>
        <pt x="128" y="218" on="1"/>
        <pt x="115" y="148" on="0"/>
        <pt x="115" y="119" on="1"/>
        <pt x="115" y="85" on="0"/>
        <pt x="137" y="56" on="0"/>
        <pt x="160" y="56" on="1"/>
      </contour>
    </TTGlyph>
    <TTGlyph name="alphatonos" xMin="41" yMin="-8" xMax="445" yMax="704">
      <component glyphName="alpha" x="0" y="0" flags="0x0"/>
      <component glyphName="tonos" x="0" y="0" flags="0x0"/>
    </TTGlyph>
    <TTGlyph name="amacron" xMin="27" yMin="-4" xMax="447" yMax="640">
      <component glyphName="a" x="0" y="0" flags="0x0"/>
      <component glyphName="uni0304" x="448" y="0" flags="0x0"/>
    </TTGlyph>
    <TTGlyph name="ampersand" xMin="16" yMin="-10" xMax="447" yMax="542">
      <contour>
        <pt x="434" y="256" on="1"/>
        <pt x="374" y="256" on="1"/>
        <pt x="329" y="17" on="1"/>
        <pt x="289" y="4" on="0"/>
        <pt x="200" y="-10" on="0"/>
        <pt x="166" y="-10" on="1"/>
        <pt x="88" y="-10" on="0"/>
        <pt x="16" y="57" on="0"/>
        <pt x="16" y="112" on="1"/>
        <pt x="16" y="134" on="0"/>
        <pt x="20" y="151" on="1"/>
        <pt x="28" y="191" on="0"/>
        <pt x="83" y="265" on="0"/>
        <pt x="138" y="290" on="1"/>
        <pt x="111" y="303" on="0"/>
        <pt x="84" y="349" on="0"/>
        <pt x="84" y="378" on="1"/>
        <pt x="84" y="393" on="0"/>
        <pt x="87" y="408" on="1"/>
        <pt x="99" y="468" on="0"/>
        <pt x="195" y="542" on="0"/>
        <pt x="274" y="542" on="1"/>
        <pt x="323" y="542" on="0"/>
        <pt x="379" y="528" on="1"/>
        <pt x="359" y="468" on="1"/>
        <pt x="305" y="478" on="0"/>
        <pt x="270" y="478" on="1"/>
        <pt x="211" y="478" on="0"/>
        <pt x="154" y="414" on="0"/>
        <pt x="154" y="373" on="1"/>
        <pt x="154" y="348" on="0"/>
        <pt x="194" y="320" on="0"/>
        <pt x="243" y="320" on="1"/>
        <pt x="447" y="320" on="1"/>
      </contour>
      <contour>
        <pt x="302" y="256" on="1"/>
        <pt x="247" y="256" on="1"/>
        <pt x="175" y="256" on="0"/>
        <pt x="101" y="190" on="0"/>
        <pt x="91" y="141" on="1"/>
        <pt x="88" y="128" on="0"/>
        <pt x="88" y="114" on="1"/>
        <pt x="88" y="54" on="0"/>
        <pt x="165" y="54" on="1"/>
        <pt x="212" y="54" on="0"/>
        <pt x="262" y="65" on="1"/>
      </contour>
    </TTGlyph>
    <TTGlyph name="ampersand.alt001" xMin="16" yMin="-18" xMax="442" yMax="516">
      <contour>
        <pt x="340" y="-18" on="1"/>
        <pt x="337" y="17" on="0"/>
        <pt x="325" y="51" on="1"/>
        <pt x="254" y="-7" on="0"/>
        <pt x="162" y="-7" on="1"/>
        <pt x="87" y="-7" on="0"/>
        <pt x="16" y="50" on="0"/>
        <pt x="16" y="97" on="1"/>
        <pt x="16" y="153" on="0"/>
        <pt x="78" y="226" on="0"/>
        <pt x="138" y="262" on="1"/>
        <pt x="115" y="288" on="0"/>
        <pt x="90" y="338" on="0"/>
        <pt x="90" y="368" on="1"/>
        <pt x="90" y="382" on="0"/>
        <pt x="93" y="397" on="1"/>
        <pt x="103" y="452" on="0"/>
        <pt x="188" y="516" on="0"/>
        <pt x="248" y="516" on="1"/>
        <pt x="303" y="516" on="0"/>
        <pt x="366" y="463" on="0"/>
        <pt x="366" y="418" on="1"/>
        <pt x="366" y="406" on="0"/>
        <pt x="363" y="392" on="1"/>
        <pt x="354" y="349" on="0"/>
        <pt x="294" y="286" on="0"/>
        <pt x="244" y="255" on="1"/>
        <pt x="249" y="250" on="0"/>
        <pt x="311" y="195" on="0"/>
        <pt x="336" y="165" on="1"/>
        <pt x="363" y="210" on="0"/>
        <pt x="378" y="264" on="1"/>
        <pt x="442" y="253" on="1"/>
        <pt x="417" y="163" on="0"/>
        <pt x="374" y="104" on="1"/>
        <pt x="399" y="57" on="0"/>
        <pt x="405" y="-3" on="1"/>
      </contour>
      <contour>
        <pt x="159" y="380" on="0"/>
        <pt x="159" y="371" on="1"/>
        <pt x="159" y="336" on="0"/>
        <pt x="199" y="296" on="1"/>
        <pt x="241" y="322" on="0"/>
        <pt x="289" y="369" on="0"/>
        <pt x="295" y="401" on="1"/>
        <pt x="297" y="411" on="0"/>
        <pt x="297" y="416" on="1"/>
        <pt x="297" y="452" on="0"/>
        <pt x="243" y="452" on="1"/>
        <pt x="207" y="452" on="0"/>
        <pt x="166" y="413" on="0"/>
        <pt x="160" y="384" on="1"/>
      </contour>
      <contour>
        <pt x="240" y="57" on="0"/>
        <pt x="295" y="107" on="1"/>
        <pt x="275" y="136" on="0"/>
        <pt x="229" y="180" on="0"/>
        <pt x="184" y="219" on="1"/>
        <pt x="143" y="193" on="0"/>
        <pt x="97" y="148" on="0"/>
        <pt x="91" y="119" on="1"/>
        <pt x="89" y="109" on="0"/>
        <pt x="89" y="105" on="1"/>
        <pt x="89" y="57" on="0"/>
        <pt x="166" y="57" on="1"/>
      </contour>
    </TTGlyph>
    <TTGlyph name="ampersand.alt002" xMin="47" yMin="-8" xMax="454" yMax="458">
      <contour>
        <pt x="454" y="256" on="1"/>
        <pt x="442" y="192" on="1"/>
        <pt x="382" y="192" on="1"/>
        <pt x="351" y="29" on="1"/>
        <pt x="311" y="11" on="0"/>
        <pt x="221" y="-8" on="0"/>
        <pt x="183" y="-8" on="1"/>
        <pt x="118" y="-8" on="0"/>
        <pt x="47" y="67" on="0"/>
        <pt x="47" y="147" on="1"/>
        <pt x="47" y="190" on="0"/>
        <pt x="57" y="240" on="1"/>
        <pt x="79" y="348" on="0"/>
        <pt x="178" y="458" on="0"/>
        <pt x="241" y="458" on="1"/>
        <pt x="289" y="458" on="0"/>
        <pt x="345" y="406" on="0"/>
        <pt x="345" y="365" on="1"/>
        <pt x="345" y="334" on="0"/>
        <pt x="315" y="276" on="0"/>
        <pt x="284" y="254" on="1"/>
      </contour>
      <contour>
        <pt x="168" y="394" on="0"/>
        <pt x="132" y="256" on="1"/>
        <pt x="255" y="284" on="0"/>
        <pt x="270" y="353" on="1"/>
        <pt x="271" y="357" on="0"/>
        <pt x="271" y="364" on="1"/>
        <pt x="271" y="394" on="0"/>
        <pt x="237" y="394" on="1"/>
      </contour>
      <contour>
        <pt x="310" y="192" on="1"/>
        <pt x="249" y="192" on="1"/>
        <pt x="261" y="238" on="1"/>
        <pt x="210" y="209" on="0"/>
        <pt x="125" y="192" on="1"/>
        <pt x="119" y="156" on="0"/>
        <pt x="119" y="131" on="1"/>
        <pt x="119" y="90" on="0"/>
        <pt x="151" y="56" on="0"/>
        <pt x="185" y="56" on="1"/>
        <pt x="212" y="56" on="0"/>
        <pt x="257" y="65" on="0"/>
        <pt x="284" y="75" on="1"/>
      </contour>
    </TTGlyph>
    <TTGlyph name="ampersand.alt003" xMin="25" yMin="-8" xMax="454" yMax="512">
      <contour>
        <pt x="443" y="201" on="1"/>
        <pt x="383" y="197" on="1"/>
        <pt x="351" y="29" on="1"/>
        <pt x="311" y="11" on="0"/>
        <pt x="221" y="-8" on="0"/>
        <pt x="183" y="-8" on="1"/>
        <pt x="111" y="-8" on="0"/>
        <pt x="25" y="56" on="0"/>
        <pt x="25" y="115" on="1"/>
        <pt x="25" y="131" on="0"/>
        <pt x="28" y="149" on="1"/>
        <pt x="36" y="187" on="0"/>
        <pt x="83" y="242" on="0"/>
        <pt x="122" y="266" on="1"/>
        <pt x="91" y="302" on="0"/>
        <pt x="91" y="352" on="1"/>
        <pt x="91" y="367" on="0"/>
        <pt x="94" y="385" on="1"/>
        <pt x="105" y="441" on="0"/>
        <pt x="198" y="512" on="0"/>
        <pt x="257" y="512" on="1"/>
        <pt x="312" y="512" on="0"/>
        <pt x="379" y="456" on="0"/>
        <pt x="379" y="410" on="1"/>
        <pt x="379" y="395" on="0"/>
        <pt x="377" y="387" on="1"/>
        <pt x="368" y="342" on="0"/>
        <pt x="304" y="290" on="0"/>
        <pt x="244" y="263" on="1"/>
        <pt x="272" y="256" on="0"/>
        <pt x="329" y="256" on="1"/>
        <pt x="454" y="256" on="1"/>
      </contour>
      <contour>
        <pt x="164" y="313" on="0"/>
        <pt x="181" y="293" on="1"/>
        <pt x="228" y="317" on="0"/>
        <pt x="271" y="342" on="0"/>
        <pt x="303" y="381" on="0"/>
        <pt x="303" y="407" on="1"/>
        <pt x="303" y="427" on="0"/>
        <pt x="276" y="448" on="0"/>
        <pt x="254" y="448" on="1"/>
        <pt x="218" y="448" on="0"/>
        <pt x="164" y="390" on="0"/>
        <pt x="164" y="341" on="1"/>
      </contour>
      <contour>
        <pt x="212" y="56" on="0"/>
        <pt x="257" y="65" on="0"/>
        <pt x="284" y="75" on="1"/>
        <pt x="313" y="196" on="1"/>
        <pt x="234" y="199" on="0"/>
        <pt x="174" y="226" on="1"/>
        <pt x="144" y="208" on="0"/>
        <pt x="107" y="164" on="0"/>
        <pt x="101" y="133" on="1"/>
        <pt x="99" y="119" on="0"/>
        <pt x="99" y="113" on="1"/>
        <pt x="99" y="56" on="0"/>
        <pt x="185" y="56" on="1"/>
      </contour>
    </TTGlyph>
    <TTGlyph name="angle" xMin="32" yMin="64" xMax="370" yMax="522">
      <contour>
        <pt x="32" y="64" on="1"/>
        <pt x="44" y="128" on="1"/>
        <pt x="316" y="522" on="1"/>
        <pt x="370" y="494" on="1"/>
        <pt x="118" y="128" on="1"/>
        <pt x="365" y="128" on="1"/>
        <pt x="352" y="64" on="1"/>
      </contour>
    </TTGlyph>
    <TTGlyph name="anoteleia" xMin="165" yMin="192" xMax="295" yMax="320">
      <component glyphName="period" x="72" y="202" flags="0x4"/>
    </TTGlyph>
    <TTGlyph name="aogonek" xMin="27" yMin="-197" xMax="399" yMax="453">
      <contour>
        <pt x="322" y="-182" on="1"/>
        <pt x="293" y="-197" on="0"/>
        <pt x="258" y="-197" on="1"/>
        <pt x="222" y="-197" on="0"/>
        <pt x="183" y="-164" on="0"/>
        <pt x="183" y="-135" on="1"/>
        <pt x="183" y="-125" on="0"/>
        <pt x="186" y="-113" on="1"/>
        <pt x="192" y="-82" on="0"/>
        <pt x="240" y="-23" on="0"/>
        <pt x="274" y="2" on="1"/>
        <pt x="271" y="0" on="1"/>
        <pt x="276" y="38" on="1"/>
        <pt x="196" y="-4" on="0"/>
        <pt x="135" y="-4" on="1"/>
        <pt x="88" y="-4" on="0"/>
        <pt x="27" y="47" on="0"/>
        <pt x="27" y="94" on="1"/>
        <pt x="27" y="109" on="0"/>
        <pt x="30" y="125" on="1"/>
        <pt x="44" y="194" on="0"/>
        <pt x="176" y="264" on="0"/>
        <pt x="314" y="268" on="1"/>
        <pt x="321" y="288" on="1"/>
        <pt x="326" y="316" on="0"/>
        <pt x="326" y="331" on="1"/>
        <pt x="326" y="363" on="0"/>
        <pt x="293" y="388" on="0"/>
        <pt x="254" y="388" on="1"/>
        <pt x="202" y="388" on="0"/>
        <pt x="124" y="360" on="1"/>
        <pt x="110" y="420" on="1"/>
        <pt x="191" y="453" on="0"/>
        <pt x="262" y="453" on="1"/>
        <pt x="399" y="453" on="0"/>
        <pt x="399" y="342" on="1"/>
        <pt x="399" y="324" on="0"/>
        <pt x="394" y="296" on="1"/>
        <pt x="348" y="64" on="1"/>
        <pt x="340" y="-2" on="1"/>
        <pt x="302" y="-37" on="0"/>
        <pt x="260" y="-89" on="0"/>
        <pt x="255" y="-114" on="1"/>
        <pt x="254" y="-118" on="0"/>
        <pt x="254" y="-123" on="1"/>
        <pt x="254" y="-131" on="0"/>
        <pt x="262" y="-136" on="0"/>
        <pt x="272" y="-136" on="1"/>
        <pt x="291" y="-136" on="0"/>
        <pt x="311" y="-127" on="1"/>
      </contour>
      <contour>
        <pt x="103" y="105" on="0"/>
        <pt x="103" y="100" on="1"/>
        <pt x="103" y="60" on="0"/>
        <pt x="153" y="60" on="1"/>
        <pt x="181" y="60" on="0"/>
        <pt x="241" y="81" on="0"/>
        <pt x="281" y="101" on="1"/>
        <pt x="307" y="206" on="1"/>
        <pt x="207" y="203" on="0"/>
        <pt x="113" y="159" on="0"/>
        <pt x="105" y="117" on="1"/>
      </contour>
    </TTGlyph>
    <TTGlyph name="approxequal" xMin="32" yMin="64" xMax="429" yMax="448">
      <contour>
        <pt x="224" y="384" on="1"/>
        <pt x="160" y="384" on="1"/>
        <pt x="173" y="448" on="1"/>
        <pt x="237" y="448" on="1"/>
      </contour>
      <contour>
        <pt x="429" y="448" on="1"/>
        <pt x="403" y="320" on="1"/>
        <pt x="339" y="320" on="1"/>
        <pt x="365" y="448" on="1"/>
      </contour>
      <contour>
        <pt x="134" y="256" on="1"/>
        <pt x="70" y="256" on="1"/>
        <pt x="96" y="384" on="1"/>
        <pt x="160" y="384" on="1"/>
      </contour>
      <contour>
        <pt x="211" y="320" on="1"/>
        <pt x="224" y="384" on="1"/>
        <pt x="288" y="384" on="1"/>
        <pt x="275" y="320" on="1"/>
      </contour>
      <contour>
        <pt x="275" y="320" on="1"/>
        <pt x="339" y="320" on="1"/>
        <pt x="326" y="256" on="1"/>
        <pt x="262" y="256" on="1"/>
      </contour>
      <contour>
        <pt x="198" y="256" on="1"/>
        <pt x="186" y="192" on="1"/>
        <pt x="122" y="192" on="1"/>
        <pt x="134" y="256" on="1"/>
      </contour>
      <contour>
        <pt x="326" y="256" on="1"/>
        <pt x="390" y="256" on="1"/>
        <pt x="365" y="128" on="1"/>
        <pt x="301" y="128" on="1"/>
      </contour>
      <contour>
        <pt x="122" y="192" on="1"/>
        <pt x="96" y="64" on="1"/>
        <pt x="32" y="64" on="1"/>
        <pt x="58" y="192" on="1"/>
      </contour>
      <contour>
        <pt x="250" y="192" on="1"/>
        <pt x="237" y="128" on="1"/>
        <pt x="173" y="128" on="1"/>
        <pt x="186" y="192" on="1"/>
      </contour>
      <contour>
        <pt x="237" y="128" on="1"/>
        <pt x="301" y="128" on="1"/>
        <pt x="288" y="64" on="1"/>
        <pt x="224" y="64" on="1"/>
      </contour>
    </TTGlyph>
    <TTGlyph name="aring" xMin="27" yMin="-4" xMax="402" yMax="697">
      <component glyphName="a" x="0" y="0" flags="0x0"/>
      <component glyphName="uni030A" x="448" y="0" flags="0x0"/>
    </TTGlyph>
    <TTGlyph name="aringacute" xMin="27" yMin="-4" xMax="456" yMax="861">
      <contour>
        <pt x="243" y="493" on="0"/>
        <pt x="194" y="542" on="0"/>
        <pt x="194" y="580" on="1"/>
        <pt x="194" y="625" on="0"/>
        <pt x="263" y="695" on="0"/>
        <pt x="311" y="697" on="1"/>
        <pt x="274" y="738" on="1"/>
        <pt x="394" y="861" on="1"/>
        <pt x="456" y="808" on="1"/>
        <pt x="315" y="697" on="1"/>
        <pt x="316" y="697" on="1"/>
        <pt x="354" y="697" on="0"/>
        <pt x="402" y="648" on="0"/>
        <pt x="402" y="611" on="1"/>
        <pt x="402" y="580" on="0"/>
        <pt x="369" y="526" on="0"/>
        <pt x="314" y="493" on="0"/>
        <pt x="283" y="493" on="1"/>
      </contour>
      <contour>
        <pt x="291" y="641" on="0"/>
        <pt x="258" y="610" on="0"/>
        <pt x="253" y="589" on="1"/>
        <pt x="252" y="586" on="0"/>
        <pt x="252" y="580" on="1"/>
        <pt x="252" y="566" on="0"/>
        <pt x="269" y="549" on="0"/>
        <pt x="284" y="549" on="1"/>
        <pt x="307" y="549" on="0"/>
        <pt x="344" y="587" on="0"/>
        <pt x="344" y="611" on="1"/>
        <pt x="344" y="624" on="0"/>
        <pt x="327" y="641" on="0"/>
        <pt x="312" y="641" on="1"/>
      </contour>
      <contour>
        <pt x="271" y="0" on="1"/>
        <pt x="276" y="38" on="1"/>
        <pt x="196" y="-4" on="0"/>
        <pt x="135" y="-4" on="1"/>
        <pt x="88" y="-4" on="0"/>
        <pt x="27" y="47" on="0"/>
        <pt x="27" y="94" on="1"/>
        <pt x="27" y="109" on="0"/>
        <pt x="30" y="125" on="1"/>
        <pt x="44" y="194" on="0"/>
        <pt x="176" y="264" on="0"/>
        <pt x="314" y="268" on="1"/>
        <pt x="321" y="288" on="1"/>
        <pt x="326" y="316" on="0"/>
        <pt x="326" y="331" on="1"/>
        <pt x="326" y="363" on="0"/>
        <pt x="293" y="388" on="0"/>
        <pt x="254" y="388" on="1"/>
        <pt x="202" y="388" on="0"/>
        <pt x="124" y="360" on="1"/>
        <pt x="110" y="420" on="1"/>
        <pt x="191" y="453" on="0"/>
        <pt x="262" y="453" on="1"/>
        <pt x="399" y="453" on="0"/>
        <pt x="399" y="342" on="1"/>
        <pt x="399" y="324" on="0"/>
        <pt x="394" y="296" on="1"/>
        <pt x="348" y="64" on="1"/>
        <pt x="339" y="0" on="1"/>
      </contour>
      <contour>
        <pt x="103" y="105" on="0"/>
        <pt x="103" y="100" on="1"/>
        <pt x="103" y="60" on="0"/>
        <pt x="153" y="60" on="1"/>
        <pt x="181" y="60" on="0"/>
        <pt x="241" y="81" on="0"/>
        <pt x="281" y="101" on="1"/>
        <pt x="307" y="206" on="1"/>
        <pt x="207" y="203" on="0"/>
        <pt x="113" y="159" on="0"/>
        <pt x="105" y="117" on="1"/>
      </contour>
    </TTGlyph>
    <TTGlyph name="arrowboth" xMin="-14" yMin="54" xMax="462" yMax="394">
      <contour>
        <pt x="182" y="98" on="1"/>
        <pt x="137" y="54" on="1"/>
        <pt x="-14" y="202" on="1"/>
        <pt x="-6" y="246" on="1"/>
        <pt x="201" y="394" on="1"/>
        <pt x="232" y="350" on="1"/>
        <pt x="105" y="256" on="1"/>
        <pt x="357" y="256" on="1"/>
        <pt x="266" y="350" on="1"/>
        <pt x="311" y="394" on="1"/>
        <pt x="462" y="246" on="1"/>
        <pt x="454" y="202" on="1"/>
        <pt x="247" y="54" on="1"/>
        <pt x="216" y="98" on="1"/>
        <pt x="343" y="192" on="1"/>
        <pt x="91" y="192" on="1"/>
      </contour>
    </TTGlyph>
    <TTGlyph name="arrowdown" xMin="56" yMin="54" xMax="396" yMax="512">
      <contour>
        <pt x="314" y="512" on="1"/>
        <pt x="243" y="162" on="1"/>
        <pt x="358" y="271" on="1"/>
        <pt x="396" y="233" on="1"/>
        <pt x="213" y="54" on="1"/>
        <pt x="169" y="54" on="1"/>
        <pt x="56" y="233" on="1"/>
        <pt x="106" y="271" on="1"/>
        <pt x="179" y="162" on="1"/>
        <pt x="250" y="512" on="1"/>
      </contour>
    </TTGlyph>
    <TTGlyph name="arrowleft" xMin="-14" yMin="54" xMax="454" yMax="394">
      <contour>
        <pt x="182" y="98" on="1"/>
        <pt x="137" y="54" on="1"/>
        <pt x="-14" y="202" on="1"/>
        <pt x="-6" y="246" on="1"/>
        <pt x="201" y="394" on="1"/>
        <pt x="232" y="350" on="1"/>
        <pt x="105" y="256" on="1"/>
        <pt x="454" y="256" on="1"/>
        <pt x="442" y="192" on="1"/>
        <pt x="91" y="192" on="1"/>
      </contour>
    </TTGlyph>
    <TTGlyph name="arrowright" xMin="-6" yMin="54" xMax="462" yMax="394">
      <contour>
        <pt x="6" y="256" on="1"/>
        <pt x="357" y="256" on="1"/>
        <pt x="266" y="350" on="1"/>
        <pt x="311" y="394" on="1"/>
        <pt x="462" y="246" on="1"/>
        <pt x="454" y="202" on="1"/>
        <pt x="247" y="54" on="1"/>
        <pt x="216" y="98" on="1"/>
        <pt x="343" y="192" on="1"/>
        <pt x="-6" y="192" on="1"/>
      </contour>
    </TTGlyph>
    <TTGlyph name="arrowup" xMin="78" yMin="64" xMax="418" yMax="522">
      <contour>
        <pt x="116" y="305" on="1"/>
        <pt x="78" y="343" on="1"/>
        <pt x="261" y="522" on="1"/>
        <pt x="305" y="522" on="1"/>
        <pt x="418" y="343" on="1"/>
        <pt x="368" y="305" on="1"/>
        <pt x="295" y="414" on="1"/>
        <pt x="224" y="64" on="1"/>
        <pt x="160" y="64" on="1"/>
        <pt x="231" y="414" on="1"/>
      </contour>
    </TTGlyph>
    <TTGlyph name="arrowupdn" xMin="56" yMin="54" xMax="418" yMax="522">
      <contour>
        <pt x="116" y="305" on="1"/>
        <pt x="78" y="343" on="1"/>
        <pt x="261" y="522" on="1"/>
        <pt x="305" y="522" on="1"/>
        <pt x="418" y="343" on="1"/>
        <pt x="368" y="305" on="1"/>
        <pt x="295" y="414" on="1"/>
        <pt x="243" y="162" on="1"/>
        <pt x="358" y="271" on="1"/>
        <pt x="396" y="233" on="1"/>
        <pt x="213" y="54" on="1"/>
        <pt x="169" y="54" on="1"/>
        <pt x="56" y="233" on="1"/>
        <pt x="106" y="271" on="1"/>
        <pt x="179" y="162" on="1"/>
        <pt x="231" y="414" on="1"/>
      </contour>
    </TTGlyph>
    <TTGlyph name="arrowupdnbse" xMin="19" yMin="0" xMax="418" yMax="522">
      <contour>
        <pt x="396" y="233" on="1"/>
        <pt x="223" y="64" on="1"/>
        <pt x="352" y="64" on="1"/>
        <pt x="339" y="0" on="1"/>
        <pt x="19" y="0" on="1"/>
        <pt x="32" y="64" on="1"/>
        <pt x="163" y="64" on="1"/>
        <pt x="56" y="233" on="1"/>
        <pt x="106" y="271" on="1"/>
        <pt x="179" y="162" on="1"/>
        <pt x="231" y="414" on="1"/>
        <pt x="116" y="305" on="1"/>
        <pt x="78" y="343" on="1"/>
        <pt x="261" y="522" on="1"/>
        <pt x="305" y="522" on="1"/>
        <pt x="418" y="343" on="1"/>
        <pt x="368" y="305" on="1"/>
        <pt x="295" y="414" on="1"/>
        <pt x="243" y="162" on="1"/>
        <pt x="358" y="271" on="1"/>
      </contour>
    </TTGlyph>
    <TTGlyph name="asciicircum" xMin="49" yMin="182" xMax="391" yMax="566">
      <contour>
        <pt x="320" y="182" on="1"/>
        <pt x="278" y="489" on="1"/>
        <pt x="114" y="182" on="1"/>
        <pt x="49" y="206" on="1"/>
        <pt x="249" y="566" on="1"/>
        <pt x="335" y="566" on="1"/>
        <pt x="391" y="206" on="1"/>
      </contour>
    </TTGlyph>
    <TTGlyph name="asciitilde" xMin="55" yMin="192" xMax="418" yMax="384">
      <contour>
        <pt x="311" y="252" on="0"/>
        <pt x="337" y="306" on="0"/>
        <pt x="354" y="372" on="1"/>
        <pt x="418" y="364" on="1"/>
        <pt x="401" y="298" on="0"/>
        <pt x="375" y="230" on="0"/>
        <pt x="330" y="192" on="0"/>
        <pt x="291" y="192" on="1"/>
        <pt x="259" y="192" on="0"/>
        <pt x="222" y="220" on="0"/>
        <pt x="208" y="256" on="0"/>
        <pt x="201" y="285" on="1"/>
        <pt x="197" y="305" on="0"/>
        <pt x="189" y="324" on="0"/>
        <pt x="181" y="324" on="1"/>
        <pt x="163" y="324" on="0"/>
        <pt x="136" y="269" on="0"/>
        <pt x="119" y="204" on="1"/>
        <pt x="55" y="212" on="1"/>
        <pt x="73" y="280" on="0"/>
        <pt x="98" y="346" on="0"/>
        <pt x="144" y="384" on="0"/>
        <pt x="183" y="384" on="1"/>
        <pt x="228" y="384" on="0"/>
        <pt x="263" y="333" on="0"/>
        <pt x="272" y="291" on="1"/>
        <pt x="277" y="270" on="0"/>
        <pt x="285" y="252" on="0"/>
        <pt x="293" y="252" on="1"/>
      </contour>
    </TTGlyph>
    <TTGlyph name="asterisk" xMin="28" yMin="74" xMax="446" yMax="502">
      <contour>
        <pt x="283" y="288" on="1"/>
        <pt x="402" y="178" on="1"/>
        <pt x="346" y="123" on="1"/>
        <pt x="255" y="223" on="1"/>
        <pt x="230" y="74" on="1"/>
        <pt x="158" y="74" on="1"/>
        <pt x="195" y="223" on="1"/>
        <pt x="66" y="123" on="1"/>
        <pt x="28" y="178" on="1"/>
        <pt x="191" y="288" on="1"/>
        <pt x="72" y="398" on="1"/>
        <pt x="128" y="453" on="1"/>
        <pt x="219" y="353" on="1"/>
        <pt x="244" y="502" on="1"/>
        <pt x="316" y="502" on="1"/>
        <pt x="279" y="353" on="1"/>
        <pt x="408" y="453" on="1"/>
        <pt x="446" y="398" on="1"/>
      </contour>
    </TTGlyph>
    <TTGlyph name="at" xMin="28" yMin="-128" xMax="426" yMax="586">
      <contour>
        <pt x="183" y="293" on="0"/>
        <pt x="268" y="377" on="0"/>
        <pt x="347" y="392" on="1"/>
        <pt x="356" y="431" on="0"/>
        <pt x="356" y="459" on="1"/>
        <pt x="356" y="491" on="0"/>
        <pt x="327" y="522" on="0"/>
        <pt x="296" y="522" on="1"/>
        <pt x="253" y="522" on="0"/>
        <pt x="190" y="461" on="0"/>
        <pt x="141" y="328" on="0"/>
        <pt x="119" y="217" on="1"/>
        <pt x="99" y="118" on="0"/>
        <pt x="99" y="53" on="1"/>
        <pt x="99" y="-10" on="0"/>
        <pt x="140" y="-64" on="0"/>
        <pt x="181" y="-64" on="1"/>
        <pt x="222" y="-64" on="0"/>
        <pt x="272" y="-48" on="1"/>
        <pt x="281" y="-109" on="1"/>
        <pt x="256" y="-118" on="0"/>
        <pt x="201" y="-128" on="0"/>
        <pt x="179" y="-128" on="1"/>
        <pt x="102" y="-128" on="0"/>
        <pt x="28" y="-39" on="0"/>
        <pt x="28" y="55" on="1"/>
        <pt x="28" y="127" on="0"/>
        <pt x="49" y="229" on="1"/>
        <pt x="86" y="413" on="0"/>
        <pt x="203" y="586" on="0"/>
        <pt x="300" y="586" on="1"/>
        <pt x="364" y="586" on="0"/>
        <pt x="426" y="513" on="0"/>
        <pt x="426" y="448" on="1"/>
        <pt x="426" y="414" on="0"/>
        <pt x="419" y="379" on="1"/>
        <pt x="360" y="73" on="1"/>
        <pt x="329" y="64" on="0"/>
        <pt x="279" y="64" on="1"/>
        <pt x="224" y="64" on="0"/>
        <pt x="164" y="123" on="0"/>
        <pt x="164" y="178" on="1"/>
        <pt x="164" y="197" on="0"/>
        <pt x="169" y="225" on="1"/>
      </contour>
      <contour>
        <pt x="294" y="314" on="0"/>
        <pt x="250" y="263" on="0"/>
        <pt x="241" y="214" on="1"/>
        <pt x="237" y="195" on="0"/>
        <pt x="237" y="176" on="1"/>
        <pt x="237" y="153" on="0"/>
        <pt x="257" y="129" on="0"/>
        <pt x="281" y="129" on="1"/>
        <pt x="290" y="129" on="0"/>
        <pt x="295" y="130" on="1"/>
        <pt x="338" y="323" on="1"/>
      </contour>
    </TTGlyph>
    <TTGlyph name="atilde" xMin="27" yMin="-4" xMax="467" yMax="640">
      <component glyphName="a" x="0" y="0" flags="0x0"/>
      <component glyphName="tildecomb" x="448" y="0" flags="0x0"/>
    </TTGlyph>
    <TTGlyph name="b" xMin="13" yMin="-8" xMax="405" yMax="640">
      <contour>
        <pt x="339" y="456" on="0"/>
        <pt x="405" y="373" on="0"/>
        <pt x="405" y="301" on="1"/>
        <pt x="405" y="262" on="0"/>
        <pt x="396" y="218" on="1"/>
        <pt x="375" y="116" on="0"/>
        <pt x="272" y="-8" on="0"/>
        <pt x="192" y="-8" on="1"/>
        <pt x="120" y="-8" on="0"/>
        <pt x="89" y="38" on="1"/>
        <pt x="75" y="0" on="1"/>
        <pt x="13" y="0" on="1"/>
        <pt x="28" y="64" on="1"/>
        <pt x="143" y="640" on="1"/>
        <pt x="215" y="640" on="1"/>
        <pt x="170" y="423" on="1"/>
        <pt x="212" y="456" on="0"/>
        <pt x="273" y="456" on="1"/>
      </contour>
      <contour>
        <pt x="240" y="56" on="0"/>
        <pt x="301" y="133" on="0"/>
        <pt x="320" y="230" on="1"/>
        <pt x="331" y="288" on="0"/>
        <pt x="331" y="319" on="1"/>
        <pt x="331" y="359" on="0"/>
        <pt x="299" y="392" on="0"/>
        <pt x="263" y="392" on="1"/>
        <pt x="196" y="392" on="0"/>
        <pt x="158" y="348" on="1"/>
        <pt x="105" y="97" on="1"/>
        <pt x="125" y="56" on="0"/>
        <pt x="185" y="56" on="1"/>
      </contour>
    </TTGlyph>
    <TTGlyph name="backslash" xMin="200" yMin="-69" xMax="287" yMax="710">
      <contour>
        <pt x="200" y="-69" on="1"/>
        <pt x="214" y="698" on="1"/>
        <pt x="287" y="710" on="1"/>
        <pt x="272" y="-57" on="1"/>
      </contour>
    </TTGlyph>
    <TTGlyph name="bar" xMin="107" yMin="-192" xMax="354" yMax="704">
      <contour>
        <pt x="107" y="-192" on="1"/>
        <pt x="286" y="704" on="1"/>
        <pt x="354" y="704" on="1"/>
        <pt x="175" y="-192" on="1"/>
      </contour>
    </TTGlyph>
    <TTGlyph name="beta" xMin="-19" yMin="-192" xMax="454" yMax="640">
      <contour>
        <pt x="211" y="640" on="1"/>
        <pt x="403" y="640" on="1"/>
        <pt x="390" y="576" on="1"/>
        <pt x="198" y="576" on="1"/>
      </contour>
      <contour>
        <pt x="173" y="128" on="1"/>
        <pt x="160" y="64" on="1"/>
        <pt x="96" y="64" on="1"/>
        <pt x="45" y="-192" on="1"/>
        <pt x="-19" y="-192" on="1"/>
        <pt x="134" y="576" on="1"/>
        <pt x="198" y="576" on="1"/>
        <pt x="109" y="128" on="1"/>
      </contour>
      <contour>
        <pt x="454" y="576" on="1"/>
        <pt x="416" y="384" on="1"/>
        <pt x="352" y="384" on="1"/>
        <pt x="390" y="576" on="1"/>
      </contour>
      <contour>
        <pt x="352" y="384" on="1"/>
        <pt x="339" y="320" on="1"/>
        <pt x="211" y="320" on="1"/>
        <pt x="224" y="384" on="1"/>
      </contour>
      <contour>
        <pt x="403" y="320" on="1"/>
        <pt x="352" y="64" on="1"/>
        <pt x="288" y="64" on="1"/>
        <pt x="339" y="320" on="1"/>
      </contour>
      <contour>
        <pt x="288" y="64" on="1"/>
        <pt x="275" y="0" on="1"/>
        <pt x="147" y="0" on="1"/>
        <pt x="160" y="64" on="1"/>
      </contour>
    </TTGlyph>
    <TTGlyph name="block" xMin="-83" yMin="-192" xMax="570" yMax="832">
      <contour>
        <pt x="-83" y="-192" on="1"/>
        <pt x="122" y="832" on="1"/>
        <pt x="570" y="832" on="1"/>
        <pt x="365" y="-192" on="1"/>
      </contour>
    </TTGlyph>
    <TTGlyph name="braceleft" xMin="97" yMin="-64" xMax="428" yMax="704">
      <contour>
        <pt x="187" y="56" on="0"/>
        <pt x="187" y="52" on="1"/>
        <pt x="187" y="28" on="0"/>
        <pt x="234" y="3" on="0"/>
        <pt x="293" y="-8" on="1"/>
        <pt x="276" y="-64" on="1"/>
        <pt x="200" y="-54" on="0"/>
        <pt x="120" y="-5" on="0"/>
        <pt x="120" y="48" on="1"/>
        <pt x="120" y="64" on="0"/>
        <pt x="123" y="80" on="1"/>
        <pt x="126" y="94" on="0"/>
        <pt x="138" y="129" on="1"/>
        <pt x="154" y="170" on="0"/>
        <pt x="159" y="198" on="1"/>
        <pt x="161" y="212" on="0"/>
        <pt x="161" y="218" on="1"/>
        <pt x="161" y="242" on="0"/>
        <pt x="130" y="270" on="0"/>
        <pt x="97" y="276" on="1"/>
        <pt x="110" y="364" on="1"/>
        <pt x="195" y="378" on="0"/>
        <pt x="210" y="454" on="1"/>
        <pt x="214" y="475" on="0"/>
        <pt x="216" y="514" on="1"/>
        <pt x="216" y="519" on="0"/>
        <pt x="218" y="554" on="0"/>
        <pt x="222" y="572" on="1"/>
        <pt x="235" y="638" on="0"/>
        <pt x="334" y="693" on="0"/>
        <pt x="424" y="704" on="1"/>
        <pt x="428" y="646" on="1"/>
        <pt x="356" y="633" on="0"/>
        <pt x="295" y="598" on="0"/>
        <pt x="287" y="560" on="1"/>
        <pt x="285" y="549" on="0"/>
        <pt x="283" y="521" on="0"/>
        <pt x="283" y="515" on="1"/>
        <pt x="283" y="476" on="0"/>
        <pt x="276" y="442" on="1"/>
        <pt x="265" y="387" on="0"/>
        <pt x="208" y="334" on="0"/>
        <pt x="153" y="318" on="1"/>
        <pt x="191" y="306" on="0"/>
        <pt x="229" y="264" on="0"/>
        <pt x="229" y="226" on="1"/>
        <pt x="229" y="211" on="0"/>
        <pt x="224" y="186" on="1"/>
        <pt x="219" y="162" on="0"/>
        <pt x="205" y="122" on="1"/>
        <pt x="192" y="84" on="0"/>
        <pt x="189" y="68" on="1"/>
      </contour>
    </TTGlyph>
    <TTGlyph name="braceright" xMin="58" yMin="-64" xMax="389" yMax="704">
      <contour>
        <pt x="326" y="434" on="0"/>
        <pt x="326" y="421" on="1"/>
        <pt x="326" y="397" on="0"/>
        <pt x="356" y="369" on="0"/>
        <pt x="389" y="364" on="1"/>
        <pt x="377" y="276" on="1"/>
        <pt x="293" y="263" on="0"/>
        <pt x="276" y="186" on="1"/>
        <pt x="271" y="160" on="0"/>
        <pt x="271" y="126" on="1"/>
        <pt x="269" y="89" on="0"/>
        <pt x="265" y="68" on="1"/>
        <pt x="252" y="2" on="0"/>
        <pt x="153" y="-53" on="0"/>
        <pt x="62" y="-64" on="1"/>
        <pt x="58" y="-6" on="1"/>
        <pt x="130" y="7" on="0"/>
        <pt x="192" y="42" on="0"/>
        <pt x="199" y="80" on="1"/>
        <pt x="202" y="96" on="0"/>
        <pt x="204" y="128" on="1"/>
        <pt x="206" y="171" on="0"/>
        <pt x="211" y="198" on="1"/>
        <pt x="222" y="253" on="0"/>
        <pt x="279" y="306" on="0"/>
        <pt x="334" y="322" on="1"/>
        <pt x="296" y="334" on="0"/>
        <pt x="258" y="376" on="0"/>
        <pt x="258" y="414" on="1"/>
        <pt x="258" y="434" on="0"/>
        <pt x="262" y="454" on="1"/>
        <pt x="268" y="480" on="0"/>
        <pt x="281" y="518" on="1"/>
        <pt x="293" y="550" on="0"/>
        <pt x="298" y="572" on="1"/>
        <pt x="300" y="584" on="0"/>
        <pt x="300" y="587" on="1"/>
        <pt x="300" y="612" on="0"/>
        <pt x="254" y="637" on="0"/>
        <pt x="194" y="648" on="1"/>
        <pt x="210" y="704" on="1"/>
        <pt x="286" y="695" on="0"/>
        <pt x="367" y="646" on="0"/>
        <pt x="367" y="593" on="1"/>
        <pt x="367" y="584" on="0"/>
        <pt x="363" y="560" on="1"/>
        <pt x="361" y="548" on="0"/>
        <pt x="348" y="512" on="1"/>
        <pt x="333" y="469" on="0"/>
        <pt x="328" y="442" on="1"/>
      </contour>
    </TTGlyph>
    <TTGlyph name="bracketleft" xMin="86" yMin="-64" xMax="436" yMax="704">
      <contour>
        <pt x="299" y="640" on="1"/>
        <pt x="171" y="0" on="1"/>
        <pt x="295" y="0" on="1"/>
        <pt x="282" y="-64" on="1"/>
        <pt x="86" y="-64" on="1"/>
        <pt x="240" y="704" on="1"/>
        <pt x="436" y="704" on="1"/>
        <pt x="423" y="640" on="1"/>
      </contour>
    </TTGlyph>
    <TTGlyph name="bracketright" xMin="50" yMin="-64" xMax="400" yMax="704">
      <contour>
        <pt x="50" y="-64" on="1"/>
        <pt x="63" y="0" on="1"/>
        <pt x="187" y="0" on="1"/>
        <pt x="315" y="640" on="1"/>
        <pt x="191" y="640" on="1"/>
        <pt x="204" y="704" on="1"/>
        <pt x="400" y="704" on="1"/>
        <pt x="246" y="-64" on="1"/>
      </contour>
    </TTGlyph>
    <TTGlyph name="breve" xMin="134" yMin="512" xMax="467" yMax="640">
      <component glyphName="uni0306" x="448" y="0" flags="0x0"/>
    </TTGlyph>
    <TTGlyph name="brokenbar" xMin="107" yMin="-192" xMax="354" yMax="704">
      <contour>
        <pt x="209" y="320" on="1"/>
        <pt x="286" y="704" on="1"/>
        <pt x="354" y="704" on="1"/>
        <pt x="277" y="320" on="1"/>
      </contour>
      <contour>
        <pt x="107" y="-192" on="1"/>
        <pt x="184" y="192" on="1"/>
        <pt x="252" y="192" on="1"/>
        <pt x="175" y="-192" on="1"/>
      </contour>
    </TTGlyph>
    <TTGlyph name="bullet" xMin="121" yMin="120" xMax="327" yMax="328">
      <contour>
        <pt x="279" y="328" on="0"/>
        <pt x="327" y="279" on="0"/>
        <pt x="327" y="241" on="1"/>
        <pt x="327" y="208" on="0"/>
        <pt x="294" y="153" on="0"/>
        <pt x="239" y="120" on="0"/>
        <pt x="208" y="120" on="1"/>
        <pt x="169" y="120" on="0"/>
        <pt x="121" y="169" on="0"/>
        <pt x="121" y="207" on="1"/>
        <pt x="121" y="240" on="0"/>
        <pt x="154" y="295" on="0"/>
        <pt x="209" y="328" on="0"/>
        <pt x="240" y="328" on="1"/>
      </contour>
    </TTGlyph>
    <TTGlyph name="c" xMin="42" yMin="-7" xMax="398" yMax="455">
      <contour>
        <pt x="330" y="391" on="0"/>
        <pt x="280" y="391" on="1"/>
        <pt x="213" y="391" on="0"/>
        <pt x="144" y="314" on="0"/>
        <pt x="125" y="218" on="1"/>
        <pt x="115" y="172" on="0"/>
        <pt x="115" y="137" on="1"/>
        <pt x="115" y="93" on="0"/>
        <pt x="157" y="57" on="0"/>
        <pt x="204" y="57" on="1"/>
        <pt x="251" y="57" on="0"/>
        <pt x="312" y="73" on="1"/>
        <pt x="318" y="11" on="1"/>
        <pt x="261" y="-7" on="0"/>
        <pt x="197" y="-7" on="1"/>
        <pt x="42" y="-7" on="0"/>
        <pt x="42" y="148" on="1"/>
        <pt x="42" y="187" on="0"/>
        <pt x="51" y="230" on="1"/>
        <pt x="96" y="455" on="0"/>
        <pt x="279" y="455" on="1"/>
        <pt x="344" y="455" on="0"/>
        <pt x="398" y="435" on="1"/>
        <pt x="378" y="377" on="1"/>
      </contour>
    </TTGlyph>
    <TTGlyph name="cacute" xMin="42" yMin="-7" xMax="434" yMax="669">
      <component glyphName="c" x="0" y="0" flags="0x0"/>
      <component glyphName="acutecomb" x="464" y="0" flags="0x0"/>
    </TTGlyph>
    <TTGlyph name="caron" xMin="199" yMin="504" xMax="419" yMax="643">
      <component glyphName="uni030C" x="448" y="0" flags="0x0"/>
    </TTGlyph>
    <TTGlyph name="ccaron" xMin="42" yMin="-7" xMax="435" yMax="643">
      <component glyphName="c" x="0" y="0" flags="0x0"/>
      <component glyphName="uni030C" x="464" y="0" flags="0x0"/>
    </TTGlyph>
    <TTGlyph name="ccedilla" xMin="26" yMin="-192" xMax="398" yMax="455">
      <contour>
        <pt x="318" y="11" on="1"/>
        <pt x="306" y="7" on="0"/>
        <pt x="282" y="1" on="1"/>
        <pt x="263" y="-4" on="0"/>
        <pt x="257" y="-6" on="1"/>
        <pt x="235" y="-95" on="0"/>
        <pt x="135" y="-192" on="0"/>
        <pt x="26" y="-192" on="1"/>
        <pt x="31" y="-128" on="1"/>
        <pt x="103" y="-126" on="0"/>
        <pt x="171" y="-73" on="0"/>
        <pt x="189" y="-4" on="1"/>
        <pt x="42" y="-4" on="0"/>
        <pt x="42" y="148" on="1"/>
        <pt x="42" y="187" on="0"/>
        <pt x="51" y="230" on="1"/>
        <pt x="96" y="455" on="0"/>
        <pt x="279" y="455" on="1"/>
        <pt x="344" y="455" on="0"/>
        <pt x="398" y="435" on="1"/>
        <pt x="378" y="377" on="1"/>
        <pt x="330" y="391" on="0"/>
        <pt x="280" y="391" on="1"/>
        <pt x="213" y="391" on="0"/>
        <pt x="144" y="314" on="0"/>
        <pt x="125" y="218" on="1"/>
        <pt x="115" y="172" on="0"/>
        <pt x="115" y="137" on="1"/>
        <pt x="115" y="93" on="0"/>
        <pt x="157" y="57" on="0"/>
        <pt x="204" y="57" on="1"/>
        <pt x="251" y="57" on="0"/>
        <pt x="312" y="73" on="1"/>
      </contour>
    </TTGlyph>
    <TTGlyph name="ccircumflex" xMin="42" yMin="-7" xMax="406" yMax="650">
      <component glyphName="c" x="0" y="0" flags="0x0"/>
      <component glyphName="uni0302" x="464" y="0" flags="0x0"/>
    </TTGlyph>
    <TTGlyph name="cdotaccent" xMin="42" yMin="-7" xMax="398" yMax="650">
      <component glyphName="c" x="0" y="0" flags="0x0"/>
      <component glyphName="uni0307" x="464" y="0" flags="0x0"/>
    </TTGlyph>
    <TTGlyph name="cedilla" xMin="47" yMin="-192" xMax="279" yMax="13">
      <component glyphName="uni0327" x="448" y="0" flags="0x0"/>
    </TTGlyph>
    <TTGlyph name="cent" xMin="58" yMin="0" xMax="442" yMax="640">
      <contour>
        <pt x="378" y="192" on="1"/>
        <pt x="365" y="128" on="1"/>
        <pt x="237" y="128" on="1"/>
        <pt x="211" y="0" on="1"/>
        <pt x="147" y="0" on="1"/>
        <pt x="173" y="128" on="1"/>
        <pt x="109" y="128" on="1"/>
        <pt x="122" y="192" on="1"/>
        <pt x="186" y="192" on="1"/>
        <pt x="237" y="448" on="1"/>
        <pt x="173" y="448" on="1"/>
        <pt x="186" y="512" on="1"/>
        <pt x="250" y="512" on="1"/>
        <pt x="275" y="640" on="1"/>
        <pt x="339" y="640" on="1"/>
        <pt x="314" y="512" on="1"/>
        <pt x="442" y="512" on="1"/>
        <pt x="429" y="448" on="1"/>
        <pt x="301" y="448" on="1"/>
        <pt x="250" y="192" on="1"/>
      </contour>
      <contour>
        <pt x="58" y="192" on="1"/>
        <pt x="109" y="448" on="1"/>
        <pt x="173" y="448" on="1"/>
        <pt x="122" y="192" on="1"/>
      </contour>
    </TTGlyph>
    <TTGlyph name="chi" xMin="-51" yMin="-199" xMax="433" yMax="458">
      <contour>
        <pt x="237" y="-196" on="1"/>
        <pt x="246" y="-120" on="0"/>
        <pt x="246" y="-68" on="1"/>
        <pt x="246" y="-17" on="0"/>
        <pt x="228" y="58" on="0"/>
        <pt x="208" y="91" on="1"/>
        <pt x="14" y="-199" on="1"/>
        <pt x="-51" y="-177" on="1"/>
        <pt x="163" y="141" on="1"/>
        <pt x="123" y="214" on="0"/>
        <pt x="92" y="347" on="0"/>
        <pt x="94" y="441" on="1"/>
        <pt x="166" y="448" on="1"/>
        <pt x="165" y="362" on="0"/>
        <pt x="181" y="257" on="0"/>
        <pt x="205" y="207" on="1"/>
        <pt x="374" y="458" on="1"/>
        <pt x="433" y="429" on="1"/>
        <pt x="248" y="154" on="1"/>
        <pt x="284" y="102" on="0"/>
        <pt x="316" y="-8" on="0"/>
        <pt x="316" y="-82" on="1"/>
        <pt x="316" y="-122" on="0"/>
        <pt x="309" y="-195" on="1"/>
      </contour>
    </TTGlyph>
    <TTGlyph name="circle" xMin="51" yMin="56" xMax="397" yMax="392">
      <contour>
        <pt x="317" y="392" on="0"/>
        <pt x="397" y="315" on="0"/>
        <pt x="397" y="254" on="1"/>
        <pt x="397" y="235" on="0"/>
        <pt x="393" y="218" on="1"/>
        <pt x="384" y="172" on="0"/>
        <pt x="325" y="98" on="0"/>
        <pt x="241" y="56" on="0"/>
        <pt x="195" y="56" on="1"/>
        <pt x="131" y="56" on="0"/>
        <pt x="51" y="133" on="0"/>
        <pt x="51" y="194" on="1"/>
        <pt x="51" y="213" on="0"/>
        <pt x="55" y="230" on="1"/>
        <pt x="64" y="276" on="0"/>
        <pt x="123" y="350" on="0"/>
        <pt x="207" y="392" on="0"/>
        <pt x="253" y="392" on="1"/>
      </contour>
      <contour>
        <pt x="243" y="120" on="0"/>
        <pt x="316" y="183" on="0"/>
        <pt x="325" y="230" on="1"/>
        <pt x="327" y="244" on="0"/>
        <pt x="327" y="251" on="1"/>
        <pt x="327" y="285" on="0"/>
        <pt x="285" y="328" on="0"/>
        <pt x="250" y="328" on="1"/>
        <pt x="205" y="328" on="0"/>
        <pt x="132" y="265" on="0"/>
        <pt x="123" y="218" on="1"/>
        <pt x="121" y="204" on="0"/>
        <pt x="121" y="197" on="1"/>
        <pt x="121" y="163" on="0"/>
        <pt x="163" y="120" on="0"/>
        <pt x="198" y="120" on="1"/>
      </contour>
    </TTGlyph>
    <TTGlyph name="circumflex" xMin="170" yMin="511" xMax="390" yMax="650">
      <component glyphName="uni0302" x="448" y="0" flags="0x0"/>
    </TTGlyph>
    <TTGlyph name="club" xMin="32" yMin="64" xMax="416" yMax="512">
      <contour>
        <pt x="416" y="384" on="1"/>
        <pt x="378" y="192" on="1"/>
        <pt x="314" y="192" on="1"/>
        <pt x="326" y="256" on="1"/>
        <pt x="262" y="256" on="1"/>
        <pt x="237" y="128" on="1"/>
        <pt x="365" y="128" on="1"/>
        <pt x="352" y="64" on="1"/>
        <pt x="32" y="64" on="1"/>
        <pt x="45" y="128" on="1"/>
        <pt x="173" y="128" on="1"/>
        <pt x="198" y="256" on="1"/>
        <pt x="134" y="256" on="1"/>
        <pt x="122" y="192" on="1"/>
        <pt x="58" y="192" on="1"/>
        <pt x="96" y="384" on="1"/>
        <pt x="160" y="384" on="1"/>
        <pt x="147" y="320" on="1"/>
        <pt x="211" y="320" on="1"/>
        <pt x="237" y="448" on="1"/>
        <pt x="173" y="448" on="1"/>
        <pt x="186" y="512" on="1"/>
        <pt x="378" y="512" on="1"/>
        <pt x="365" y="448" on="1"/>
        <pt x="301" y="448" on="1"/>
        <pt x="275" y="320" on="1"/>
        <pt x="339" y="320" on="1"/>
        <pt x="352" y="384" on="1"/>
      </contour>
    </TTGlyph>
    <TTGlyph name="colon" xMin="93" yMin="-10" xMax="291" yMax="458">
      <contour>
        <pt x="259" y="458" on="0"/>
        <pt x="291" y="429" on="0"/>
        <pt x="291" y="404" on="1"/>
        <pt x="291" y="369" on="0"/>
        <pt x="248" y="330" on="0"/>
        <pt x="218" y="330" on="1"/>
        <pt x="193" y="330" on="0"/>
        <pt x="161" y="358" on="0"/>
        <pt x="161" y="383" on="1"/>
        <pt x="161" y="418" on="0"/>
        <pt x="204" y="458" on="0"/>
        <pt x="234" y="458" on="1"/>
      </contour>
      <contour>
        <pt x="191" y="118" on="0"/>
        <pt x="223" y="89" on="0"/>
        <pt x="223" y="64" on="1"/>
        <pt x="223" y="29" on="0"/>
        <pt x="180" y="-10" on="0"/>
        <pt x="150" y="-10" on="1"/>
        <pt x="125" y="-10" on="0"/>
        <pt x="93" y="18" on="0"/>
        <pt x="93" y="43" on="1"/>
        <pt x="93" y="78" on="0"/>
        <pt x="136" y="118" on="0"/>
        <pt x="166" y="118" on="1"/>
      </contour>
    </TTGlyph>
    <TTGlyph name="comma" xMin="70" yMin="-135" xMax="222" yMax="118">
      <contour>
        <pt x="190" y="118" on="0"/>
        <pt x="222" y="88" on="0"/>
        <pt x="222" y="57" on="1"/>
        <pt x="222" y="50" on="0"/>
        <pt x="218" y="26" on="1"/>
        <pt x="209" y="-21" on="0"/>
        <pt x="147" y="-103" on="0"/>
        <pt x="103" y="-135" on="1"/>
        <pt x="70" y="-89" on="1"/>
        <pt x="97" y="-68" on="0"/>
        <pt x="134" y="-30" on="0"/>
        <pt x="145" y="-7" on="1"/>
        <pt x="121" y="-8" on="0"/>
        <pt x="93" y="20" on="0"/>
        <pt x="93" y="43" on="1"/>
        <pt x="93" y="77" on="0"/>
        <pt x="135" y="118" on="0"/>
        <pt x="164" y="118" on="1"/>
      </contour>
    </TTGlyph>
    <TTGlyph name="copyright" xMin="9" yMin="11" xMax="452" yMax="501">
      <contour>
        <pt x="323" y="501" on="0"/>
        <pt x="404" y="459" on="0"/>
        <pt x="452" y="376" on="0"/>
        <pt x="452" y="316" on="1"/>
        <pt x="452" y="284" on="0"/>
        <pt x="445" y="250" on="1"/>
        <pt x="430" y="174" on="0"/>
        <pt x="349" y="65" on="0"/>
        <pt x="241" y="11" on="0"/>
        <pt x="186" y="11" on="1"/>
        <pt x="138" y="11" on="0"/>
        <pt x="57" y="54" on="0"/>
        <pt x="9" y="137" on="0"/>
        <pt x="9" y="196" on="1"/>
        <pt x="9" y="228" on="0"/>
        <pt x="16" y="262" on="1"/>
        <pt x="31" y="339" on="0"/>
        <pt x="112" y="447" on="0"/>
        <pt x="219" y="501" on="0"/>
        <pt x="274" y="501" on="1"/>
      </contour>
      <contour>
        <pt x="271" y="59" on="0"/>
        <pt x="378" y="176" on="0"/>
        <pt x="396" y="262" on="1"/>
        <pt x="402" y="291" on="0"/>
        <pt x="402" y="319" on="1"/>
        <pt x="402" y="379" on="0"/>
        <pt x="341" y="453" on="0"/>
        <pt x="275" y="453" on="1"/>
        <pt x="189" y="453" on="0"/>
        <pt x="82" y="335" on="0"/>
        <pt x="65" y="250" on="1"/>
        <pt x="59" y="220" on="0"/>
        <pt x="59" y="192" on="1"/>
        <pt x="59" y="132" on="0"/>
        <pt x="120" y="59" on="0"/>
        <pt x="186" y="59" on="1"/>
      </contour>
      <contour>
        <pt x="300" y="348" on="0"/>
        <pt x="267" y="348" on="1"/>
        <pt x="227" y="348" on="0"/>
        <pt x="184" y="306" on="0"/>
        <pt x="174" y="253" on="1"/>
        <pt x="169" y="226" on="0"/>
        <pt x="169" y="213" on="1"/>
        <pt x="169" y="188" on="0"/>
        <pt x="193" y="170" on="0"/>
        <pt x="221" y="170" on="1"/>
        <pt x="250" y="170" on="0"/>
        <pt x="289" y="182" on="1"/>
        <pt x="299" y="135" on="1"/>
        <pt x="255" y="120" on="0"/>
        <pt x="218" y="120" on="1"/>
        <pt x="165" y="120" on="0"/>
        <pt x="115" y="174" on="0"/>
        <pt x="115" y="220" on="1"/>
        <pt x="115" y="239" on="0"/>
        <pt x="120" y="264" on="1"/>
        <pt x="132" y="324" on="0"/>
        <pt x="203" y="397" on="0"/>
        <pt x="264" y="397" on="1"/>
        <pt x="305" y="397" on="0"/>
        <pt x="344" y="380" on="1"/>
        <pt x="323" y="337" on="1"/>
      </contour>
    </TTGlyph>
    <TTGlyph name="currency" xMin="17" yMin="57" xMax="457" yMax="519">
      <contour>
        <pt x="400" y="212" on="0"/>
        <pt x="342" y="163" on="1"/>
        <pt x="379" y="95" on="1"/>
        <pt x="321" y="57" on="1"/>
        <pt x="284" y="127" on="1"/>
        <pt x="247" y="112" on="0"/>
        <pt x="207" y="112" on="1"/>
        <pt x="165" y="112" on="0"/>
        <pt x="131" y="129" on="1"/>
        <pt x="63" y="57" on="1"/>
        <pt x="17" y="95" on="1"/>
        <pt x="85" y="167" on="1"/>
        <pt x="56" y="206" on="0"/>
        <pt x="56" y="257" on="1"/>
        <pt x="56" y="268" on="0"/>
        <pt x="60" y="294" on="1"/>
        <pt x="67" y="328" on="0"/>
        <pt x="104" y="389" on="0"/>
        <pt x="132" y="412" on="1"/>
        <pt x="95" y="481" on="1"/>
        <pt x="152" y="519" on="1"/>
        <pt x="190" y="448" on="1"/>
        <pt x="226" y="464" on="0"/>
        <pt x="267" y="464" on="1"/>
        <pt x="309" y="464" on="0"/>
        <pt x="342" y="446" on="1"/>
        <pt x="410" y="519" on="1"/>
        <pt x="457" y="481" on="1"/>
        <pt x="388" y="408" on="1"/>
        <pt x="418" y="372" on="0"/>
        <pt x="418" y="319" on="1"/>
        <pt x="418" y="308" on="0"/>
        <pt x="414" y="282" on="1"/>
      </contour>
      <contour>
        <pt x="124" y="274" on="0"/>
        <pt x="124" y="259" on="1"/>
        <pt x="124" y="223" on="0"/>
        <pt x="171" y="176" on="0"/>
        <pt x="209" y="176" on="1"/>
        <pt x="258" y="176" on="0"/>
        <pt x="338" y="245" on="0"/>
        <pt x="348" y="294" on="1"/>
        <pt x="350" y="302" on="0"/>
        <pt x="350" y="317" on="1"/>
        <pt x="350" y="354" on="0"/>
        <pt x="303" y="400" on="0"/>
        <pt x="264" y="400" on="1"/>
        <pt x="216" y="400" on="0"/>
        <pt x="136" y="331" on="0"/>
        <pt x="126" y="282" on="1"/>
      </contour>
    </TTGlyph>
    <TTGlyph name="d" xMin="43" yMin="-8" xMax="471" yMax="640">
      <contour>
        <pt x="284" y="0" on="1"/>
        <pt x="288" y="34" on="1"/>
        <pt x="242" y="-8" on="0"/>
        <pt x="174" y="-8" on="1"/>
        <pt x="108" y="-8" on="0"/>
        <pt x="43" y="76" on="0"/>
        <pt x="43" y="147" on="1"/>
        <pt x="43" y="187" on="0"/>
        <pt x="52" y="230" on="1"/>
        <pt x="73" y="332" on="0"/>
        <pt x="177" y="456" on="0"/>
        <pt x="257" y="456" on="1"/>
        <pt x="322" y="456" on="0"/>
        <pt x="353" y="419" on="1"/>
        <pt x="399" y="640" on="1"/>
        <pt x="471" y="640" on="1"/>
        <pt x="356" y="64" on="1"/>
        <pt x="345" y="0" on="1"/>
      </contour>
      <contour>
        <pt x="251" y="56" on="0"/>
        <pt x="290" y="101" on="1"/>
        <pt x="343" y="352" on="1"/>
        <pt x="332" y="374" on="0"/>
        <pt x="292" y="392" on="0"/>
        <pt x="263" y="392" on="1"/>
        <pt x="208" y="392" on="0"/>
        <pt x="147" y="316" on="0"/>
        <pt x="128" y="218" on="1"/>
        <pt x="117" y="160" on="0"/>
        <pt x="117" y="129" on="1"/>
        <pt x="117" y="89" on="0"/>
        <pt x="149" y="56" on="0"/>
        <pt x="185" y="56" on="1"/>
      </contour>
    </TTGlyph>
    <TTGlyph name="dagger" xMin="98" yMin="0" xMax="431" yMax="640">
      <contour>
        <pt x="305" y="458" on="1"/>
        <pt x="431" y="458" on="1"/>
        <pt x="418" y="394" on="1"/>
        <pt x="292" y="394" on="1"/>
        <pt x="213" y="0" on="1"/>
        <pt x="145" y="0" on="1"/>
        <pt x="224" y="394" on="1"/>
        <pt x="98" y="394" on="1"/>
        <pt x="111" y="458" on="1"/>
        <pt x="237" y="458" on="1"/>
        <pt x="273" y="640" on="1"/>
        <pt x="341" y="640" on="1"/>
      </contour>
    </TTGlyph>
    <TTGlyph name="daggerdbl" xMin="56" yMin="0" xMax="431" yMax="640">
      <contour>
        <pt x="305" y="458" on="1"/>
        <pt x="431" y="458" on="1"/>
        <pt x="418" y="394" on="1"/>
        <pt x="292" y="394" on="1"/>
        <pt x="262" y="246" on="1"/>
        <pt x="388" y="246" on="1"/>
        <pt x="376" y="182" on="1"/>
        <pt x="250" y="182" on="1"/>
        <pt x="213" y="0" on="1"/>
        <pt x="145" y="0" on="1"/>
        <pt x="182" y="182" on="1"/>
        <pt x="56" y="182" on="1"/>
        <pt x="68" y="246" on="1"/>
        <pt x="194" y="246" on="1"/>
        <pt x="224" y="394" on="1"/>
        <pt x="98" y="394" on="1"/>
        <pt x="111" y="458" on="1"/>
        <pt x="237" y="458" on="1"/>
        <pt x="273" y="640" on="1"/>
        <pt x="341" y="640" on="1"/>
      </contour>
    </TTGlyph>
    <TTGlyph name="dcaron" xMin="13" yMin="-8" xMax="563" yMax="643">
      <component glyphName="d" x="-30" y="0" flags="0x0"/>
      <component glyphName="uni0315" x="492" y="0" flags="0x0"/>
    </TTGlyph>
    <TTGlyph name="dcroat" xMin="43" yMin="-8" xMax="506" yMax="640">
      <contour>
        <pt x="444" y="504" on="1"/>
        <pt x="356" y="64" on="1"/>
        <pt x="345" y="0" on="1"/>
        <pt x="284" y="0" on="1"/>
        <pt x="288" y="34" on="1"/>
        <pt x="242" y="-8" on="0"/>
        <pt x="174" y="-8" on="1"/>
        <pt x="108" y="-8" on="0"/>
        <pt x="43" y="76" on="0"/>
        <pt x="43" y="147" on="1"/>
        <pt x="43" y="187" on="0"/>
        <pt x="52" y="230" on="1"/>
        <pt x="73" y="332" on="0"/>
        <pt x="177" y="456" on="0"/>
        <pt x="257" y="456" on="1"/>
        <pt x="322" y="456" on="0"/>
        <pt x="353" y="419" on="1"/>
        <pt x="372" y="504" on="1"/>
        <pt x="238" y="504" on="1"/>
        <pt x="250" y="564" on="1"/>
        <pt x="384" y="564" on="1"/>
        <pt x="399" y="640" on="1"/>
        <pt x="471" y="640" on="1"/>
        <pt x="456" y="564" on="1"/>
        <pt x="506" y="564" on="1"/>
        <pt x="494" y="504" on="1"/>
      </contour>
      <contour>
        <pt x="251" y="56" on="0"/>
        <pt x="290" y="101" on="1"/>
        <pt x="343" y="352" on="1"/>
        <pt x="332" y="374" on="0"/>
        <pt x="292" y="392" on="0"/>
        <pt x="263" y="392" on="1"/>
        <pt x="208" y="392" on="0"/>
        <pt x="147" y="316" on="0"/>
        <pt x="128" y="218" on="1"/>
        <pt x="117" y="160" on="0"/>
        <pt x="117" y="129" on="1"/>
        <pt x="117" y="89" on="0"/>
        <pt x="149" y="56" on="0"/>
        <pt x="185" y="56" on="1"/>
      </contour>
    </TTGlyph>
    <TTGlyph name="degree" xMin="175" yMin="377" xMax="452" yMax="647">
      <contour>
        <pt x="389" y="647" on="0"/>
        <pt x="452" y="584" on="0"/>
        <pt x="452" y="536" on="1"/>
        <pt x="452" y="495" on="0"/>
        <pt x="409" y="421" on="0"/>
        <pt x="335" y="377" on="0"/>
        <pt x="292" y="377" on="1"/>
        <pt x="238" y="377" on="0"/>
        <pt x="175" y="441" on="0"/>
        <pt x="175" y="490" on="1"/>
        <pt x="175" y="530" on="0"/>
        <pt x="219" y="603" on="0"/>
        <pt x="293" y="647" on="0"/>
        <pt x="336" y="647" on="1"/>
      </contour>
      <contour>
        <pt x="325" y="433" on="0"/>
        <pt x="369" y="467" on="0"/>
        <pt x="391" y="515" on="0"/>
        <pt x="391" y="536" on="1"/>
        <pt x="391" y="559" on="0"/>
        <pt x="364" y="591" on="0"/>
        <pt x="334" y="591" on="1"/>
        <pt x="294" y="591" on="0"/>
        <pt x="244" y="538" on="0"/>
        <pt x="238" y="506" on="1"/>
        <pt x="236" y="494" on="0"/>
        <pt x="236" y="487" on="1"/>
        <pt x="236" y="464" on="0"/>
        <pt x="263" y="433" on="0"/>
        <pt x="293" y="433" on="1"/>
      </contour>
    </TTGlyph>
    <TTGlyph name="delta" xMin="37" yMin="-13" xMax="464" yMax="642">
      <contour>
        <pt x="337" y="392" on="0"/>
        <pt x="395" y="304" on="0"/>
        <pt x="395" y="239" on="1"/>
        <pt x="395" y="210" on="0"/>
        <pt x="390" y="186" on="1"/>
        <pt x="374" y="104" on="0"/>
        <pt x="266" y="-13" on="0"/>
        <pt x="179" y="-13" on="1"/>
        <pt x="106" y="-13" on="0"/>
        <pt x="37" y="72" on="0"/>
        <pt x="37" y="134" on="1"/>
        <pt x="37" y="156" on="0"/>
        <pt x="42" y="183" on="1"/>
        <pt x="55" y="251" on="0"/>
        <pt x="147" y="362" on="0"/>
        <pt x="219" y="399" on="1"/>
        <pt x="197" y="418" on="0"/>
        <pt x="174" y="463" on="0"/>
        <pt x="174" y="492" on="1"/>
        <pt x="174" y="506" on="0"/>
        <pt x="177" y="524" on="1"/>
        <pt x="187" y="576" on="0"/>
        <pt x="274" y="642" on="0"/>
        <pt x="357" y="642" on="1"/>
        <pt x="403" y="642" on="0"/>
        <pt x="464" y="635" on="1"/>
        <pt x="450" y="573" on="1"/>
        <pt x="388" y="578" on="0"/>
        <pt x="354" y="578" on="1"/>
        <pt x="305" y="578" on="0"/>
        <pt x="255" y="540" on="0"/>
        <pt x="249" y="510" on="1"/>
        <pt x="247" y="500" on="0"/>
        <pt x="247" y="495" on="1"/>
        <pt x="247" y="479" on="0"/>
        <pt x="267" y="450" on="0"/>
        <pt x="293" y="426" on="1"/>
      </contour>
      <contour>
        <pt x="234" y="51" on="0"/>
        <pt x="305" y="126" on="0"/>
        <pt x="319" y="198" on="1"/>
        <pt x="323" y="218" on="0"/>
        <pt x="323" y="239" on="1"/>
        <pt x="323" y="309" on="0"/>
        <pt x="271" y="357" on="1"/>
        <pt x="196" y="319" on="0"/>
        <pt x="127" y="232" on="0"/>
        <pt x="114" y="170" on="1"/>
        <pt x="110" y="151" on="0"/>
        <pt x="110" y="130" on="1"/>
        <pt x="110" y="92" on="0"/>
        <pt x="146" y="51" on="0"/>
        <pt x="181" y="51" on="1"/>
      </contour>
    </TTGlyph>
    <TTGlyph name="delta.001" xMin="37" yMin="-13" xMax="464" yMax="648">
      <contour>
        <pt x="337" y="392" on="0"/>
        <pt x="395" y="304" on="0"/>
        <pt x="395" y="239" on="1"/>
        <pt x="395" y="210" on="0"/>
        <pt x="390" y="186" on="1"/>
        <pt x="374" y="104" on="0"/>
        <pt x="266" y="-13" on="0"/>
        <pt x="179" y="-13" on="1"/>
        <pt x="106" y="-13" on="0"/>
        <pt x="37" y="72" on="0"/>
        <pt x="37" y="134" on="1"/>
        <pt x="37" y="156" on="0"/>
        <pt x="42" y="183" on="1"/>
        <pt x="55" y="250" on="0"/>
        <pt x="149" y="359" on="0"/>
        <pt x="220" y="398" on="1"/>
        <pt x="172" y="439" on="0"/>
        <pt x="172" y="488" on="1"/>
        <pt x="172" y="502" on="0"/>
        <pt x="174" y="510" on="1"/>
        <pt x="180" y="537" on="0"/>
        <pt x="220" y="584" on="0"/>
        <pt x="267" y="605" on="1"/>
        <pt x="336" y="632" on="0"/>
        <pt x="459" y="648" on="1"/>
        <pt x="464" y="585" on="1"/>
        <pt x="379" y="570" on="0"/>
        <pt x="289" y="546" on="0"/>
        <pt x="251" y="520" on="0"/>
        <pt x="247" y="500" on="1"/>
        <pt x="246" y="496" on="0"/>
        <pt x="246" y="489" on="1"/>
        <pt x="246" y="476" on="0"/>
        <pt x="265" y="452" on="0"/>
        <pt x="293" y="426" on="1"/>
      </contour>
      <contour>
        <pt x="234" y="51" on="0"/>
        <pt x="305" y="126" on="0"/>
        <pt x="319" y="198" on="1"/>
        <pt x="323" y="218" on="0"/>
        <pt x="323" y="239" on="1"/>
        <pt x="323" y="309" on="0"/>
        <pt x="271" y="357" on="1"/>
        <pt x="196" y="319" on="0"/>
        <pt x="126" y="232" on="0"/>
        <pt x="114" y="170" on="1"/>
        <pt x="110" y="150" on="0"/>
        <pt x="110" y="130" on="1"/>
        <pt x="110" y="92" on="0"/>
        <pt x="146" y="51" on="0"/>
        <pt x="181" y="51" on="1"/>
      </contour>
    </TTGlyph>
    <TTGlyph name="diamond" xMin="71" yMin="80" xMax="395" yMax="456">
      <contour>
        <pt x="247" y="456" on="1"/>
        <pt x="291" y="456" on="1"/>
        <pt x="395" y="284" on="1"/>
        <pt x="390" y="252" on="1"/>
        <pt x="218" y="80" on="1"/>
        <pt x="174" y="80" on="1"/>
        <pt x="71" y="252" on="1"/>
        <pt x="75" y="284" on="1"/>
      </contour>
    </TTGlyph>
    <TTGlyph name="dieresis" xMin="155" yMin="522" xMax="438" yMax="650">
      <component glyphName="uni0308" x="448" y="0" flags="0x0"/>
    </TTGlyph>
    <TTGlyph name="dieresistonos" xMin="129" yMin="512" xMax="464" yMax="704">
      <contour>
        <pt x="372" y="704" on="1"/>
        <pt x="304" y="512" on="1"/>
        <pt x="239" y="512" on="1"/>
        <pt x="288" y="704" on="1"/>
      </contour>
      <contour>
        <pt x="191" y="650" on="0"/>
        <pt x="208" y="629" on="0"/>
        <pt x="208" y="608" on="1"/>
        <pt x="208" y="597" on="0"/>
        <pt x="205" y="580" on="1"/>
        <pt x="194" y="522" on="0"/>
        <pt x="161" y="522" on="1"/>
        <pt x="146" y="522" on="0"/>
        <pt x="129" y="543" on="0"/>
        <pt x="129" y="564" on="1"/>
        <pt x="129" y="576" on="0"/>
        <pt x="132" y="592" on="1"/>
        <pt x="143" y="650" on="0"/>
        <pt x="176" y="650" on="1"/>
      </contour>
      <contour>
        <pt x="447" y="650" on="0"/>
        <pt x="464" y="629" on="0"/>
        <pt x="464" y="608" on="1"/>
        <pt x="464" y="597" on="0"/>
        <pt x="461" y="580" on="1"/>
        <pt x="450" y="522" on="0"/>
        <pt x="417" y="522" on="1"/>
        <pt x="402" y="522" on="0"/>
        <pt x="385" y="543" on="0"/>
        <pt x="385" y="564" on="1"/>
        <pt x="385" y="576" on="0"/>
        <pt x="388" y="592" on="1"/>
        <pt x="399" y="650" on="0"/>
        <pt x="432" y="650" on="1"/>
      </contour>
    </TTGlyph>
    <TTGlyph name="divide" xMin="30" yMin="62" xMax="443" yMax="514">
      <contour>
        <pt x="302" y="514" on="0"/>
        <pt x="334" y="485" on="0"/>
        <pt x="334" y="460" on="1"/>
        <pt x="334" y="425" on="0"/>
        <pt x="291" y="386" on="0"/>
        <pt x="261" y="386" on="1"/>
        <pt x="236" y="386" on="0"/>
        <pt x="204" y="414" on="0"/>
        <pt x="204" y="439" on="1"/>
        <pt x="204" y="474" on="0"/>
        <pt x="247" y="514" on="0"/>
        <pt x="277" y="514" on="1"/>
      </contour>
      <contour>
        <pt x="443" y="320" on="1"/>
        <pt x="430" y="256" on="1"/>
        <pt x="30" y="256" on="1"/>
        <pt x="43" y="320" on="1"/>
      </contour>
      <contour>
        <pt x="237" y="190" on="0"/>
        <pt x="269" y="162" on="0"/>
        <pt x="269" y="137" on="1"/>
        <pt x="269" y="101" on="0"/>
        <pt x="226" y="62" on="0"/>
        <pt x="197" y="62" on="1"/>
        <pt x="172" y="62" on="0"/>
        <pt x="140" y="90" on="0"/>
        <pt x="140" y="115" on="1"/>
        <pt x="140" y="150" on="0"/>
        <pt x="182" y="190" on="0"/>
        <pt x="212" y="190" on="1"/>
      </contour>
    </TTGlyph>
    <TTGlyph name="dkshade" xMin="-70" yMin="-192" xMax="506" yMax="832">
      <contour>
        <pt x="429" y="768" on="1"/>
        <pt x="416" y="704" on="1"/>
        <pt x="480" y="704" on="1"/>
        <pt x="442" y="512" on="1"/>
        <pt x="378" y="512" on="1"/>
        <pt x="365" y="448" on="1"/>
        <pt x="429" y="448" on="1"/>
        <pt x="390" y="256" on="1"/>
        <pt x="326" y="256" on="1"/>
        <pt x="314" y="192" on="1"/>
        <pt x="378" y="192" on="1"/>
        <pt x="339" y="0" on="1"/>
        <pt x="275" y="0" on="1"/>
        <pt x="262" y="-64" on="1"/>
        <pt x="326" y="-64" on="1"/>
        <pt x="301" y="-192" on="1"/>
        <pt x="237" y="-192" on="1"/>
        <pt x="250" y="-128" on="1"/>
        <pt x="186" y="-128" on="1"/>
        <pt x="173" y="-192" on="1"/>
        <pt x="109" y="-192" on="1"/>
        <pt x="122" y="-128" on="1"/>
        <pt x="58" y="-128" on="1"/>
        <pt x="45" y="-192" on="1"/>
        <pt x="-19" y="-192" on="1"/>
        <pt x="-6" y="-128" on="1"/>
        <pt x="-70" y="-128" on="1"/>
        <pt x="-32" y="64" on="1"/>
        <pt x="32" y="64" on="1"/>
        <pt x="45" y="128" on="1"/>
        <pt x="-19" y="128" on="1"/>
        <pt x="19" y="320" on="1"/>
        <pt x="83" y="320" on="1"/>
        <pt x="96" y="384" on="1"/>
        <pt x="32" y="384" on="1"/>
        <pt x="70" y="576" on="1"/>
        <pt x="134" y="576" on="1"/>
        <pt x="147" y="640" on="1"/>
        <pt x="83" y="640" on="1"/>
        <pt x="122" y="832" on="1"/>
        <pt x="506" y="832" on="1"/>
        <pt x="493" y="768" on="1"/>
      </contour>
      <contour>
        <pt x="160" y="704" on="1"/>
        <pt x="224" y="704" on="1"/>
        <pt x="237" y="768" on="1"/>
        <pt x="173" y="768" on="1"/>
      </contour>
      <contour>
        <pt x="365" y="768" on="1"/>
        <pt x="301" y="768" on="1"/>
        <pt x="288" y="704" on="1"/>
        <pt x="352" y="704" on="1"/>
      </contour>
      <contour>
        <pt x="198" y="576" on="1"/>
        <pt x="262" y="576" on="1"/>
        <pt x="275" y="640" on="1"/>
        <pt x="211" y="640" on="1"/>
      </contour>
      <contour>
        <pt x="403" y="640" on="1"/>
        <pt x="339" y="640" on="1"/>
        <pt x="326" y="576" on="1"/>
        <pt x="390" y="576" on="1"/>
      </contour>
      <contour>
        <pt x="109" y="448" on="1"/>
        <pt x="173" y="448" on="1"/>
        <pt x="186" y="512" on="1"/>
        <pt x="122" y="512" on="1"/>
      </contour>
      <contour>
        <pt x="314" y="512" on="1"/>
        <pt x="250" y="512" on="1"/>
        <pt x="237" y="448" on="1"/>
        <pt x="301" y="448" on="1"/>
      </contour>
      <contour>
        <pt x="147" y="320" on="1"/>
        <pt x="211" y="320" on="1"/>
        <pt x="224" y="384" on="1"/>
        <pt x="160" y="384" on="1"/>
      </contour>
      <contour>
        <pt x="352" y="384" on="1"/>
        <pt x="288" y="384" on="1"/>
        <pt x="275" y="320" on="1"/>
        <pt x="339" y="320" on="1"/>
      </contour>
      <contour>
        <pt x="58" y="192" on="1"/>
        <pt x="122" y="192" on="1"/>
        <pt x="134" y="256" on="1"/>
        <pt x="70" y="256" on="1"/>
      </contour>
      <contour>
        <pt x="262" y="256" on="1"/>
        <pt x="198" y="256" on="1"/>
        <pt x="186" y="192" on="1"/>
        <pt x="250" y="192" on="1"/>
      </contour>
      <contour>
        <pt x="96" y="64" on="1"/>
        <pt x="160" y="64" on="1"/>
        <pt x="173" y="128" on="1"/>
        <pt x="109" y="128" on="1"/>
      </contour>
      <contour>
        <pt x="301" y="128" on="1"/>
        <pt x="237" y="128" on="1"/>
        <pt x="224" y="64" on="1"/>
        <pt x="288" y="64" on="1"/>
      </contour>
      <contour>
        <pt x="70" y="-64" on="1"/>
        <pt x="83" y="0" on="1"/>
        <pt x="19" y="0" on="1"/>
        <pt x="6" y="-64" on="1"/>
      </contour>
      <contour>
        <pt x="211" y="0" on="1"/>
        <pt x="147" y="0" on="1"/>
        <pt x="134" y="-64" on="1"/>
        <pt x="198" y="-64" on="1"/>
      </contour>
    </TTGlyph>
    <TTGlyph name="dnblock" xMin="-83" yMin="-192" xMax="467" yMax="320">
      <contour>
        <pt x="-83" y="-192" on="1"/>
        <pt x="19" y="320" on="1"/>
        <pt x="467" y="320" on="1"/>
        <pt x="365" y="-192" on="1"/>
      </contour>
    </TTGlyph>
    <TTGlyph name="dollar" xMin="12" yMin="-74" xMax="442" yMax="650">
      <contour>
        <pt x="364" y="90" on="0"/>
        <pt x="282" y="9" on="0"/>
        <pt x="213" y="-4" on="1"/>
        <pt x="196" y="-74" on="1"/>
        <pt x="132" y="-74" on="1"/>
        <pt x="148" y="-8" on="1"/>
        <pt x="77" y="-8" on="0"/>
        <pt x="12" y="19" on="1"/>
        <pt x="39" y="83" on="1"/>
        <pt x="98" y="59" on="0"/>
        <pt x="156" y="58" on="1"/>
        <pt x="201" y="259" on="1"/>
        <pt x="151" y="278" on="0"/>
        <pt x="95" y="332" on="0"/>
        <pt x="95" y="384" on="1"/>
        <pt x="95" y="406" on="0"/>
        <pt x="99" y="426" on="1"/>
        <pt x="111" y="483" on="0"/>
        <pt x="193" y="564" on="0"/>
        <pt x="260" y="578" on="1"/>
        <pt x="277" y="650" on="1"/>
        <pt x="341" y="650" on="1"/>
        <pt x="325" y="584" on="1"/>
        <pt x="354" y="584" on="0"/>
        <pt x="418" y="574" on="0"/>
        <pt x="442" y="565" on="1"/>
        <pt x="418" y="501" on="1"/>
        <pt x="371" y="518" on="0"/>
        <pt x="317" y="518" on="1"/>
        <pt x="271" y="310" on="1"/>
        <pt x="323" y="292" on="0"/>
        <pt x="381" y="242" on="0"/>
        <pt x="381" y="192" on="1"/>
        <pt x="381" y="173" on="0"/>
        <pt x="377" y="154" on="1"/>
      </contour>
      <contour>
        <pt x="167" y="406" on="0"/>
        <pt x="167" y="393" on="1"/>
        <pt x="167" y="371" on="0"/>
        <pt x="189" y="342" on="0"/>
        <pt x="211" y="332" on="1"/>
        <pt x="251" y="509" on="1"/>
        <pt x="184" y="488" on="0"/>
        <pt x="169" y="413" on="1"/>
      </contour>
      <contour>
        <pt x="291" y="85" on="0"/>
        <pt x="306" y="157" on="1"/>
        <pt x="308" y="169" on="0"/>
        <pt x="308" y="175" on="1"/>
        <pt x="308" y="197" on="0"/>
        <pt x="284" y="224" on="0"/>
        <pt x="261" y="236" on="1"/>
        <pt x="222" y="66" on="1"/>
      </contour>
    </TTGlyph>
    <TTGlyph name="dotaccent" xMin="238" yMin="532" xMax="357" yMax="650">
      <component glyphName="uni0307" x="448" y="0" flags="0x0"/>
    </TTGlyph>
    <TTGlyph name="dotlessi" xMin="107" yMin="0" xMax="315" yMax="448">
      <contour>
        <pt x="230" y="382" on="1"/>
        <pt x="107" y="390" on="1"/>
        <pt x="119" y="448" on="1"/>
        <pt x="315" y="448" on="1"/>
        <pt x="225" y="0" on="1"/>
        <pt x="153" y="0" on="1"/>
      </contour>
    </TTGlyph>
    <TTGlyph name="dotmath" xMin="172" yMin="224" xMax="302" yMax="352">
      <component glyphName="period" x="79" y="234" flags="0x4"/>
    </TTGlyph>
    <TTGlyph name="e" xMin="42" yMin="-13" xMax="407" yMax="461">
      <contour>
        <pt x="335" y="461" on="0"/>
        <pt x="407" y="380" on="0"/>
        <pt x="407" y="308" on="1"/>
        <pt x="407" y="261" on="0"/>
        <pt x="390" y="198" on="1"/>
        <pt x="121" y="198" on="1"/>
        <pt x="115" y="162" on="0"/>
        <pt x="115" y="137" on="1"/>
        <pt x="115" y="90" on="0"/>
        <pt x="157" y="51" on="0"/>
        <pt x="206" y="51" on="1"/>
        <pt x="235" y="51" on="0"/>
        <pt x="292" y="63" on="0"/>
        <pt x="328" y="75" on="1"/>
        <pt x="335" y="15" on="1"/>
        <pt x="266" y="-13" on="0"/>
        <pt x="200" y="-13" on="1"/>
        <pt x="42" y="-13" on="0"/>
        <pt x="42" y="145" on="1"/>
        <pt x="42" y="185" on="0"/>
        <pt x="51" y="230" on="1"/>
        <pt x="72" y="335" on="0"/>
        <pt x="177" y="461" on="0"/>
        <pt x="266" y="461" on="1"/>
      </contour>
      <contour>
        <pt x="215" y="397" on="0"/>
        <pt x="153" y="333" on="0"/>
        <pt x="134" y="260" on="1"/>
        <pt x="329" y="266" on="1"/>
        <pt x="334" y="298" on="0"/>
        <pt x="334" y="317" on="1"/>
        <pt x="334" y="359" on="0"/>
        <pt x="300" y="397" on="0"/>
        <pt x="264" y="397" on="1"/>
      </contour>
    </TTGlyph>
    <TTGlyph name="eacute" xMin="42" yMin="-13" xMax="418" yMax="669">
      <component glyphName="e" x="0" y="0" flags="0x0"/>
      <component glyphName="acutecomb" x="448" y="0" flags="0x0"/>
    </TTGlyph>
    <TTGlyph name="ebreve" xMin="42" yMin="-13" xMax="467" yMax="640">
      <component glyphName="e" x="0" y="0" flags="0x0"/>
      <component glyphName="uni0306" x="448" y="0" flags="0x0"/>
    </TTGlyph>
    <TTGlyph name="ecaron" xMin="42" yMin="-13" xMax="419" yMax="643">
      <component glyphName="e" x="0" y="0" flags="0x0"/>
      <component glyphName="uni030C" x="448" y="0" flags="0x0"/>
    </TTGlyph>
    <TTGlyph name="ecircumflex" xMin="42" yMin="-13" xMax="407" yMax="650">
      <component glyphName="e" x="0" y="0" flags="0x0"/>
      <component glyphName="uni0302" x="448" y="0" flags="0x0"/>
    </TTGlyph>
    <TTGlyph name="edieresis" xMin="42" yMin="-13" xMax="438" yMax="650">
      <component glyphName="e" x="0" y="0" flags="0x0"/>
      <component glyphName="uni0308" x="448" y="0" flags="0x0"/>
    </TTGlyph>
    <TTGlyph name="edotaccent" xMin="42" yMin="-13" xMax="407" yMax="650">
      <component glyphName="e" x="0" y="0" flags="0x0"/>
      <component glyphName="uni0307" x="448" y="0" flags="0x0"/>
    </TTGlyph>
    <TTGlyph name="egrave" xMin="42" yMin="-13" xMax="407" yMax="669">
      <component glyphName="e" x="0" y="0" flags="0x0"/>
      <component glyphName="gravecomb" x="448" y="0" flags="0x0"/>
    </TTGlyph>
    <TTGlyph name="eight" xMin="15" yMin="-11" xMax="433" yMax="586">
      <contour>
        <pt x="360" y="250" on="0"/>
        <pt x="399" y="197" on="0"/>
        <pt x="399" y="162" on="1"/>
        <pt x="399" y="148" on="0"/>
        <pt x="396" y="131" on="1"/>
        <pt x="389" y="93" on="0"/>
        <pt x="332" y="28" on="0"/>
        <pt x="240" y="-11" on="0"/>
        <pt x="182" y="-11" on="1"/>
        <pt x="102" y="-11" on="0"/>
        <pt x="15" y="63" on="0"/>
        <pt x="15" y="123" on="1"/>
        <pt x="15" y="134" on="0"/>
        <pt x="19" y="158" on="1"/>
        <pt x="28" y="205" on="0"/>
        <pt x="93" y="282" on="0"/>
        <pt x="143" y="310" on="1"/>
        <pt x="98" y="355" on="0"/>
        <pt x="98" y="409" on="1"/>
        <pt x="98" y="425" on="0"/>
        <pt x="101" y="441" on="1"/>
        <pt x="114" y="505" on="0"/>
        <pt x="221" y="586" on="0"/>
        <pt x="291" y="586" on="1"/>
        <pt x="356" y="586" on="0"/>
        <pt x="433" y="518" on="0"/>
        <pt x="433" y="460" on="1"/>
        <pt x="433" y="440" on="0"/>
        <pt x="429" y="421" on="1"/>
        <pt x="421" y="383" on="0"/>
        <pt x="369" y="306" on="0"/>
        <pt x="322" y="273" on="1"/>
      </contour>
      <contour>
        <pt x="249" y="522" on="0"/>
        <pt x="196" y="487" on="0"/>
        <pt x="170" y="433" on="0"/>
        <pt x="170" y="406" on="1"/>
        <pt x="170" y="381" on="0"/>
        <pt x="212" y="335" on="0"/>
        <pt x="269" y="306" on="1"/>
        <pt x="309" y="335" on="0"/>
        <pt x="351" y="398" on="0"/>
        <pt x="358" y="435" on="1"/>
        <pt x="360" y="443" on="0"/>
        <pt x="360" y="458" on="1"/>
        <pt x="360" y="487" on="0"/>
        <pt x="326" y="522" on="0"/>
        <pt x="289" y="522" on="1"/>
      </contour>
      <contour>
        <pt x="231" y="53" on="0"/>
        <pt x="295" y="87" on="0"/>
        <pt x="327" y="135" on="0"/>
        <pt x="327" y="157" on="1"/>
        <pt x="327" y="180" on="0"/>
        <pt x="283" y="225" on="0"/>
        <pt x="222" y="259" on="1"/>
        <pt x="208" y="263" on="0"/>
        <pt x="191" y="274" on="1"/>
        <pt x="143" y="247" on="0"/>
        <pt x="98" y="184" on="0"/>
        <pt x="90" y="146" on="1"/>
        <pt x="88" y="132" on="0"/>
        <pt x="88" y="126" on="1"/>
        <pt x="88" y="93" on="0"/>
        <pt x="135" y="53" on="0"/>
        <pt x="185" y="53" on="1"/>
      </contour>
    </TTGlyph>
    <TTGlyph name="eight.dnom" xMin="-116" yMin="-198" xMax="134" yMax="134">
      <component glyphName="uni2078" x="-198" y="-512" flags="0x4"/>
    </TTGlyph>
    <TTGlyph name="eight.numr" xMin="82" yMin="314" xMax="332" yMax="646">
      <component glyphName="uni2078" x="0" y="0" flags="0x0"/>
    </TTGlyph>
    <TTGlyph name="ellipsis" xMin="19" yMin="0" xMax="365" yMax="128">
      <contour>
        <pt x="109" y="128" on="1"/>
        <pt x="83" y="0" on="1"/>
        <pt x="19" y="0" on="1"/>
        <pt x="45" y="128" on="1"/>
      </contour>
      <contour>
        <pt x="237" y="128" on="1"/>
        <pt x="211" y="0" on="1"/>
        <pt x="147" y="0" on="1"/>
        <pt x="173" y="128" on="1"/>
      </contour>
      <contour>
        <pt x="365" y="128" on="1"/>
        <pt x="339" y="0" on="1"/>
        <pt x="275" y="0" on="1"/>
        <pt x="301" y="128" on="1"/>
      </contour>
    </TTGlyph>
    <TTGlyph name="emacron" xMin="42" yMin="-13" xMax="447" yMax="640">
      <component glyphName="e" x="0" y="0" flags="0x0"/>
      <component glyphName="uni0304" x="448" y="0" flags="0x0"/>
    </TTGlyph>
    <TTGlyph name="emdash" xMin="-16" yMin="192" xMax="464" yMax="256">
      <contour>
        <pt x="-16" y="192" on="1"/>
        <pt x="-4" y="256" on="1"/>
        <pt x="464" y="256" on="1"/>
        <pt x="452" y="192" on="1"/>
      </contour>
    </TTGlyph>
    <TTGlyph name="endash" xMin="78" yMin="192" xMax="370" yMax="256">
      <component glyphName="hyphen" x="0" y="0" flags="0x0"/>
    </TTGlyph>
    <TTGlyph name="eng" xMin="15" yMin="-197" xMax="408" yMax="452">
      <contour>
        <pt x="350" y="452" on="0"/>
        <pt x="408" y="403" on="0"/>
        <pt x="408" y="346" on="1"/>
        <pt x="408" y="324" on="0"/>
        <pt x="402" y="294" on="1"/>
        <pt x="342" y="-8" on="1"/>
        <pt x="327" y="-81" on="0"/>
        <pt x="257" y="-169" on="0"/>
        <pt x="187" y="-197" on="1"/>
        <pt x="165" y="-135" on="1"/>
        <pt x="214" y="-116" on="0"/>
        <pt x="259" y="-62" on="0"/>
        <pt x="269" y="-10" on="1"/>
        <pt x="330" y="292" on="1"/>
        <pt x="336" y="321" on="0"/>
        <pt x="336" y="339" on="1"/>
        <pt x="336" y="365" on="0"/>
        <pt x="312" y="388" on="0"/>
        <pt x="285" y="388" on="1"/>
        <pt x="226" y="388" on="0"/>
        <pt x="155" y="328" on="1"/>
        <pt x="87" y="0" on="1"/>
        <pt x="15" y="0" on="1"/>
        <pt x="92" y="383" on="1"/>
        <pt x="103" y="448" on="1"/>
        <pt x="169" y="448" on="1"/>
        <pt x="164" y="402" on="1"/>
        <pt x="197" y="425" on="0"/>
        <pt x="268" y="452" on="0"/>
        <pt x="302" y="452" on="1"/>
      </contour>
    </TTGlyph>
    <TTGlyph name="eogonek" xMin="42" yMin="-197" xMax="407" yMax="461">
      <contour>
        <pt x="335" y="461" on="0"/>
        <pt x="407" y="380" on="0"/>
        <pt x="407" y="308" on="1"/>
        <pt x="407" y="261" on="0"/>
        <pt x="390" y="198" on="1"/>
        <pt x="121" y="198" on="1"/>
        <pt x="115" y="162" on="0"/>
        <pt x="115" y="137" on="1"/>
        <pt x="115" y="90" on="0"/>
        <pt x="157" y="51" on="0"/>
        <pt x="206" y="51" on="1"/>
        <pt x="235" y="51" on="0"/>
        <pt x="292" y="63" on="0"/>
        <pt x="328" y="75" on="1"/>
        <pt x="335" y="15" on="1"/>
        <pt x="310" y="5" on="1"/>
        <pt x="306" y="3" on="0"/>
        <pt x="295" y="0" on="0"/>
        <pt x="290" y="-3" on="1"/>
        <pt x="251" y="-36" on="0"/>
        <pt x="207" y="-89" on="0"/>
        <pt x="202" y="-114" on="1"/>
        <pt x="201" y="-118" on="0"/>
        <pt x="201" y="-123" on="1"/>
        <pt x="201" y="-131" on="0"/>
        <pt x="209" y="-136" on="0"/>
        <pt x="219" y="-136" on="1"/>
        <pt x="238" y="-136" on="0"/>
        <pt x="258" y="-127" on="1"/>
        <pt x="269" y="-182" on="1"/>
        <pt x="240" y="-197" on="0"/>
        <pt x="205" y="-197" on="1"/>
        <pt x="169" y="-197" on="0"/>
        <pt x="130" y="-164" on="0"/>
        <pt x="130" y="-135" on="1"/>
        <pt x="130" y="-73" on="0"/>
        <pt x="204" y="-11" on="1"/>
        <pt x="197" y="-13" on="1"/>
        <pt x="116" y="-13" on="0"/>
        <pt x="42" y="71" on="0"/>
        <pt x="42" y="145" on="1"/>
        <pt x="42" y="185" on="0"/>
        <pt x="51" y="230" on="1"/>
        <pt x="72" y="335" on="0"/>
        <pt x="177" y="461" on="0"/>
        <pt x="266" y="461" on="1"/>
      </contour>
      <contour>
        <pt x="215" y="397" on="0"/>
        <pt x="153" y="333" on="0"/>
        <pt x="134" y="260" on="1"/>
        <pt x="329" y="266" on="1"/>
        <pt x="334" y="298" on="0"/>
        <pt x="334" y="317" on="1"/>
        <pt x="334" y="359" on="0"/>
        <pt x="300" y="397" on="0"/>
        <pt x="264" y="397" on="1"/>
      </contour>
    </TTGlyph>
    <TTGlyph name="epsilon" xMin="32" yMin="0" xMax="429" yMax="448">
      <contour>
        <pt x="173" y="448" on="1"/>
        <pt x="429" y="448" on="1"/>
        <pt x="416" y="384" on="1"/>
        <pt x="160" y="384" on="1"/>
      </contour>
      <contour>
        <pt x="134" y="256" on="1"/>
        <pt x="70" y="256" on="1"/>
        <pt x="96" y="384" on="1"/>
        <pt x="160" y="384" on="1"/>
      </contour>
      <contour>
        <pt x="134" y="256" on="1"/>
        <pt x="326" y="256" on="1"/>
        <pt x="314" y="192" on="1"/>
        <pt x="122" y="192" on="1"/>
      </contour>
      <contour>
        <pt x="122" y="192" on="1"/>
        <pt x="96" y="64" on="1"/>
        <pt x="32" y="64" on="1"/>
        <pt x="58" y="192" on="1"/>
      </contour>
      <contour>
        <pt x="96" y="64" on="1"/>
        <pt x="352" y="64" on="1"/>
        <pt x="339" y="0" on="1"/>
        <pt x="83" y="0" on="1"/>
      </contour>
    </TTGlyph>
    <TTGlyph name="epsilontonos" xMin="32" yMin="0" xMax="429" yMax="704">
      <component glyphName="epsilon" x="0" y="0" flags="0x0"/>
      <component glyphName="tonos" x="0" y="0" flags="0x0"/>
    </TTGlyph>
    <TTGlyph name="equal" xMin="22" yMin="176" xMax="451" yMax="400">
      <contour>
        <pt x="54" y="336" on="1"/>
        <pt x="67" y="400" on="1"/>
        <pt x="451" y="400" on="1"/>
        <pt x="438" y="336" on="1"/>
      </contour>
      <contour>
        <pt x="22" y="176" on="1"/>
        <pt x="35" y="240" on="1"/>
        <pt x="419" y="240" on="1"/>
        <pt x="406" y="176" on="1"/>
      </contour>
    </TTGlyph>
    <TTGlyph name="equivalence" xMin="5" yMin="128" xMax="469" yMax="448">
      <contour>
        <pt x="56" y="384" on="1"/>
        <pt x="69" y="448" on="1"/>
        <pt x="469" y="448" on="1"/>
        <pt x="456" y="384" on="1"/>
      </contour>
      <contour>
        <pt x="30" y="256" on="1"/>
        <pt x="43" y="320" on="1"/>
        <pt x="443" y="320" on="1"/>
        <pt x="430" y="256" on="1"/>
      </contour>
      <contour>
        <pt x="5" y="128" on="1"/>
        <pt x="18" y="192" on="1"/>
        <pt x="418" y="192" on="1"/>
        <pt x="405" y="128" on="1"/>
      </contour>
    </TTGlyph>
    <TTGlyph name="estimated" xMin="43" yMin="-13" xMax="407" yMax="461">
      <contour>
        <pt x="391" y="191" on="1"/>
        <pt x="157" y="188" on="1"/>
        <pt x="148" y="140" on="0"/>
        <pt x="148" y="109" on="1"/>
        <pt x="148" y="73" on="0"/>
        <pt x="176" y="41" on="0"/>
        <pt x="207" y="41" on="1"/>
        <pt x="255" y="41" on="0"/>
        <pt x="312" y="58" on="1"/>
        <pt x="321" y="7" on="1"/>
        <pt x="254" y="-13" on="0"/>
        <pt x="196" y="-13" on="1"/>
        <pt x="115" y="-13" on="0"/>
        <pt x="43" y="77" on="0"/>
        <pt x="43" y="151" on="1"/>
        <pt x="43" y="187" on="0"/>
        <pt x="51" y="230" on="1"/>
        <pt x="72" y="330" on="0"/>
        <pt x="184" y="461" on="0"/>
        <pt x="271" y="461" on="1"/>
        <pt x="341" y="461" on="0"/>
        <pt x="407" y="380" on="0"/>
        <pt x="407" y="309" on="1"/>
        <pt x="407" y="273" on="0"/>
        <pt x="397" y="221" on="1"/>
      </contour>
      <contour>
        <pt x="232" y="407" on="0"/>
        <pt x="187" y="332" on="0"/>
        <pt x="168" y="244" on="1"/>
        <pt x="289" y="250" on="1"/>
        <pt x="302" y="323" on="0"/>
        <pt x="302" y="353" on="1"/>
        <pt x="302" y="382" on="0"/>
        <pt x="285" y="407" on="0"/>
        <pt x="267" y="407" on="1"/>
      </contour>
    </TTGlyph>
    <TTGlyph name="eta" xMin="15" yMin="-192" xMax="408" yMax="452">
      <contour>
        <pt x="350" y="452" on="0"/>
        <pt x="408" y="403" on="0"/>
        <pt x="408" y="346" on="1"/>
        <pt x="408" y="324" on="0"/>
        <pt x="402" y="294" on="1"/>
        <pt x="305" y="-192" on="1"/>
        <pt x="233" y="-192" on="1"/>
        <pt x="330" y="292" on="1"/>
        <pt x="336" y="321" on="0"/>
        <pt x="336" y="339" on="1"/>
        <pt x="336" y="365" on="0"/>
        <pt x="312" y="388" on="0"/>
        <pt x="285" y="388" on="1"/>
        <pt x="226" y="388" on="0"/>
        <pt x="155" y="328" on="1"/>
        <pt x="87" y="0" on="1"/>
        <pt x="15" y="0" on="1"/>
        <pt x="92" y="383" on="1"/>
        <pt x="103" y="448" on="1"/>
        <pt x="169" y="448" on="1"/>
        <pt x="164" y="402" on="1"/>
        <pt x="197" y="425" on="0"/>
        <pt x="268" y="452" on="0"/>
        <pt x="302" y="452" on="1"/>
      </contour>
    </TTGlyph>
    <TTGlyph name="etatonos" xMin="15" yMin="-192" xMax="408" yMax="704">
      <component glyphName="eta" x="0" y="0" flags="0x0"/>
      <component glyphName="tonos" x="0" y="0" flags="0x0"/>
    </TTGlyph>
    <TTGlyph name="eth" xMin="37" yMin="-8" xMax="414" yMax="646">
      <contour>
        <pt x="414" y="458" on="0"/>
        <pt x="414" y="342" on="1"/>
        <pt x="414" y="293" on="0"/>
        <pt x="404" y="246" on="1"/>
        <pt x="379" y="120" on="0"/>
        <pt x="265" y="-8" on="0"/>
        <pt x="180" y="-8" on="1"/>
        <pt x="112" y="-8" on="0"/>
        <pt x="37" y="74" on="0"/>
        <pt x="37" y="146" on="1"/>
        <pt x="37" y="171" on="0"/>
        <pt x="44" y="209" on="1"/>
        <pt x="57" y="273" on="0"/>
        <pt x="118" y="366" on="0"/>
        <pt x="202" y="414" on="0"/>
        <pt x="248" y="414" on="1"/>
        <pt x="293" y="414" on="0"/>
        <pt x="338" y="393" on="1"/>
        <pt x="334" y="456" on="0"/>
        <pt x="291" y="516" on="1"/>
        <pt x="203" y="461" on="1"/>
        <pt x="179" y="505" on="1"/>
        <pt x="258" y="554" on="1"/>
        <pt x="238" y="576" on="0"/>
        <pt x="208" y="598" on="1"/>
        <pt x="250" y="646" on="1"/>
        <pt x="291" y="615" on="0"/>
        <pt x="315" y="588" on="1"/>
        <pt x="391" y="635" on="1"/>
        <pt x="414" y="591" on="1"/>
        <pt x="347" y="550" on="1"/>
      </contour>
      <contour>
        <pt x="246" y="56" on="0"/>
        <pt x="314" y="158" on="0"/>
        <pt x="333" y="253" on="1"/>
        <pt x="345" y="324" on="1"/>
        <pt x="300" y="350" on="0"/>
        <pt x="253" y="350" on="1"/>
        <pt x="147" y="350" on="0"/>
        <pt x="116" y="197" on="1"/>
        <pt x="109" y="160" on="0"/>
        <pt x="109" y="139" on="1"/>
        <pt x="109" y="56" on="0"/>
        <pt x="185" y="56" on="1"/>
      </contour>
    </TTGlyph>
    <TTGlyph name="exclam" xMin="125" yMin="-10" xMax="353" yMax="640">
      <contour>
        <pt x="353" y="640" on="1"/>
        <pt x="250" y="192" on="1"/>
        <pt x="186" y="192" on="1"/>
        <pt x="261" y="640" on="1"/>
      </contour>
      <contour>
        <pt x="223" y="118" on="0"/>
        <pt x="255" y="89" on="0"/>
        <pt x="255" y="64" on="1"/>
        <pt x="255" y="29" on="0"/>
        <pt x="212" y="-10" on="0"/>
        <pt x="182" y="-10" on="1"/>
        <pt x="157" y="-10" on="0"/>
        <pt x="125" y="18" on="0"/>
        <pt x="125" y="43" on="1"/>
        <pt x="125" y="78" on="0"/>
        <pt x="168" y="118" on="0"/>
        <pt x="198" y="118" on="1"/>
      </contour>
    </TTGlyph>
    <TTGlyph name="exclamdbl" xMin="29" yMin="-10" xMax="449" yMax="640">
      <component glyphName="exclam" x="-96" y="0" flags="0x0"/>
      <component glyphName="exclam" x="96" y="0" flags="0x0"/>
    </TTGlyph>
    <TTGlyph name="exclamdown" xMin="95" yMin="-192" xMax="323" yMax="458">
      <contour>
        <pt x="225" y="330" on="0"/>
        <pt x="193" y="359" on="0"/>
        <pt x="193" y="384" on="1"/>
        <pt x="193" y="419" on="0"/>
        <pt x="236" y="458" on="0"/>
        <pt x="266" y="458" on="1"/>
        <pt x="291" y="458" on="0"/>
        <pt x="323" y="430" on="0"/>
        <pt x="323" y="405" on="1"/>
        <pt x="323" y="370" on="0"/>
        <pt x="280" y="330" on="0"/>
        <pt x="250" y="330" on="1"/>
      </contour>
      <contour>
        <pt x="95" y="-192" on="1"/>
        <pt x="198" y="256" on="1"/>
        <pt x="262" y="256" on="1"/>
        <pt x="187" y="-192" on="1"/>
      </contour>
    </TTGlyph>
    <TTGlyph name="f" xMin="20" yMin="-204" xMax="459" yMax="648">
      <contour>
        <pt x="312" y="584" on="0"/>
        <pt x="267" y="537" on="0"/>
        <pt x="261" y="499" on="1"/>
        <pt x="252" y="448" on="1"/>
        <pt x="395" y="448" on="1"/>
        <pt x="382" y="384" on="1"/>
        <pt x="241" y="384" on="1"/>
        <pt x="171" y="-14" on="1"/>
        <pt x="160" y="-82" on="0"/>
        <pt x="110" y="-164" on="0"/>
        <pt x="68" y="-204" on="1"/>
        <pt x="20" y="-168" on="1"/>
        <pt x="53" y="-133" on="0"/>
        <pt x="91" y="-67" on="0"/>
        <pt x="101" y="-9" on="1"/>
        <pt x="169" y="383" on="1"/>
        <pt x="91" y="386" on="1"/>
        <pt x="104" y="448" on="1"/>
        <pt x="180" y="448" on="1"/>
        <pt x="189" y="501" on="1"/>
        <pt x="203" y="577" on="0"/>
        <pt x="289" y="648" on="0"/>
        <pt x="350" y="648" on="1"/>
        <pt x="401" y="648" on="0"/>
        <pt x="459" y="637" on="1"/>
        <pt x="440" y="575" on="1"/>
        <pt x="382" y="584" on="0"/>
        <pt x="351" y="584" on="1"/>
      </contour>
    </TTGlyph>
    <TTGlyph name="female" xMin="33" yMin="-178" xMax="397" yMax="392">
      <contour>
        <pt x="210" y="-16" on="1"/>
        <pt x="306" y="-16" on="1"/>
        <pt x="293" y="-80" on="1"/>
        <pt x="197" y="-80" on="1"/>
        <pt x="178" y="-178" on="1"/>
        <pt x="110" y="-178" on="1"/>
        <pt x="129" y="-80" on="1"/>
        <pt x="33" y="-80" on="1"/>
        <pt x="46" y="-16" on="1"/>
        <pt x="142" y="-16" on="1"/>
        <pt x="160" y="60" on="1"/>
        <pt x="111" y="70" on="0"/>
        <pt x="51" y="143" on="0"/>
        <pt x="51" y="195" on="1"/>
        <pt x="51" y="206" on="0"/>
        <pt x="55" y="230" on="1"/>
        <pt x="64" y="276" on="0"/>
        <pt x="123" y="350" on="0"/>
        <pt x="207" y="392" on="0"/>
        <pt x="253" y="392" on="1"/>
        <pt x="317" y="392" on="0"/>
        <pt x="397" y="315" on="0"/>
        <pt x="397" y="254" on="1"/>
        <pt x="397" y="235" on="0"/>
        <pt x="393" y="218" on="1"/>
        <pt x="381" y="158" on="0"/>
        <pt x="289" y="69" on="0"/>
        <pt x="227" y="58" on="1"/>
      </contour>
      <contour>
        <pt x="121" y="204" on="0"/>
        <pt x="121" y="197" on="1"/>
        <pt x="121" y="163" on="0"/>
        <pt x="163" y="120" on="0"/>
        <pt x="198" y="120" on="1"/>
        <pt x="243" y="120" on="0"/>
        <pt x="316" y="183" on="0"/>
        <pt x="325" y="230" on="1"/>
        <pt x="327" y="244" on="0"/>
        <pt x="327" y="251" on="1"/>
        <pt x="327" y="285" on="0"/>
        <pt x="285" y="328" on="0"/>
        <pt x="250" y="328" on="1"/>
        <pt x="205" y="328" on="0"/>
        <pt x="132" y="265" on="0"/>
        <pt x="123" y="218" on="1"/>
      </contour>
    </TTGlyph>
    <TTGlyph name="fi" xMin="15" yMin="0" xMax="485" yMax="650">
      <contour>
        <pt x="239" y="584" on="0"/>
        <pt x="195" y="540" on="0"/>
        <pt x="188" y="506" on="1"/>
        <pt x="177" y="448" on="1"/>
        <pt x="433" y="448" on="1"/>
        <pt x="343" y="0" on="1"/>
        <pt x="271" y="0" on="1"/>
        <pt x="348" y="384" on="1"/>
        <pt x="164" y="384" on="1"/>
        <pt x="87" y="0" on="1"/>
        <pt x="15" y="0" on="1"/>
        <pt x="92" y="383" on="1"/>
        <pt x="32" y="386" on="1"/>
        <pt x="45" y="448" on="1"/>
        <pt x="105" y="448" on="1"/>
        <pt x="117" y="507" on="1"/>
        <pt x="131" y="580" on="0"/>
        <pt x="216" y="648" on="0"/>
        <pt x="278" y="648" on="1"/>
        <pt x="327" y="648" on="0"/>
        <pt x="391" y="638" on="1"/>
        <pt x="411" y="650" on="0"/>
        <pt x="432" y="650" on="1"/>
        <pt x="455" y="650" on="0"/>
        <pt x="485" y="623" on="0"/>
        <pt x="485" y="600" on="1"/>
        <pt x="485" y="568" on="0"/>
        <pt x="446" y="532" on="0"/>
        <pt x="419" y="532" on="1"/>
        <pt x="396" y="532" on="0"/>
        <pt x="367" y="557" on="0"/>
        <pt x="369" y="578" on="1"/>
        <pt x="335" y="581" on="1"/>
        <pt x="323" y="582" on="0"/>
        <pt x="294" y="584" on="0"/>
        <pt x="279" y="584" on="1"/>
      </contour>
    </TTGlyph>
    <TTGlyph name="filledbox" xMin="30" yMin="64" xMax="418" yMax="384">
      <contour>
        <pt x="354" y="64" on="1"/>
        <pt x="30" y="64" on="1"/>
        <pt x="94" y="384" on="1"/>
        <pt x="418" y="384" on="1"/>
      </contour>
    </TTGlyph>
    <TTGlyph name="filledrect" xMin="-3" yMin="128" xMax="451" yMax="320">
      <contour>
        <pt x="413" y="128" on="1"/>
        <pt x="-3" y="128" on="1"/>
        <pt x="35" y="320" on="1"/>
        <pt x="451" y="320" on="1"/>
      </contour>
    </TTGlyph>
    <TTGlyph name="five" xMin="15" yMin="0" xMax="444" yMax="576">
      <contour>
        <pt x="312" y="325" on="0"/>
        <pt x="389" y="268" on="0"/>
        <pt x="389" y="207" on="1"/>
        <pt x="389" y="189" on="0"/>
        <pt x="384" y="162" on="1"/>
        <pt x="366" y="75" on="0"/>
        <pt x="258" y="0" on="0"/>
        <pt x="173" y="0" on="1"/>
        <pt x="99" y="0" on="0"/>
        <pt x="15" y="23" on="1"/>
        <pt x="37" y="83" on="1"/>
        <pt x="114" y="64" on="0"/>
        <pt x="172" y="64" on="1"/>
        <pt x="233" y="64" on="0"/>
        <pt x="298" y="115" on="0"/>
        <pt x="309" y="170" on="1"/>
        <pt x="314" y="193" on="0"/>
        <pt x="314" y="207" on="1"/>
        <pt x="314" y="237" on="0"/>
        <pt x="275" y="261" on="0"/>
        <pt x="228" y="261" on="1"/>
        <pt x="180" y="261" on="0"/>
        <pt x="100" y="248" on="1"/>
        <pt x="78" y="271" on="1"/>
        <pt x="151" y="576" on="1"/>
        <pt x="444" y="576" on="1"/>
        <pt x="432" y="512" on="1"/>
        <pt x="209" y="512" on="1"/>
        <pt x="158" y="317" on="1"/>
        <pt x="196" y="325" on="0"/>
        <pt x="251" y="325" on="1"/>
      </contour>
    </TTGlyph>
    <TTGlyph name="five.dnom" xMin="-115" yMin="-192" xMax="141" yMax="128">
      <component glyphName="uni2075" x="-198" y="-512" flags="0x4"/>
    </TTGlyph>
    <TTGlyph name="five.numr" xMin="83" yMin="320" xMax="339" yMax="640">
      <component glyphName="uni2075" x="0" y="0" flags="0x0"/>
    </TTGlyph>
    <TTGlyph name="fiveeighths" xMin="39" yMin="-198" xMax="408" yMax="640">
      <component glyphName="five.numr" x="0" y="0" flags="0x0"/>
      <component glyphName="fraction.alt" x="224" y="0" flags="0x0"/>
      <component glyphName="eight.dnom" x="224" y="0" flags="0x0"/>
    </TTGlyph>
    <TTGlyph name="fl" xMin="15" yMin="-4" xMax="469" yMax="648">
      <contour>
        <pt x="364" y="104" on="0"/>
        <pt x="364" y="98" on="1"/>
        <pt x="364" y="79" on="0"/>
        <pt x="388" y="60" on="0"/>
        <pt x="416" y="60" on="1"/>
        <pt x="405" y="-4" on="1"/>
        <pt x="354" y="-4" on="0"/>
        <pt x="293" y="42" on="0"/>
        <pt x="293" y="90" on="1"/>
        <pt x="293" y="108" on="0"/>
        <pt x="297" y="127" on="1"/>
        <pt x="348" y="384" on="1"/>
        <pt x="164" y="384" on="1"/>
        <pt x="87" y="0" on="1"/>
        <pt x="15" y="0" on="1"/>
        <pt x="92" y="383" on="1"/>
        <pt x="32" y="386" on="1"/>
        <pt x="45" y="448" on="1"/>
        <pt x="105" y="448" on="1"/>
        <pt x="117" y="507" on="1"/>
        <pt x="145" y="648" on="0"/>
        <pt x="288" y="648" on="1"/>
        <pt x="380" y="648" on="0"/>
        <pt x="469" y="640" on="1"/>
        <pt x="366" y="116" on="1"/>
      </contour>
      <contour>
        <pt x="361" y="448" on="1"/>
        <pt x="390" y="580" on="1"/>
        <pt x="334" y="584" on="0"/>
        <pt x="290" y="584" on="1"/>
        <pt x="204" y="584" on="0"/>
        <pt x="188" y="506" on="1"/>
        <pt x="177" y="448" on="1"/>
      </contour>
    </TTGlyph>
    <TTGlyph name="florin" xMin="3" yMin="-197" xMax="479" yMax="648">
      <contour>
        <pt x="402" y="584" on="0"/>
        <pt x="371" y="584" on="1"/>
        <pt x="333" y="584" on="0"/>
        <pt x="289" y="540" on="0"/>
        <pt x="282" y="506" on="1"/>
        <pt x="271" y="448" on="1"/>
        <pt x="415" y="448" on="1"/>
        <pt x="402" y="384" on="1"/>
        <pt x="258" y="384" on="1"/>
        <pt x="180" y="-8" on="1"/>
        <pt x="165" y="-82" on="0"/>
        <pt x="96" y="-167" on="0"/>
        <pt x="25" y="-197" on="1"/>
        <pt x="3" y="-135" on="1"/>
        <pt x="51" y="-114" on="0"/>
        <pt x="97" y="-59" on="0"/>
        <pt x="107" y="-10" on="1"/>
        <pt x="186" y="383" on="1"/>
        <pt x="111" y="386" on="1"/>
        <pt x="124" y="448" on="1"/>
        <pt x="199" y="448" on="1"/>
        <pt x="211" y="507" on="1"/>
        <pt x="225" y="579" on="0"/>
        <pt x="310" y="648" on="0"/>
        <pt x="370" y="648" on="1"/>
        <pt x="421" y="648" on="0"/>
        <pt x="479" y="637" on="1"/>
        <pt x="460" y="575" on="1"/>
      </contour>
    </TTGlyph>
    <TTGlyph name="four" xMin="22" yMin="0" xMax="417" yMax="593">
      <contour>
        <pt x="417" y="192" on="1"/>
        <pt x="404" y="128" on="1"/>
        <pt x="320" y="128" on="1"/>
        <pt x="294" y="0" on="1"/>
        <pt x="222" y="0" on="1"/>
        <pt x="248" y="128" on="1"/>
        <pt x="22" y="131" on="1"/>
        <pt x="73" y="336" on="0"/>
        <pt x="259" y="560" on="0"/>
        <pt x="410" y="593" on="1"/>
        <pt x="333" y="192" on="1"/>
      </contour>
      <contour>
        <pt x="323" y="493" on="1"/>
        <pt x="250" y="457" on="0"/>
        <pt x="147" y="305" on="0"/>
        <pt x="111" y="189" on="1"/>
        <pt x="261" y="192" on="1"/>
      </contour>
    </TTGlyph>
    <TTGlyph name="four.dnom" xMin="-104" yMin="-192" xMax="137" yMax="141">
      <component glyphName="uni2074" x="-198" y="-512" flags="0x4"/>
    </TTGlyph>
    <TTGlyph name="four.numr" xMin="94" yMin="320" xMax="335" yMax="653">
      <component glyphName="uni2074" x="0" y="0" flags="0x0"/>
    </TTGlyph>
    <TTGlyph name="fraction" xMin="62" yMin="-69" xMax="424" yMax="710">
      <component glyphName="slash" x="0" y="0" flags="0x0"/>
    </TTGlyph>
    <TTGlyph name="fraction.alt" xMin="-185" yMin="171" xMax="184" yMax="277">
      <contour>
        <pt x="184" y="277" on="1"/>
        <pt x="181" y="222" on="1"/>
        <pt x="-185" y="171" on="1"/>
        <pt x="-182" y="226" on="1"/>
      </contour>
    </TTGlyph>
    <TTGlyph name="franc" xMin="-12" yMin="0" xMax="454" yMax="576">
      <contour>
        <pt x="50" y="174" on="1"/>
        <pt x="130" y="576" on="1"/>
        <pt x="454" y="576" on="1"/>
        <pt x="442" y="512" on="1"/>
        <pt x="190" y="512" on="1"/>
        <pt x="151" y="320" on="1"/>
        <pt x="339" y="320" on="1"/>
        <pt x="326" y="256" on="1"/>
        <pt x="138" y="256" on="1"/>
        <pt x="122" y="174" on="1"/>
        <pt x="256" y="174" on="1"/>
        <pt x="244" y="114" on="1"/>
        <pt x="110" y="114" on="1"/>
        <pt x="87" y="0" on="1"/>
        <pt x="15" y="0" on="1"/>
        <pt x="38" y="114" on="1"/>
        <pt x="-12" y="114" on="1"/>
        <pt x="0" y="174" on="1"/>
      </contour>
    </TTGlyph>
</ttFont>
